<svg width="594" height="594" viewBox="0 0 594 594" fill="none" xmlns="http://www.w3.org/2000/svg">
<g clip-path="url(#clip0_4502_9610)">
<path d="M593.5 454.026H0.5V454.323H593.5V454.026Z" fill="#EBEBEB"/>
<path d="M534.081 473.109H494.801V473.406H534.081V473.109Z" fill="#EBEBEB"/>
<path d="M393.327 476.335H383.021V476.631H393.327V476.335Z" fill="#EBEBEB"/>
<path d="M493.615 462.103H470.856V462.4H493.615V462.103Z" fill="#EBEBEB"/>
<path d="M113.941 464.095H62.7175V464.392H113.941V464.095Z" fill="#EBEBEB"/>
<path d="M132.015 464.095H124.508V464.392H132.015V464.095Z" fill="#EBEBEB"/>
<path d="M267.528 469.1H156.423V469.397H267.528V469.1Z" fill="#EBEBEB"/>
<path d="M281.582 401.131H52.5773C50.7833 401.128 49.0639 400.413 47.7964 399.143C46.529 397.873 45.8171 396.153 45.8171 394.359V72.4427C45.8328 70.659 46.5515 68.9535 47.8173 67.6966C49.083 66.4398 50.7936 65.733 52.5773 65.73H281.582C283.378 65.73 285.101 66.4435 286.371 67.7135C287.641 68.9835 288.354 70.706 288.354 72.502V394.359C288.354 396.155 287.641 397.877 286.371 399.147C285.101 400.417 283.378 401.131 281.582 401.131ZM52.5773 65.9672C50.862 65.9703 49.2179 66.654 48.0061 67.868C46.7943 69.0821 46.1136 70.7274 46.1136 72.4427V394.359C46.1136 396.074 46.7943 397.719 48.0061 398.933C49.2179 400.147 50.862 400.831 52.5773 400.834H281.582C283.299 400.831 284.944 400.148 286.158 398.934C287.371 397.72 288.055 396.075 288.058 394.359V72.4427C288.055 70.7263 287.371 69.081 286.158 67.8673C284.944 66.6536 283.299 65.9703 281.582 65.9672H52.5773Z" fill="#EBEBEB"/>
<path d="M538.126 401.131H309.109C307.314 401.128 305.593 400.413 304.324 399.144C303.055 397.875 302.34 396.154 302.337 394.359V72.4427C302.356 70.6579 303.077 68.9524 304.345 67.6959C305.612 66.4393 307.324 65.733 309.109 65.73H538.126C539.907 65.7362 541.615 66.4442 542.878 67.7008C544.141 68.9573 544.858 70.6611 544.874 72.4427V394.359C544.874 396.151 544.164 397.87 542.899 399.139C541.634 400.408 539.918 401.124 538.126 401.131ZM309.109 65.9672C307.393 65.9703 305.747 66.6536 304.534 67.8673C303.32 69.081 302.637 70.7263 302.633 72.4427V394.359C302.637 396.075 303.32 397.72 304.534 398.934C305.747 400.148 307.393 400.831 309.109 400.834H538.126C539.842 400.831 541.487 400.148 542.701 398.934C543.915 397.72 544.598 396.075 544.601 394.359V72.4427C544.598 70.7263 543.915 69.081 542.701 67.8673C541.487 66.6536 539.842 65.9703 538.126 65.9672H309.109Z" fill="#EBEBEB"/>
<path d="M439.415 351.687V374.873L449.199 381.989H403.479L418.091 376.581V353.3L439.415 351.687Z" fill="#E0E0E0"/>
<path d="M309.121 381.325V454.37H534.069V381.325H309.121ZM312.797 386.069H493.402V409.943H312.797V386.069Z" fill="#E0E0E0"/>
<path d="M309.121 381.325V454.37H498.312V381.325H309.121ZM312.797 386.069H493.402V409.943H312.797V386.069Z" fill="#EBEBEB"/>
<path d="M312.809 409.931H345.733V386.057H312.809V409.931Z" fill="#E0E0E0"/>
<path d="M445.724 409.931H493.402V398H445.724V409.931Z" fill="#E0E0E0"/>
<path d="M412.042 409.931H442.712V402.839H412.042V409.931Z" fill="#E0E0E0"/>
<path d="M368.801 409.943H404.962V395.438H368.801V409.943Z" fill="#E0E0E0"/>
<path d="M457.49 415.125L458.367 417.984H470.097L470.974 415.125H493.402V446.815H435.074V415.125H457.49Z" fill="#E0E0E0"/>
<path d="M396.434 415.125L397.312 417.984H409.041L409.907 415.125H432.334V446.815H374.007V415.125H396.434Z" fill="#E0E0E0"/>
<path d="M335.379 415.125L336.257 417.984H347.974L348.852 415.125H371.279V446.815H312.952V415.125H335.379Z" fill="#E0E0E0"/>
<path d="M342.946 365.539H497.956C500.268 365.539 502.142 363.665 502.142 361.352V271.003C502.142 268.691 500.268 266.816 497.956 266.816H342.946C340.633 266.816 338.759 268.691 338.759 271.003V361.352C338.759 363.665 340.633 365.539 342.946 365.539Z" fill="#E0E0E0"/>
<path d="M339.103 365.539H494.113C496.425 365.539 498.3 363.665 498.3 361.352V271.003C498.3 268.691 496.425 266.816 494.113 266.816H339.103C336.791 266.816 334.916 268.691 334.916 271.003V361.352C334.916 363.665 336.791 365.539 339.103 365.539Z" fill="#E6E6E6"/>
<path d="M493.508 360.736V271.62H339.732V360.736H493.508Z" fill="#F0F0F0"/>
<path d="M518.296 99.5667H384.729V247.366H518.296V99.5667Z" fill="#E9E9E9"/>
<path d="M512.757 105.425H390.599V241.815H512.757V105.425Z" fill="#F4F4F4"/>
<path d="M425.124 105.425L390.599 234.723V164.725L406.397 105.425H425.124Z" fill="white"/>
<path d="M440.554 105.425L404.143 241.815H397.276L433.687 105.425H440.554Z" fill="white"/>
<path d="M512.757 142.618V212.628L505.024 241.815H486.297L512.757 142.618Z" fill="white"/>
<path d="M453.872 99.5667H449.128V247.366H453.872V99.5667Z" fill="#E9E9E9"/>
<path d="M515.722 129.561H387.041V134.305H515.722V129.561Z" fill="#E9E9E9"/>
<path d="M85.1448 226.706V263.484H137.175V226.706H85.1448Z" fill="#E0E0E0"/>
<path d="M87.5879 229.113V261.088H134.731V229.113H87.5879Z" fill="#EBEBEB"/>
<path d="M103.196 180.523V217.301H155.226V180.523H103.196Z" fill="#E0E0E0"/>
<path d="M105.639 182.93V214.905H152.782V182.93H105.639Z" fill="#EBEBEB"/>
<path d="M180.167 226.718H147.054V273.565H180.167V226.718Z" fill="#E0E0E0"/>
<path d="M178.009 228.924H149.213V271.371H178.009V228.924Z" fill="#EBEBEB"/>
<path d="M199.001 165.259H162.223V217.289H199.001V165.259Z" fill="#E0E0E0"/>
<path d="M196.593 167.714H164.619V214.858H196.593V167.714Z" fill="#EBEBEB"/>
<path d="M232.149 255.514V226.718H191.41V255.514H232.149Z" fill="#E0E0E0"/>
<path d="M230.228 253.628V228.592H193.32V253.628H230.228Z" fill="#EBEBEB"/>
<path d="M76.4041 309.465H204.99C207.769 309.468 210.432 310.574 212.396 312.54C214.36 314.506 215.463 317.171 215.463 319.949L229.695 410.631H80.1163L65.8843 319.949C65.8827 318.569 66.154 317.202 66.6825 315.927C67.2111 314.652 67.9865 313.494 68.9641 312.52C69.9418 311.545 71.1024 310.774 72.3792 310.25C73.656 309.725 75.0239 309.459 76.4041 309.465Z" fill="#EBEBEB"/>
<path d="M229.315 344.535L229.161 344.072H278.973V454.37H217.301V357.296C217.254 354.025 218.482 350.865 220.724 348.483C222.966 346.101 226.047 344.685 229.315 344.535Z" fill="#E0E0E0"/>
<path d="M279.495 344.511C282.881 344.518 286.127 345.867 288.52 348.264C290.912 350.661 292.256 353.91 292.256 357.296V454.37H266.709V357.296C266.709 353.905 268.056 350.654 270.454 348.256C272.852 345.858 276.104 344.511 279.495 344.511Z" fill="#F0F0F0"/>
<path d="M85.8089 344.535L85.6547 344.072H135.467V454.37H73.7947V357.296C73.7481 354.025 74.9759 350.865 77.2181 348.483C79.4604 346.101 82.5413 344.685 85.8089 344.535Z" fill="#E0E0E0"/>
<path d="M148.774 454.37H258.372V376.687H148.774V454.37Z" fill="#E0E0E0"/>
<path d="M251.232 395.651L127.888 395.651V368.717H251.232C254.806 368.717 258.233 370.137 260.759 372.663C263.286 375.19 264.705 378.617 264.705 382.19C264.702 385.761 263.281 389.185 260.755 391.709C258.229 394.234 254.804 395.651 251.232 395.651Z" fill="#F5F5F5"/>
<path d="M135.989 344.511C139.375 344.518 142.621 345.867 145.014 348.264C147.406 350.661 148.75 353.91 148.75 357.296V454.37H123.204V357.296C123.204 353.905 124.551 350.654 126.948 348.256C129.346 345.858 132.598 344.511 135.989 344.511Z" fill="#F0F0F0"/>
<path d="M101.061 411.971H80.1163L65.8843 319.949C65.8827 318.569 66.154 317.202 66.6825 315.927C67.2111 314.652 67.9865 313.494 68.9641 312.52C69.9418 311.545 71.1024 310.774 72.3792 310.25C73.656 309.725 75.0239 309.459 76.4041 309.465C77.7809 309.465 79.1442 309.736 80.4162 310.263C81.6883 310.79 82.844 311.562 83.8176 312.536C84.7911 313.509 85.5634 314.665 86.0903 315.937C86.6172 317.209 86.8883 318.572 86.8883 319.949L101.061 411.971Z" fill="#E0E0E0"/>
<path d="M70.8653 90.0192V125.03C70.8707 125.483 70.9685 125.931 71.1528 126.345C71.3371 126.759 71.6039 127.131 71.9369 127.439C72.27 127.746 72.6622 127.983 73.0898 128.133C73.5173 128.284 73.971 128.346 74.4233 128.315H192.81C192.81 128.315 206.496 121.934 205.524 113.016C204.753 105.9 203.946 100.1 203.282 95.6883C202.892 93.0976 201.581 90.7343 199.59 89.0311C197.6 87.3279 195.062 86.3987 192.442 86.4138H74.4233C73.952 86.4137 73.4855 86.5073 73.0507 86.6891C72.6159 86.8708 72.2215 87.1371 71.8905 87.4726C71.5595 87.808 71.2984 88.2059 71.1224 88.643C70.9464 89.0802 70.859 89.548 70.8653 90.0192Z" fill="#F5F5F5"/>
<path d="M70.8653 90.0193V125.03C70.8707 125.483 70.9685 125.931 71.1527 126.345C71.337 126.759 71.6038 127.131 71.9369 127.439C72.2699 127.746 72.6622 127.983 73.0897 128.133C73.5172 128.284 73.971 128.346 74.4233 128.315H84.8719C84.8719 128.315 98.5584 121.935 97.5858 113.016C96.8031 105.935 96.0085 100.124 95.3799 95.7239C94.9894 93.1333 93.6787 90.77 91.688 89.0668C89.6973 87.3635 87.1597 86.4344 84.5398 86.4494H74.4588C73.9876 86.4447 73.5201 86.5336 73.0836 86.7111C72.647 86.8885 72.25 87.1509 71.9157 87.483C71.5814 87.8151 71.3163 88.2104 71.136 88.6457C70.9557 89.0811 70.8637 89.548 70.8653 90.0193Z" fill="#E6E6E6"/>
<path d="M202.808 115.874H99.3886C99.3886 115.874 95.9729 123.441 90.1733 126.548H191.221C191.221 126.548 201.918 121.662 202.808 115.874Z" fill="#E0E0E0"/>
<path d="M195.668 123.002H95.8306L97.3131 126.572H195.668V123.002Z" fill="#EBEBEB"/>
<path d="M199.238 118.542H99.3887L100.883 122.112H199.238V118.542Z" fill="#EBEBEB"/>
<path d="M102.958 114.237H105.485V113.194H102.958V114.237Z" fill="#E0E0E0"/>
<path d="M106.517 114.237H109.043V113.194H106.517V114.237Z" fill="#E0E0E0"/>
<path d="M297 507.586C424 507.586 526.953 501.575 526.953 494.161C526.953 486.746 424 480.735 297 480.735C170 480.735 67.0464 486.746 67.0464 494.161C67.0464 501.575 170 507.586 297 507.586Z" fill="#F5F5F5"/>
<path d="M108.07 408.603C108.319 410.346 103.587 411.496 99.7683 412.161C100.089 415.327 102.14 418.529 105.093 421.518C108.758 419.454 113.977 416.774 114.949 417.403C115.922 418.031 110.608 421.53 107.24 423.594C109.633 425.677 112.165 427.594 114.819 429.334C116.455 427.804 118.377 426.452 119.563 427.187C120.749 427.922 120.428 430.306 119.835 432.429C123.82 434.742 126.797 436.153 126.797 436.153C127.956 432.454 128.848 428.677 129.466 424.851C129.264 424.459 129.063 424.056 128.873 423.665C128.232 422.182 128.873 421.554 129.916 421.352C130.218 418.646 130.242 415.915 129.988 413.204C125.481 412.255 120.001 410.512 122.053 407.808C123.239 406.183 125.611 405.993 127.912 406.397C127.592 405.858 127.218 405.354 126.797 404.89C118.602 395.853 112.885 404.89 112.885 404.89C108.141 400.917 101.417 401.985 99.9699 408.199C102.638 407.476 107.762 406.456 108.07 408.603Z" fill="#407BFF"/>
<path opacity="0.3" d="M108.07 408.603C108.319 410.346 103.587 411.496 99.7683 412.161C100.089 415.327 102.14 418.529 105.093 421.518C108.758 419.454 113.977 416.774 114.949 417.403C115.922 418.031 110.608 421.53 107.24 423.594C109.633 425.677 112.165 427.594 114.819 429.334C116.455 427.804 118.377 426.452 119.563 427.187C120.749 427.922 120.428 430.306 119.835 432.429C123.82 434.742 126.797 436.153 126.797 436.153C127.956 432.454 128.848 428.677 129.466 424.851C129.264 424.459 129.063 424.056 128.873 423.665C128.232 422.182 128.873 421.554 129.916 421.352C130.218 418.646 130.242 415.915 129.988 413.204C125.481 412.255 120.001 410.512 122.053 407.808C123.239 406.183 125.611 405.993 127.912 406.397C127.592 405.858 127.218 405.354 126.797 404.89C118.602 395.853 112.885 404.89 112.885 404.89C108.141 400.917 101.417 401.985 99.9699 408.199C102.638 407.476 107.762 406.456 108.07 408.603Z" fill="white"/>
<path d="M118.305 475.007L117.119 474.912C117.119 474.295 121.97 413.797 108.39 408.093C107.743 407.792 107.034 407.646 106.32 407.664C105.606 407.683 104.906 407.866 104.275 408.199C99.3768 410.749 97.0286 421.34 97.0048 421.447L95.8188 421.198C95.9137 420.747 98.3094 409.955 103.706 407.144C104.492 406.729 105.363 406.501 106.251 406.476C107.139 406.451 108.021 406.631 108.829 407.001C123.215 413.038 118.507 472.528 118.305 475.007Z" fill="#407BFF"/>
<path d="M120.013 473.714C119.776 470.998 114.226 406.99 124.591 400.182C127.082 398.545 129.335 398.201 131.174 399.15C136.072 401.629 136.712 412.089 136.736 412.54L135.55 412.611C135.55 412.505 134.921 402.376 130.64 400.218C129.157 399.47 127.343 399.791 125.244 401.166C115.471 407.583 121.14 472.943 121.187 473.607L120.013 473.714Z" fill="#407BFF"/>
<path d="M121.567 478.873C121.496 476.786 119.788 427.792 129.217 423.499C130.097 423.089 131.056 422.876 132.028 422.876C132.999 422.876 133.958 423.089 134.838 423.499C141.314 426.345 145.311 438.419 145.512 438.917L144.386 439.285C144.386 439.166 140.377 427.211 134.388 424.578C133.664 424.233 132.871 424.053 132.069 424.053C131.267 424.053 130.475 424.233 129.75 424.578C122.516 427.863 122.267 464.902 122.789 478.826L121.567 478.873Z" fill="#407BFF"/>
<path d="M119.171 476.632L117.985 476.501C119.657 461.913 122.836 423.048 117.641 418.387C117.39 418.083 117.055 417.858 116.678 417.74C116.301 417.622 115.898 417.616 115.518 417.723C111.984 419.158 109.909 431.73 109.387 436.497L108.201 436.367C108.402 434.54 110.3 418.482 115.079 416.656C115.66 416.457 116.286 416.434 116.879 416.59C117.472 416.746 118.005 417.074 118.412 417.533C125.137 423.522 119.42 474.461 119.171 476.632Z" fill="#407BFF"/>
<path d="M99.377 448.986H141.99L138.432 496.711H102.935L99.377 448.986Z" fill="#263238"/>
<path opacity="0.2" d="M112.316 448.986L113.502 496.711H138.432L141.99 448.986H112.316Z" fill="white"/>
<path d="M105.176 431.469C104.738 432.655 101.429 431.718 98.8313 430.793C97.9418 432.856 98.1434 435.537 98.9143 438.383C101.867 438.383 106.03 438.478 106.398 439.225C106.766 439.972 102.306 440.328 99.5429 440.411C100.305 442.519 101.212 444.572 102.259 446.555C103.789 446.163 105.437 445.997 105.888 446.839C106.339 447.681 105.354 449.057 104.263 450.16C105.924 452.959 107.276 454.904 107.276 454.904C109.262 453.011 111.105 450.973 112.79 448.808C112.79 448.5 112.79 448.179 112.79 447.859C112.909 446.673 113.514 446.543 114.237 446.78C115.349 445.212 116.299 443.535 117.072 441.775C114.617 439.652 111.83 436.699 114.024 435.726C115.352 435.157 116.811 435.809 118.116 436.912C118.109 436.469 118.053 436.027 117.95 435.596C115.993 427.211 109.375 430.852 109.375 430.852C107.797 426.772 103.291 425.147 100.278 428.48C102.223 428.907 105.734 430.034 105.176 431.469Z" fill="#407BFF"/>
<path opacity="0.3" d="M105.176 431.469C104.738 432.655 101.429 431.718 98.8313 430.793C97.9418 432.856 98.1434 435.537 98.9143 438.383C101.867 438.383 106.03 438.478 106.398 439.225C106.766 439.972 102.306 440.328 99.5429 440.411C100.305 442.519 101.212 444.572 102.259 446.555C103.789 446.163 105.437 445.997 105.888 446.839C106.339 447.681 105.354 449.057 104.263 450.16C105.924 452.959 107.276 454.904 107.276 454.904C109.262 453.011 111.105 450.973 112.79 448.808C112.79 448.5 112.79 448.179 112.79 447.859C112.909 446.673 113.514 446.543 114.237 446.78C115.349 445.212 116.299 443.535 117.072 441.775C114.617 439.652 111.83 436.699 114.024 435.726C115.352 435.157 116.811 435.809 118.116 436.912C118.109 436.469 118.053 436.027 117.95 435.596C115.993 427.211 109.375 430.852 109.375 430.852C107.797 426.772 103.291 425.147 100.278 428.48C102.223 428.907 105.734 430.034 105.176 431.469Z" fill="white"/>
<path d="M136.819 437.138C135.493 437.248 134.186 437.523 132.929 437.956C132.586 437.052 132.39 436.099 132.348 435.133C132.075 426.547 138.278 430.164 141.48 427.638C142.22 426.993 143.086 426.508 144.023 426.214C144.96 425.921 145.947 425.824 146.924 425.93C146.643 426.406 146.397 426.901 146.188 427.413C146.11 427.599 146.076 427.801 146.088 428.003C146.1 428.205 146.158 428.402 146.257 428.578C146.357 428.754 146.495 428.906 146.662 429.02C146.829 429.135 147.02 429.209 147.22 429.239C148.021 429.397 148.851 429.297 149.592 428.954C149.812 428.834 150.019 428.691 150.209 428.527C150.728 429.428 151.127 430.393 151.395 431.397C151.716 432.599 151.903 433.832 151.952 435.074C151.461 435.178 150.977 435.317 150.505 435.489C150.319 435.57 150.153 435.692 150.021 435.846C149.889 436.001 149.794 436.183 149.742 436.379C149.691 436.576 149.685 436.781 149.725 436.981C149.764 437.18 149.849 437.367 149.972 437.529C150.489 438.043 151.09 438.465 151.751 438.774C151.527 440.149 151.162 441.496 150.659 442.795L150.221 442.866C149.912 442.925 149.604 443.008 149.296 443.091L148.786 443.281C148.574 443.374 148.39 443.518 148.249 443.7C148.108 443.882 148.015 444.097 147.979 444.325C147.96 444.549 147.996 444.775 148.085 444.982C148.174 445.189 148.313 445.371 148.489 445.511C148.691 445.659 148.905 445.79 149.129 445.902C148.31 447.319 147.137 448.5 145.726 449.33C144.479 448.765 143.267 448.128 142.096 447.42C142.357 447.076 142.618 446.732 142.856 446.377C143.135 445.984 143.265 445.505 143.223 445.025C143.147 444.556 142.897 444.132 142.523 443.839C142.333 443.691 142.116 443.583 141.884 443.52C141.652 443.457 141.41 443.44 141.171 443.471C140.702 443.547 140.279 443.797 139.985 444.171C139.701 444.598 139.381 445.001 139.072 445.357C137.431 444.147 135.962 442.718 134.708 441.111H134.838C135.616 440.908 136.409 440.773 137.21 440.708C137.614 440.575 137.958 440.305 138.185 439.946C138.411 439.586 138.505 439.159 138.45 438.737C138.395 438.316 138.195 437.927 137.885 437.637C137.574 437.347 137.172 437.175 136.748 437.15L136.819 437.138Z" fill="#407BFF"/>
<path opacity="0.5" d="M136.819 437.138C135.493 437.248 134.186 437.523 132.929 437.956C132.586 437.052 132.39 436.099 132.348 435.133C132.075 426.547 138.278 430.164 141.48 427.638C142.22 426.993 143.086 426.508 144.023 426.214C144.96 425.921 145.947 425.824 146.924 425.93C146.643 426.406 146.397 426.901 146.188 427.413C146.11 427.599 146.076 427.801 146.088 428.003C146.1 428.205 146.158 428.402 146.257 428.578C146.357 428.754 146.495 428.906 146.662 429.02C146.829 429.135 147.02 429.209 147.22 429.239C148.021 429.397 148.851 429.297 149.592 428.954C149.812 428.834 150.019 428.691 150.209 428.527C150.728 429.428 151.127 430.393 151.395 431.397C151.716 432.599 151.903 433.832 151.952 435.074C151.461 435.178 150.977 435.317 150.505 435.489C150.319 435.57 150.153 435.692 150.021 435.846C149.889 436.001 149.794 436.183 149.742 436.379C149.691 436.576 149.685 436.781 149.725 436.981C149.764 437.18 149.849 437.367 149.972 437.529C150.489 438.043 151.09 438.465 151.751 438.774C151.527 440.149 151.162 441.496 150.659 442.795L150.221 442.866C149.912 442.925 149.604 443.008 149.296 443.091L148.786 443.281C148.574 443.374 148.39 443.518 148.249 443.7C148.108 443.882 148.015 444.097 147.979 444.325C147.96 444.549 147.996 444.775 148.085 444.982C148.174 445.189 148.313 445.371 148.489 445.511C148.691 445.659 148.905 445.79 149.129 445.902C148.31 447.319 147.137 448.5 145.726 449.33C144.479 448.765 143.267 448.128 142.096 447.42C142.357 447.076 142.618 446.732 142.856 446.377C143.135 445.984 143.265 445.505 143.223 445.025C143.147 444.556 142.897 444.132 142.523 443.839C142.333 443.691 142.116 443.583 141.884 443.52C141.652 443.457 141.41 443.44 141.171 443.471C140.702 443.547 140.279 443.797 139.985 444.171C139.701 444.598 139.381 445.001 139.072 445.357C137.431 444.147 135.962 442.718 134.708 441.111H134.838C135.616 440.908 136.409 440.773 137.21 440.708C137.614 440.575 137.958 440.305 138.185 439.946C138.411 439.586 138.505 439.159 138.45 438.737C138.395 438.316 138.195 437.927 137.885 437.637C137.574 437.347 137.172 437.175 136.748 437.15L136.819 437.138Z" fill="white"/>
<path d="M139.262 407.511C139.995 406.986 140.792 406.556 141.634 406.231C141.417 405.607 141.101 405.022 140.697 404.499C137.068 399.862 135.431 404.499 132.609 404.57C131.946 404.56 131.288 404.687 130.676 404.942C130.064 405.197 129.51 405.575 129.051 406.053C129.403 406.184 129.747 406.334 130.082 406.503C130.207 406.567 130.315 406.659 130.398 406.771C130.481 406.883 130.538 407.013 130.563 407.151C130.588 407.288 130.581 407.43 130.543 407.564C130.505 407.699 130.437 407.823 130.343 407.927C129.991 408.373 129.505 408.693 128.956 408.84C128.782 408.851 128.608 408.851 128.434 408.84C128.566 409.539 128.781 410.22 129.074 410.868C129.434 411.639 129.88 412.367 130.403 413.038C130.705 412.879 131.018 412.74 131.34 412.623C131.473 412.581 131.614 412.571 131.753 412.592C131.891 412.613 132.022 412.666 132.137 412.746C132.252 412.826 132.346 412.932 132.414 413.055C132.481 413.177 132.519 413.314 132.526 413.453C132.483 413.951 132.35 414.438 132.134 414.888C132.866 415.519 133.661 416.071 134.506 416.537L134.767 416.371L135.36 416.086C135.474 416.034 135.593 415.995 135.716 415.968C135.866 415.921 136.026 415.914 136.18 415.947C136.333 415.98 136.476 416.053 136.594 416.157C136.712 416.267 136.799 416.406 136.847 416.56C136.894 416.714 136.901 416.878 136.866 417.035C136.826 417.2 136.774 417.363 136.712 417.521C137.762 417.907 138.894 418.013 139.997 417.83C140.408 416.988 140.765 416.12 141.065 415.232L140.211 415.019C139.894 414.933 139.618 414.74 139.428 414.473C139.25 414.191 139.191 413.85 139.262 413.524C139.294 413.363 139.359 413.211 139.453 413.076C139.547 412.941 139.667 412.827 139.808 412.742C140.09 412.564 140.431 412.504 140.756 412.576C141.088 412.671 141.432 412.742 141.764 412.825C142.101 411.472 142.249 410.079 142.203 408.686H142.12C141.613 408.922 141.129 409.204 140.673 409.528C140.536 409.616 140.382 409.677 140.22 409.706C140.059 409.736 139.893 409.733 139.733 409.698C139.573 409.664 139.421 409.598 139.286 409.504C139.152 409.411 139.037 409.292 138.948 409.154C138.859 409.016 138.798 408.862 138.769 408.701C138.74 408.54 138.742 408.374 138.777 408.214C138.812 408.054 138.878 407.902 138.971 407.767C139.064 407.632 139.183 407.517 139.321 407.428L139.262 407.511Z" fill="#407BFF"/>
<path opacity="0.3" d="M139.262 407.511C139.995 406.986 140.792 406.556 141.634 406.231C141.417 405.607 141.101 405.022 140.697 404.499C137.068 399.862 135.431 404.499 132.609 404.57C131.946 404.56 131.288 404.687 130.676 404.942C130.064 405.197 129.51 405.575 129.051 406.053C129.403 406.184 129.747 406.334 130.082 406.503C130.207 406.567 130.315 406.659 130.398 406.771C130.481 406.883 130.538 407.013 130.563 407.151C130.588 407.288 130.581 407.43 130.543 407.564C130.505 407.699 130.437 407.823 130.343 407.927C129.991 408.373 129.505 408.693 128.956 408.84C128.782 408.851 128.608 408.851 128.434 408.84C128.566 409.539 128.781 410.22 129.074 410.868C129.434 411.639 129.88 412.367 130.403 413.038C130.705 412.879 131.018 412.74 131.34 412.623C131.473 412.581 131.614 412.571 131.753 412.592C131.891 412.613 132.022 412.666 132.137 412.746C132.252 412.826 132.346 412.932 132.414 413.055C132.481 413.177 132.519 413.314 132.526 413.453C132.483 413.951 132.35 414.438 132.134 414.888C132.866 415.519 133.661 416.071 134.506 416.537L134.767 416.371L135.36 416.086C135.474 416.034 135.593 415.995 135.716 415.968C135.866 415.921 136.026 415.914 136.18 415.947C136.333 415.98 136.476 416.053 136.594 416.157C136.712 416.267 136.799 416.406 136.847 416.56C136.894 416.714 136.901 416.878 136.866 417.035C136.826 417.2 136.774 417.363 136.712 417.521C137.762 417.907 138.894 418.013 139.997 417.83C140.408 416.988 140.765 416.12 141.065 415.232L140.211 415.019C139.894 414.933 139.618 414.74 139.428 414.473C139.25 414.191 139.191 413.85 139.262 413.524C139.294 413.363 139.359 413.211 139.453 413.076C139.547 412.941 139.667 412.827 139.808 412.742C140.09 412.564 140.431 412.504 140.756 412.576C141.088 412.671 141.432 412.742 141.764 412.825C142.101 411.472 142.249 410.079 142.203 408.686H142.12C141.613 408.922 141.129 409.204 140.673 409.528C140.536 409.616 140.382 409.677 140.22 409.706C140.059 409.736 139.893 409.733 139.733 409.698C139.573 409.664 139.421 409.598 139.286 409.504C139.152 409.411 139.037 409.292 138.948 409.154C138.859 409.016 138.798 408.862 138.769 408.701C138.74 408.54 138.742 408.374 138.777 408.214C138.812 408.054 138.878 407.902 138.971 407.767C139.064 407.632 139.183 407.517 139.321 407.428L139.262 407.511Z" fill="white"/>
<path d="M104.56 416.11C104.311 417.853 109.043 419.004 112.862 419.668C112.541 422.835 110.49 426.037 107.525 429.014C103.872 426.962 98.6415 424.27 97.6809 424.898C96.7202 425.527 101.986 429.085 105.331 431.113C102.94 433.192 100.408 435.102 97.752 436.83C96.1154 435.3 94.194 433.959 93.008 434.683C91.822 435.406 92.1423 437.814 92.7353 439.925C88.7503 442.297 85.7734 443.661 85.7734 443.661C84.6146 439.962 83.7228 436.185 83.1049 432.358C83.3066 431.955 83.5082 431.564 83.6861 431.172C84.3384 429.69 83.6861 429.061 82.6543 428.8C82.3464 426.094 82.3226 423.363 82.5831 420.652C87.0899 419.716 92.5692 417.96 90.5174 415.256C89.3314 413.631 87.0187 413.442 84.6586 413.857C84.9789 413.315 85.3524 412.806 85.7734 412.339C93.9687 403.301 99.6852 412.339 99.6852 412.339C104.429 408.366 111.142 409.445 112.589 415.648C109.992 414.972 104.868 413.952 104.56 416.11Z" fill="#407BFF"/>
<path opacity="0.5" d="M104.56 416.11C104.311 417.853 109.043 419.004 112.862 419.668C112.541 422.835 110.49 426.037 107.525 429.014C103.872 426.962 98.6415 424.27 97.6809 424.898C96.7202 425.527 101.986 429.085 105.331 431.113C102.94 433.192 100.408 435.102 97.752 436.83C96.1154 435.3 94.194 433.959 93.008 434.683C91.822 435.406 92.1423 437.814 92.7353 439.925C88.7503 442.297 85.7734 443.661 85.7734 443.661C84.6146 439.962 83.7228 436.185 83.1049 432.358C83.3066 431.955 83.5082 431.564 83.6861 431.172C84.3384 429.69 83.6861 429.061 82.6543 428.8C82.3464 426.094 82.3226 423.363 82.5831 420.652C87.0899 419.716 92.5692 417.96 90.5174 415.256C89.3314 413.631 87.0187 413.442 84.6586 413.857C84.9789 413.315 85.3524 412.806 85.7734 412.339C93.9687 403.301 99.6852 412.339 99.6852 412.339C104.429 408.366 111.142 409.445 112.589 415.648C109.992 414.972 104.868 413.952 104.56 416.11Z" fill="white"/>
<path d="M457.644 496.711L480.356 345.792V496.711H486.452V344.855L509.187 496.711H515.722L487.258 306.619L486.452 306.737V300.558H480.356V306.713L479.513 306.619L450.978 496.711H457.644Z" fill="#407BFF"/>
<path opacity="0.3" d="M457.644 496.711L480.356 345.792V496.711H486.452V344.855L509.187 496.711H515.722L487.258 306.619L486.452 306.737V300.558H480.356V306.713L479.513 306.619L450.978 496.711H457.644Z" fill="white"/>
<path d="M514.655 327.706H451.82L456.908 275.201H509.567L514.655 327.706Z" fill="#407BFF"/>
<g opacity="0.5">
<path d="M514.655 327.706H451.82L456.908 275.201H509.567L514.655 327.706Z" fill="white"/>
</g>
<path d="M356.3 259.534H335.64C335.2 259.534 334.777 259.359 334.466 259.048C334.155 258.737 333.98 258.314 333.98 257.874V208.951C334.207 208.844 334.4 208.677 334.539 208.468C334.679 208.259 334.759 208.016 334.771 207.765C334.783 207.514 334.727 207.264 334.608 207.043C334.49 206.821 334.313 206.636 334.098 206.507C333.882 206.378 333.636 206.31 333.385 206.31C333.133 206.31 332.887 206.378 332.671 206.508C332.456 206.637 332.28 206.822 332.161 207.043C332.043 207.265 331.987 207.515 331.999 207.765C332.01 208.017 332.09 208.26 332.23 208.47C332.371 208.679 332.565 208.845 332.794 208.951V257.862C332.792 258.236 332.865 258.607 333.007 258.953C333.15 259.299 333.359 259.614 333.624 259.878C333.888 260.143 334.203 260.352 334.549 260.495C334.895 260.637 335.266 260.71 335.64 260.708H356.3C356.74 260.708 357.163 260.883 357.474 261.195C357.786 261.506 357.96 261.928 357.96 262.369V290.37H359.146V262.381C359.146 262.007 359.073 261.637 358.93 261.291C358.787 260.946 358.577 260.632 358.313 260.368C358.048 260.104 357.735 259.894 357.389 259.751C357.044 259.608 356.674 259.534 356.3 259.534Z" fill="#407BFF"/>
<path opacity="0.4" d="M356.3 259.534H335.64C335.2 259.534 334.777 259.359 334.466 259.048C334.155 258.737 333.98 258.314 333.98 257.874V208.951C334.207 208.844 334.4 208.677 334.539 208.468C334.679 208.259 334.759 208.016 334.771 207.765C334.783 207.514 334.727 207.264 334.608 207.043C334.49 206.821 334.313 206.636 334.098 206.507C333.882 206.378 333.636 206.31 333.385 206.31C333.133 206.31 332.887 206.378 332.671 206.508C332.456 206.637 332.28 206.822 332.161 207.043C332.043 207.265 331.987 207.515 331.999 207.765C332.01 208.017 332.09 208.26 332.23 208.47C332.371 208.679 332.565 208.845 332.794 208.951V257.862C332.792 258.236 332.865 258.607 333.007 258.953C333.15 259.299 333.359 259.614 333.624 259.878C333.888 260.143 334.203 260.352 334.549 260.495C334.895 260.637 335.266 260.71 335.64 260.708H356.3C356.74 260.708 357.163 260.883 357.474 261.195C357.786 261.506 357.96 261.928 357.96 262.369V290.37H359.146V262.381C359.146 262.007 359.073 261.637 358.93 261.291C358.787 260.946 358.577 260.632 358.313 260.368C358.048 260.104 357.735 259.894 357.389 259.751C357.044 259.608 356.674 259.534 356.3 259.534Z" fill="white"/>
<path d="M381.016 289.196H335.984C334.222 289.196 332.793 290.625 332.793 292.387V339.933C332.793 341.695 334.222 343.124 335.984 343.124H381.016C382.778 343.124 384.207 341.695 384.207 339.933V292.387C384.207 290.625 382.778 289.196 381.016 289.196Z" fill="#407BFF"/>
<path opacity="0.4" d="M381.016 289.196H335.984C334.222 289.196 332.793 290.625 332.793 292.387V339.933C332.793 341.695 334.222 343.124 335.984 343.124H381.016C382.778 343.124 384.207 341.695 384.207 339.933V292.387C384.207 290.625 382.778 289.196 381.016 289.196Z" fill="white"/>
<path opacity="0.2" d="M361.957 320.21H355.043V327.124H361.957V320.21Z" fill="white"/>
<path opacity="0.2" d="M369.465 297.688H362.55V304.602H369.465V297.688Z" fill="white"/>
<path opacity="0.2" d="M354.45 327.718H347.536V334.632H354.45V327.718Z" fill="white"/>
<path opacity="0.2" d="M369.465 305.195H362.55V312.11H369.465V305.195Z" fill="white"/>
<path opacity="0.2" d="M369.465 312.703H362.55V319.617H369.465V312.703Z" fill="white"/>
<path opacity="0.2" d="M361.957 305.195H355.043V312.11H361.957V305.195Z" fill="white"/>
<path opacity="0.2" d="M361.957 289.789H355.043V297.095H361.957V289.789Z" fill="white"/>
<path opacity="0.2" d="M354.45 320.21H347.536V327.124H354.45V320.21Z" fill="white"/>
<path opacity="0.2" d="M361.957 297.688H355.043V304.602H361.957V297.688Z" fill="white"/>
<path opacity="0.2" d="M361.957 327.718H355.043V334.632H361.957V327.718Z" fill="white"/>
<path opacity="0.2" d="M369.465 327.718H362.55V334.632H369.465V327.718Z" fill="white"/>
<path opacity="0.2" d="M361.957 312.703H355.043V319.617H361.957V312.703Z" fill="white"/>
<path opacity="0.2" d="M369.465 289.789H362.55V297.095H369.465V289.789Z" fill="white"/>
<path opacity="0.2" d="M339.435 320.21H333.386V327.124H339.435V320.21Z" fill="white"/>
<path opacity="0.2" d="M339.435 297.688H333.386V304.602H339.435V297.688Z" fill="white"/>
<path opacity="0.2" d="M339.435 312.703H333.386V319.617H339.435V312.703Z" fill="white"/>
<path opacity="0.2" d="M339.435 305.195H333.386V312.11H339.435V305.195Z" fill="white"/>
<path opacity="0.2" d="M369.465 320.21H362.55V327.124H369.465V320.21Z" fill="white"/>
<path opacity="0.2" d="M377.565 297.095H383.578V292.351C383.578 291.662 383.304 291.001 382.817 290.514C382.33 290.027 381.67 289.754 380.981 289.754H377.53L377.565 297.095Z" fill="white"/>
<path opacity="0.2" d="M376.972 297.688H370.058V304.602H376.972V297.688Z" fill="white"/>
<path opacity="0.2" d="M339.435 327.718H333.386V334.632H339.435V327.718Z" fill="white"/>
<path opacity="0.2" d="M376.972 305.195H370.058V312.11H376.972V305.195Z" fill="white"/>
<path opacity="0.2" d="M376.972 312.703H370.058V319.617H376.972V312.703Z" fill="white"/>
<path opacity="0.2" d="M376.972 320.21H370.058V327.124H376.972V320.21Z" fill="white"/>
<path opacity="0.2" d="M376.972 327.718H370.058V334.632H376.972V327.718Z" fill="white"/>
<path opacity="0.2" d="M383.614 327.718H377.565V334.632H383.614V327.718Z" fill="white"/>
<path opacity="0.2" d="M376.972 289.789H370.058V297.095H376.972V289.789Z" fill="white"/>
<path opacity="0.2" d="M361.957 335.237H355.043V342.543H361.957V335.237Z" fill="white"/>
<path opacity="0.2" d="M369.465 335.237H362.55V342.543H369.465V335.237Z" fill="white"/>
<path opacity="0.2" d="M383.614 312.703H377.565V319.617H383.614V312.703Z" fill="white"/>
<path opacity="0.2" d="M376.972 335.237H370.058V342.543H376.972V335.237Z" fill="white"/>
<path opacity="0.2" d="M383.614 320.21H377.565V327.124H383.614V320.21Z" fill="white"/>
<path opacity="0.2" d="M339.423 335.237H333.386V339.981C333.39 340.668 333.665 341.325 334.151 341.81C334.638 342.294 335.297 342.566 335.984 342.566H339.423V335.237Z" fill="white"/>
<path opacity="0.2" d="M377.565 335.237V342.531H381.016C381.703 342.531 382.362 342.259 382.849 341.774C383.335 341.29 383.61 340.632 383.614 339.945V335.201L377.565 335.237Z" fill="white"/>
<path opacity="0.2" d="M339.423 297.095V289.789H335.984C335.295 289.789 334.634 290.063 334.147 290.55C333.66 291.037 333.386 291.698 333.386 292.386V297.13L339.423 297.095Z" fill="white"/>
<path opacity="0.2" d="M383.614 305.195H377.565V312.11H383.614V305.195Z" fill="white"/>
<path opacity="0.2" d="M383.614 297.688H377.565V304.602H383.614V297.688Z" fill="white"/>
<path opacity="0.2" d="M346.931 312.703H340.016V319.617H346.931V312.703Z" fill="white"/>
<path opacity="0.2" d="M346.931 327.718H340.016V334.632H346.931V327.718Z" fill="white"/>
<path opacity="0.2" d="M354.45 289.789H347.536V297.095H354.45V289.789Z" fill="white"/>
<path opacity="0.2" d="M346.931 320.21H340.016V327.124H346.931V320.21Z" fill="white"/>
<path opacity="0.2" d="M354.45 305.195H347.536V312.11H354.45V305.195Z" fill="white"/>
<path opacity="0.2" d="M354.45 297.688H347.536V304.602H354.45V297.688Z" fill="white"/>
<path opacity="0.2" d="M354.45 335.237H347.536V342.543H354.45V335.237Z" fill="white"/>
<path opacity="0.2" d="M346.931 335.237H340.016V342.543H346.931V335.237Z" fill="white"/>
<path opacity="0.2" d="M346.931 289.789H340.016V297.095H346.931V289.789Z" fill="white"/>
<path opacity="0.2" d="M354.45 312.703H347.536V319.617H354.45V312.703Z" fill="white"/>
<path opacity="0.2" d="M346.931 305.195H340.016V312.11H346.931V305.195Z" fill="white"/>
<path opacity="0.2" d="M346.931 297.688H340.016V304.602H346.931V297.688Z" fill="white"/>
<path d="M370.781 308.208C370.678 307.667 370.532 307.135 370.342 306.618C369.601 304.506 368.307 302.63 366.596 301.186C364.885 299.742 362.819 298.782 360.612 298.406C358.405 298.029 356.137 298.25 354.044 299.046C351.951 299.841 350.11 301.183 348.71 302.93C348.046 303.752 347.492 304.657 347.061 305.622C346.327 307.243 345.947 309.002 345.946 310.781V321.55C345.945 322.578 346.072 323.602 346.326 324.598C346.51 325.36 346.777 326.1 347.12 326.804C347.42 327.463 347.777 328.094 348.188 328.69C348.508 329.117 348.828 329.52 349.172 329.876C349.594 330.344 350.05 330.78 350.536 331.181C350.934 331.505 351.349 331.806 351.781 332.082C352.529 332.557 353.324 332.955 354.153 333.268C354.557 333.41 354.96 333.541 355.339 333.647C355.859 333.776 356.386 333.875 356.917 333.944C357.31 333.994 357.706 334.022 358.103 334.027H358.423C359.07 334.027 359.716 333.98 360.356 333.885C360.759 333.813 361.163 333.73 361.542 333.636C363 333.254 364.377 332.616 365.61 331.75C366.056 331.44 366.481 331.099 366.879 330.73C367.969 329.733 368.876 328.553 369.56 327.243C369.916 326.569 370.206 325.862 370.425 325.132C370.755 324.067 370.935 322.961 370.959 321.847C370.959 321.847 370.959 321.598 370.959 321.479V310.71C370.985 309.872 370.926 309.034 370.781 308.208ZM367.97 327.836C367.298 328.853 366.465 329.755 365.503 330.504C365.154 330.783 364.785 331.036 364.4 331.264C363.384 331.889 362.275 332.349 361.115 332.627C360.736 332.71 360.344 332.782 359.929 332.829C359.453 332.891 358.974 332.922 358.494 332.924H357.96C357.545 332.924 357.154 332.924 356.774 332.805C356.278 332.726 355.787 332.615 355.304 332.473C354.889 332.355 354.486 332.2 354.118 332.046C353.279 331.687 352.483 331.233 351.746 330.694C351.348 330.396 350.972 330.071 350.619 329.722C350.187 329.314 349.79 328.869 349.433 328.393C349.089 327.939 348.78 327.459 348.508 326.958C348.1 326.208 347.781 325.412 347.559 324.586C347.282 323.594 347.142 322.569 347.144 321.538V310.769C347.147 308.269 347.982 305.841 349.516 303.867C350.538 302.532 351.842 301.439 353.335 300.665C354.942 299.826 356.729 299.391 358.542 299.396C361.124 299.397 363.629 300.275 365.646 301.887C367.663 303.499 369.072 305.749 369.643 308.267C369.824 309.081 369.916 309.912 369.915 310.746V321.609C369.905 322.31 369.833 323.009 369.702 323.697C369.517 324.62 369.218 325.516 368.812 326.365C368.572 326.878 368.291 327.37 367.97 327.836Z" fill="white"/>
<path d="M359.929 317.447C358.66 321.467 357.012 326.757 357.96 332.865C358.02 333.256 358.091 333.647 358.174 334.051C357.777 334.046 357.381 334.018 356.988 333.968C356.905 333.553 356.834 333.149 356.786 332.782C355.885 326.496 357.557 321.147 358.826 317.079C360.178 312.762 360.736 310.651 358.696 309.785C358.376 309.651 358.026 309.605 357.682 309.651C357.338 309.697 357.013 309.833 356.739 310.046C353.501 312.193 350.607 321.455 349.457 328.37C349.362 328.915 349.279 329.437 349.208 329.935C348.864 329.544 348.544 329.141 348.223 328.749C348.306 328.18 348.413 327.563 348.532 326.982C349.836 320.127 352.623 311.41 356.087 309.121C356.523 308.8 357.036 308.597 357.574 308.533C358.112 308.469 358.658 308.544 359.158 308.753C362.23 310.046 361.222 313.308 359.929 317.447Z" fill="white"/>
<path d="M357.866 317.162C356.68 320.969 354.936 326.543 355.28 332.473C355.28 332.888 355.28 333.304 355.375 333.731C354.96 333.624 354.557 333.493 354.189 333.351C354.189 332.912 354.13 332.485 354.118 332.046C353.881 326.116 355.6 320.59 356.786 316.806C357.246 315.558 357.58 314.267 357.783 312.952C356.347 314.233 351.853 324.669 351.769 330.742C351.746 331.233 351.766 331.725 351.829 332.212C351.397 331.936 350.981 331.635 350.583 331.311C350.583 330.825 350.584 330.303 350.643 329.769C351.141 323.483 354.924 314.007 356.988 312.133C357.139 311.953 357.341 311.822 357.566 311.757C357.792 311.691 358.033 311.694 358.257 311.766C359.431 312.181 358.874 313.948 357.866 317.162Z" fill="white"/>
<path d="M361.115 332.58C361.261 332.953 361.427 333.317 361.613 333.671C361.234 333.766 360.831 333.849 360.427 333.92C360.237 333.536 360.07 333.14 359.929 332.734C358.957 330.196 358.447 326.342 360.214 321.076C363.665 310.805 363.06 308.362 360.499 307.01C359.844 306.627 359.104 306.413 358.346 306.388C357.588 306.363 356.836 306.528 356.158 306.868C352.6 308.623 349.528 314.968 347.548 324.503C347.393 325.227 347.251 325.962 347.121 326.721C346.777 326.017 346.51 325.277 346.326 324.515C346.575 323.329 346.848 322.143 347.132 320.957C349.196 312.798 352.149 307.496 355.636 305.776C356.479 305.343 357.417 305.129 358.364 305.154C359.311 305.179 360.237 305.442 361.056 305.919C364.614 307.816 364.697 311.434 361.341 321.408C359.621 326.531 360.155 330.184 361.103 332.497L361.115 332.58Z" fill="white"/>
<path d="M366.974 330.813C366.575 331.182 366.151 331.523 365.705 331.833L365.219 331.679C364.933 331.576 364.662 331.437 364.412 331.264C363.072 330.378 362.132 329.003 361.791 327.433C361.175 325.215 362.183 322.013 363.262 318.633C364.341 315.253 365.456 311.718 364.922 309.145C364.778 308.22 364.422 307.341 363.88 306.578C363.339 305.814 362.628 305.187 361.803 304.745C359.728 303.713 356.964 303.891 354.035 305.255C351.105 306.619 348.591 310.983 347.144 314.363C346.634 315.549 346.231 316.64 345.958 317.435V314.102C346.302 313.296 346.694 312.418 347.144 311.541C348.674 308.54 350.821 305.444 353.525 304.187C356.798 302.657 359.929 302.479 362.337 303.689C363.324 304.209 364.176 304.951 364.826 305.856C365.477 306.762 365.908 307.807 366.085 308.908C366.678 311.754 365.515 315.419 364.389 318.965C363.369 322.179 362.408 325.203 362.93 327.089C363.073 327.814 363.381 328.497 363.829 329.085C364.277 329.673 364.854 330.151 365.515 330.481L365.646 330.54C366.067 330.715 366.518 330.808 366.974 330.813Z" fill="white"/>
<path d="M370.532 325.215C370.313 325.945 370.023 326.652 369.666 327.326C369.145 327.598 368.578 327.771 367.994 327.836H367.662H367.366C366.713 327.784 366.095 327.526 365.598 327.099C365.102 326.673 364.753 326.101 364.602 325.464C364.08 323.697 364.934 320.376 365.788 316.866C366.463 314.644 366.908 312.359 367.117 310.046C367.117 306.393 366.168 302.479 359.158 301.234C355.6 300.594 350.477 302.871 347.476 307.733C346.883 308.682 347.654 305.041 347.002 305.575C347.429 304.602 348.093 304.65 348.745 303.831C350.062 302.978 353.727 299.36 359.36 300.06C367.437 301.056 368.303 306.441 368.303 310.046C368.105 312.461 367.644 314.847 366.927 317.162C366.144 320.21 365.266 323.673 365.741 325.132C365.827 325.534 366.039 325.897 366.346 326.17C366.653 326.443 367.04 326.611 367.449 326.65C367.9 326.679 368.352 326.597 368.765 326.413C369.43 326.139 370.032 325.732 370.532 325.215Z" fill="white"/>
<path d="M371.054 318.763V321.55C371.054 321.669 371.054 321.799 371.054 321.918C370.735 322.617 370.261 323.234 369.666 323.721C369.256 324.018 368.762 324.176 368.255 324.171H367.911C367.731 324.149 367.56 324.082 367.413 323.977C367.266 323.871 367.147 323.73 367.069 323.567C366.535 322.582 367.199 320.59 367.638 319.487C369.18 315.966 369.855 312.126 369.607 308.291C369.607 307.615 369.678 307.2 369.678 307.176C369.693 307.021 369.766 306.877 369.883 306.774C370 306.67 370.151 306.615 370.307 306.619C370.496 307.136 370.643 307.667 370.746 308.208C370.746 309.085 370.603 309.963 370.52 310.841C370.354 312.525 370.153 314.209 369.832 315.881C369.749 316.332 370.129 316.154 370.034 316.605C369.744 317.496 369.395 318.368 368.99 319.214C368.706 319.866 368.385 320.507 368.16 321.183C368.018 321.586 367.496 323.484 368.563 323.068C368.964 322.861 369.297 322.545 369.524 322.155C369.631 321.989 369.738 321.823 369.832 321.645C370.178 321.002 370.471 320.331 370.71 319.641C370.852 319.356 370.959 319.06 371.054 318.763Z" fill="white"/>
<path d="M283.61 117.594V147.837C283.61 148.277 283.435 148.699 283.124 149.011C282.812 149.322 282.39 149.497 281.95 149.497H251.197C251.092 149.268 250.925 149.073 250.716 148.932C250.507 148.792 250.263 148.712 250.011 148.703C249.76 148.69 249.51 148.746 249.289 148.865C249.067 148.983 248.882 149.16 248.753 149.375C248.624 149.59 248.555 149.837 248.555 150.088C248.555 150.339 248.623 150.586 248.753 150.801C248.882 151.017 249.067 151.193 249.288 151.312C249.51 151.43 249.759 151.487 250.01 151.474C250.261 151.462 250.504 151.382 250.713 151.243C250.922 151.104 251.089 150.91 251.197 150.683H281.95C282.704 150.68 283.426 150.379 283.959 149.846C284.492 149.313 284.793 148.591 284.796 147.837V117.594H283.61Z" fill="#407BFF"/>
<path opacity="0.4" d="M283.61 117.594V147.837C283.61 148.277 283.435 148.699 283.124 149.011C282.812 149.322 282.39 149.497 281.95 149.497H251.197C251.092 149.268 250.925 149.073 250.716 148.932C250.507 148.792 250.263 148.712 250.011 148.703C249.76 148.69 249.51 148.746 249.289 148.865C249.067 148.983 248.882 149.16 248.753 149.375C248.624 149.59 248.555 149.837 248.555 150.088C248.555 150.339 248.623 150.586 248.753 150.801C248.882 151.017 249.067 151.193 249.288 151.312C249.51 151.43 249.759 151.487 250.01 151.474C250.261 151.462 250.504 151.382 250.713 151.243C250.922 151.104 251.089 150.91 251.197 150.683H281.95C282.704 150.68 283.426 150.379 283.959 149.846C284.492 149.313 284.793 148.591 284.796 147.837V117.594H283.61Z" fill="white"/>
<path d="M311.161 123.82V78.7878C311.161 77.0258 309.733 75.5974 307.971 75.5974H260.424C258.662 75.5974 257.233 77.0258 257.233 78.7878V123.82C257.233 125.582 258.662 127.011 260.424 127.011H307.971C309.733 127.011 311.161 125.582 311.161 123.82Z" fill="#407BFF"/>
<path opacity="0.4" d="M311.161 123.82V78.7878C311.161 77.0258 309.733 75.5974 307.971 75.5974H260.424C258.662 75.5974 257.233 77.0258 257.233 78.7878V123.82C257.233 125.582 258.662 127.011 260.424 127.011H307.971C309.733 127.011 311.161 125.582 311.161 123.82Z" fill="white"/>
<path opacity="0.2" d="M280.147 97.8467H273.233V104.761H280.147V97.8467Z" fill="white"/>
<path opacity="0.2" d="M302.669 105.354H295.755V112.269H302.669V105.354Z" fill="white"/>
<path opacity="0.2" d="M272.64 90.3276H265.725V97.242H272.64V90.3276Z" fill="white"/>
<path opacity="0.2" d="M295.162 105.354H288.247V112.269H295.162V105.354Z" fill="white"/>
<path opacity="0.2" d="M287.654 105.354H280.74V112.269H287.654V105.354Z" fill="white"/>
<path opacity="0.2" d="M295.162 97.8467H288.247V104.761H295.162V97.8467Z" fill="white"/>
<path opacity="0.2" d="M310.58 97.8467H303.274V104.761H310.58V97.8467Z" fill="white"/>
<path opacity="0.2" d="M280.147 90.3276H273.233V97.242H280.147V90.3276Z" fill="white"/>
<path opacity="0.2" d="M302.669 97.8467H295.755V104.761H302.669V97.8467Z" fill="white"/>
<path opacity="0.2" d="M272.64 97.8467H265.725V104.761H272.64V97.8467Z" fill="white"/>
<path opacity="0.2" d="M272.64 105.354H265.725V112.269H272.64V105.354Z" fill="white"/>
<path opacity="0.2" d="M287.654 97.8467H280.74V104.761H287.654V97.8467Z" fill="white"/>
<path opacity="0.2" d="M310.58 105.354H303.274V112.269H310.58V105.354Z" fill="white"/>
<path opacity="0.2" d="M280.147 76.1904H273.233V82.239H280.147V76.1904Z" fill="white"/>
<path opacity="0.2" d="M302.669 76.1904H295.755V82.239H302.669V76.1904Z" fill="white"/>
<path opacity="0.2" d="M287.654 76.1904H280.74V82.239H287.654V76.1904Z" fill="white"/>
<path opacity="0.2" d="M295.162 76.1904H288.247V82.239H295.162V76.1904Z" fill="white"/>
<path opacity="0.2" d="M280.147 105.354H273.233V112.269H280.147V105.354Z" fill="white"/>
<path opacity="0.2" d="M303.274 120.369V126.417H308.018C308.705 126.414 309.362 126.139 309.847 125.653C310.331 125.166 310.603 124.507 310.603 123.82V120.369H303.274Z" fill="white"/>
<path opacity="0.2" d="M302.669 112.862H295.755V119.776H302.669V112.862Z" fill="white"/>
<path opacity="0.2" d="M272.64 76.1904H265.725V82.239H272.64V76.1904Z" fill="white"/>
<path opacity="0.2" d="M295.162 112.862H288.247V119.776H295.162V112.862Z" fill="white"/>
<path opacity="0.2" d="M287.654 112.862H280.74V119.776H287.654V112.862Z" fill="white"/>
<path opacity="0.2" d="M280.147 112.862H273.233V119.776H280.147V112.862Z" fill="white"/>
<path opacity="0.2" d="M272.64 112.862H265.725V119.776H272.64V112.862Z" fill="white"/>
<path opacity="0.2" d="M272.64 120.369H265.725V126.417H272.64V120.369Z" fill="white"/>
<path opacity="0.2" d="M310.58 112.862H303.274V119.776H310.58V112.862Z" fill="white"/>
<path opacity="0.2" d="M265.132 97.8467H257.826V104.761H265.132V97.8467Z" fill="white"/>
<path opacity="0.2" d="M265.132 105.354H257.826V112.269H265.132V105.354Z" fill="white"/>
<path opacity="0.2" d="M287.654 120.369H280.74V126.417H287.654V120.369Z" fill="white"/>
<path opacity="0.2" d="M265.132 112.862H257.826V119.776H265.132V112.862Z" fill="white"/>
<path opacity="0.2" d="M280.147 120.369H273.233V126.417H280.147V120.369Z" fill="white"/>
<path opacity="0.2" d="M265.132 82.2272V76.1904H260.388C259.714 76.2089 259.073 76.4891 258.602 76.9716C258.13 77.4542 257.865 78.1013 257.862 78.7759V82.2272H265.132Z" fill="white"/>
<path opacity="0.2" d="M265.132 120.369H257.862V123.844C257.862 124.533 258.136 125.193 258.623 125.68C259.11 126.168 259.771 126.441 260.459 126.441H265.203L265.132 120.369Z" fill="white"/>
<path opacity="0.2" d="M303.274 82.2272H310.568V78.7759C310.565 78.0912 310.291 77.4353 309.807 76.9511C309.323 76.4669 308.667 76.1935 307.983 76.1904H303.239L303.274 82.2272Z" fill="white"/>
<path opacity="0.2" d="M295.162 120.369H288.247V126.417H295.162V120.369Z" fill="white"/>
<path opacity="0.2" d="M302.669 120.369H295.755V126.417H302.669V120.369Z" fill="white"/>
<path opacity="0.2" d="M287.654 82.8201H280.74V89.7344H287.654V82.8201Z" fill="white"/>
<path opacity="0.2" d="M272.64 82.8201H265.725V89.7344H272.64V82.8201Z" fill="white"/>
<path opacity="0.2" d="M310.58 90.3276H303.274V97.242H310.58V90.3276Z" fill="white"/>
<path opacity="0.2" d="M280.147 82.8201H273.233V89.7344H280.147V82.8201Z" fill="white"/>
<path opacity="0.2" d="M295.162 90.3276H288.247V97.242H295.162V90.3276Z" fill="white"/>
<path opacity="0.2" d="M302.669 90.3276H295.755V97.242H302.669V90.3276Z" fill="white"/>
<path opacity="0.2" d="M265.132 90.3276H257.826V97.242H265.132V90.3276Z" fill="white"/>
<path opacity="0.2" d="M265.132 82.8201H257.826V89.7344H265.132V82.8201Z" fill="white"/>
<path opacity="0.2" d="M310.58 82.8201H303.274V89.7344H310.58V82.8201Z" fill="white"/>
<path opacity="0.2" d="M287.654 90.3276H280.74V97.242H287.654V90.3276Z" fill="white"/>
<path opacity="0.2" d="M295.162 82.8201H288.247V89.7344H295.162V82.8201Z" fill="white"/>
<path opacity="0.2" d="M302.669 82.8201H295.755V89.7344H302.669V82.8201Z" fill="white"/>
<path d="M268.536 101.084C268.536 101.084 275.534 109.386 284.179 109.386C292.825 109.386 299.811 101.084 299.811 101.084C299.811 101.084 292.814 92.7825 284.179 92.7825C275.545 92.7825 268.536 101.084 268.536 101.084Z" stroke="white" stroke-linecap="round" stroke-linejoin="round"/>
<path d="M289.647 99.8986C289.649 100.979 289.331 102.035 288.732 102.934C288.134 103.833 287.282 104.534 286.284 104.948C285.287 105.363 284.189 105.472 283.13 105.262C282.07 105.052 281.097 104.532 280.334 103.768C279.57 103.004 279.05 102.031 278.84 100.972C278.63 99.9125 278.739 98.8146 279.153 97.8172C279.568 96.8198 280.269 95.9679 281.168 95.3693C282.067 94.7708 283.123 94.4525 284.203 94.4548C285.647 94.4548 287.031 95.0284 288.052 96.0493C289.073 97.0702 289.647 98.4548 289.647 99.8986Z" stroke="white" stroke-miterlimit="10"/>
<path d="M284.808 97.5029C284.806 97.1529 284.907 96.8101 285.1 96.5179C285.293 96.2257 285.568 95.9974 285.891 95.8618C286.213 95.7263 286.569 95.6896 286.913 95.7564C287.256 95.8232 287.572 95.9906 287.821 96.2373C288.069 96.4839 288.238 96.7988 288.308 97.1419C288.377 97.485 288.342 97.8409 288.209 98.1645C288.076 98.4881 287.849 98.7648 287.558 98.9595C287.267 99.1542 286.925 99.2581 286.575 99.2582C286.109 99.2582 285.661 99.0736 285.33 98.7448C284.999 98.4159 284.811 97.9695 284.808 97.5029Z" stroke="white" stroke-miterlimit="10"/>
<path d="M284.203 92.7707V87.1965" stroke="white" stroke-linecap="round" stroke-linejoin="round"/>
<path d="M289.054 93.1738L291.046 88.6433" stroke="white" stroke-linecap="round" stroke-linejoin="round"/>
<path d="M293.715 95.2377L296.502 91.9287" stroke="white" stroke-linecap="round" stroke-linejoin="round"/>
<path d="M297.451 97.7874L300.143 95.9966" stroke="white" stroke-linecap="round" stroke-linejoin="round"/>
<path d="M279.341 93.1738L277.348 88.6433" stroke="white" stroke-linecap="round" stroke-linejoin="round"/>
<path d="M274.68 95.2377L271.893 91.9287" stroke="white" stroke-linecap="round" stroke-linejoin="round"/>
<path d="M270.944 97.7874L268.251 95.9966" stroke="white" stroke-linecap="round" stroke-linejoin="round"/>
<path d="M203.591 151.371C203.341 151.379 203.099 151.455 202.89 151.591C202.681 151.727 202.513 151.917 202.405 152.142H170.869C170.115 152.145 169.393 152.446 168.86 152.979C168.326 153.512 168.026 154.234 168.022 154.988V187.354C168.022 187.795 167.848 188.217 167.536 188.528C167.225 188.84 166.802 189.015 166.362 189.015H153.696V190.201H166.362C167.116 190.198 167.838 189.897 168.371 189.364C168.904 188.83 169.205 188.108 169.208 187.354V154.988C169.208 154.548 169.383 154.126 169.695 153.814C170.006 153.503 170.428 153.328 170.869 153.328H202.333C202.436 153.556 202.598 153.752 202.803 153.895C203.007 154.039 203.247 154.124 203.496 154.143C203.745 154.161 203.995 154.112 204.218 154C204.442 153.889 204.631 153.719 204.766 153.509C204.901 153.298 204.977 153.056 204.986 152.806C204.994 152.556 204.935 152.309 204.815 152.09C204.694 151.871 204.517 151.689 204.302 151.562C204.086 151.436 203.84 151.37 203.591 151.371Z" fill="#407BFF"/>
<path opacity="0.4" d="M203.591 151.371C203.341 151.379 203.099 151.455 202.89 151.591C202.681 151.727 202.513 151.917 202.405 152.142H170.869C170.115 152.145 169.393 152.446 168.86 152.979C168.326 153.512 168.026 154.234 168.022 154.988V187.354C168.022 187.795 167.848 188.217 167.536 188.528C167.225 188.84 166.802 189.015 166.362 189.015H153.696V190.201H166.362C167.116 190.198 167.838 189.897 168.371 189.364C168.904 188.83 169.205 188.108 169.208 187.354V154.988C169.208 154.548 169.383 154.126 169.695 153.814C170.006 153.503 170.428 153.328 170.869 153.328H202.333C202.436 153.556 202.598 153.752 202.803 153.895C203.007 154.039 203.247 154.124 203.496 154.143C203.745 154.161 203.995 154.112 204.218 154C204.442 153.889 204.631 153.719 204.766 153.509C204.901 153.298 204.977 153.056 204.986 152.806C204.994 152.556 204.935 152.309 204.815 152.09C204.694 151.871 204.517 151.689 204.302 151.562C204.086 151.436 203.84 151.37 203.591 151.371Z" fill="white"/>
<path d="M150.505 162.638H105.473C103.711 162.638 102.282 164.067 102.282 165.829V213.375C102.282 215.137 103.711 216.566 105.473 216.566H150.505C152.267 216.566 153.696 215.137 153.696 213.375V165.829C153.696 164.067 152.267 162.638 150.505 162.638Z" fill="#407BFF"/>
<path opacity="0.4" d="M150.505 162.638H105.473C103.711 162.638 102.282 164.067 102.282 165.829V213.375C102.282 215.137 103.711 216.566 105.473 216.566H150.505C152.267 216.566 153.696 215.137 153.696 213.375V165.829C153.696 164.067 152.267 162.638 150.505 162.638Z" fill="white"/>
<path opacity="0.2" d="M131.446 193.652H124.532V200.566H131.446V193.652Z" fill="white"/>
<path opacity="0.2" d="M138.954 171.13H132.039V178.044H138.954V171.13Z" fill="white"/>
<path opacity="0.2" d="M123.927 201.171H117.013V208.086H123.927V201.171Z" fill="white"/>
<path opacity="0.2" d="M138.954 178.637H132.039V185.552H138.954V178.637Z" fill="white"/>
<path opacity="0.2" d="M138.954 186.145H132.039V193.059H138.954V186.145Z" fill="white"/>
<path opacity="0.2" d="M131.446 178.637H124.532V185.552H131.446V178.637Z" fill="white"/>
<path opacity="0.2" d="M131.446 163.231H124.532V170.537H131.446V163.231Z" fill="white"/>
<path opacity="0.2" d="M123.927 193.652H117.013V200.566H123.927V193.652Z" fill="white"/>
<path opacity="0.2" d="M131.446 171.13H124.532V178.044H131.446V171.13Z" fill="white"/>
<path opacity="0.2" d="M131.446 201.171H124.532V208.086H131.446V201.171Z" fill="white"/>
<path opacity="0.2" d="M138.954 201.171H132.039V208.086H138.954V201.171Z" fill="white"/>
<path opacity="0.2" d="M131.446 186.145H124.532V193.059H131.446V186.145Z" fill="white"/>
<path opacity="0.2" d="M138.954 163.231H132.039V170.537H138.954V163.231Z" fill="white"/>
<path opacity="0.2" d="M108.924 193.652H102.875V200.566H108.924V193.652Z" fill="white"/>
<path opacity="0.2" d="M108.924 171.13H102.875V178.044H108.924V171.13Z" fill="white"/>
<path opacity="0.2" d="M108.924 186.145H102.875V193.059H108.924V186.145Z" fill="white"/>
<path opacity="0.2" d="M108.924 178.637H102.875V185.552H108.924V178.637Z" fill="white"/>
<path opacity="0.2" d="M138.954 193.652H132.039V200.566H138.954V193.652Z" fill="white"/>
<path opacity="0.2" d="M147.054 170.537H153.103V165.793C153.103 165.104 152.829 164.443 152.342 163.956C151.855 163.469 151.194 163.196 150.505 163.196H147.054V170.537Z" fill="white"/>
<path opacity="0.2" d="M146.461 171.13H139.547V178.044H146.461V171.13Z" fill="white"/>
<path opacity="0.2" d="M108.924 201.171H102.875V208.086H108.924V201.171Z" fill="white"/>
<path opacity="0.2" d="M146.461 178.637H139.547V185.552H146.461V178.637Z" fill="white"/>
<path opacity="0.2" d="M146.461 186.145H139.547V193.059H146.461V186.145Z" fill="white"/>
<path opacity="0.2" d="M146.461 193.652H139.547V200.566H146.461V193.652Z" fill="white"/>
<path opacity="0.2" d="M146.461 201.171H139.547V208.086H146.461V201.171Z" fill="white"/>
<path opacity="0.2" d="M153.103 201.171H147.054V208.086H153.103V201.171Z" fill="white"/>
<path opacity="0.2" d="M146.461 163.231H139.547V170.537H146.461V163.231Z" fill="white"/>
<path opacity="0.2" d="M131.446 208.679H124.532V215.984H131.446V208.679Z" fill="white"/>
<path opacity="0.2" d="M138.954 208.679H132.039V215.984H138.954V208.679Z" fill="white"/>
<path opacity="0.2" d="M153.103 186.145H147.054V193.059H153.103V186.145Z" fill="white"/>
<path opacity="0.2" d="M146.461 208.679H139.547V215.984H146.461V208.679Z" fill="white"/>
<path opacity="0.2" d="M153.103 193.652H147.054V200.566H153.103V193.652Z" fill="white"/>
<path opacity="0.2" d="M108.912 208.679H102.875V213.423C102.879 214.107 103.152 214.763 103.636 215.247C104.12 215.732 104.776 216.005 105.461 216.008H108.912V208.679Z" fill="white"/>
<path opacity="0.2" d="M147.054 208.679V215.973H150.505C151.192 215.973 151.851 215.701 152.338 215.216C152.824 214.731 153.099 214.074 153.103 213.387V208.643L147.054 208.679Z" fill="white"/>
<path opacity="0.2" d="M108.912 170.537V163.231H105.461C104.774 163.234 104.117 163.509 103.632 163.996C103.147 164.483 102.875 165.142 102.875 165.829V170.573L108.912 170.537Z" fill="white"/>
<path opacity="0.2" d="M153.103 178.637H147.054V185.552H153.103V178.637Z" fill="white"/>
<path opacity="0.2" d="M153.103 171.13H147.054V178.044H153.103V171.13Z" fill="white"/>
<path opacity="0.2" d="M116.419 186.145H109.505V193.059H116.419V186.145Z" fill="white"/>
<path opacity="0.2" d="M116.419 201.171H109.505V208.086H116.419V201.171Z" fill="white"/>
<path opacity="0.2" d="M123.927 163.231H117.013V170.537H123.927V163.231Z" fill="white"/>
<path opacity="0.2" d="M116.419 193.652H109.505V200.566H116.419V193.652Z" fill="white"/>
<path opacity="0.2" d="M123.927 178.637H117.013V185.552H123.927V178.637Z" fill="white"/>
<path opacity="0.2" d="M123.927 171.13H117.013V178.044H123.927V171.13Z" fill="white"/>
<path opacity="0.2" d="M123.927 208.679H117.013V215.984H123.927V208.679Z" fill="white"/>
<path opacity="0.2" d="M116.419 208.679H109.505V215.984H116.419V208.679Z" fill="white"/>
<path opacity="0.2" d="M116.419 163.231H109.505V170.537H116.419V163.231Z" fill="white"/>
<path opacity="0.2" d="M123.927 186.145H117.013V193.059H123.927V186.145Z" fill="white"/>
<path opacity="0.2" d="M116.419 178.637H109.505V185.552H116.419V178.637Z" fill="white"/>
<path opacity="0.2" d="M116.419 171.13H109.505V178.044H116.419V171.13Z" fill="white"/>
<path d="M127.983 207.552C124.655 207.549 121.464 206.226 119.11 203.874C116.755 201.522 115.43 198.332 115.423 195.004V184.211C115.423 180.88 116.747 177.686 119.102 175.33C121.457 172.975 124.652 171.652 127.983 171.652C131.314 171.652 134.509 172.975 136.864 175.33C139.22 177.686 140.543 180.88 140.543 184.211V195.004C140.537 198.332 139.211 201.522 136.857 203.874C134.502 206.226 131.311 207.549 127.983 207.552ZM127.983 172.849C124.97 172.853 122.08 174.05 119.948 176.18C117.816 178.31 116.616 181.198 116.609 184.211V195.004C116.609 198.02 117.808 200.913 119.941 203.046C122.074 205.179 124.967 206.378 127.983 206.378C131 206.378 133.893 205.179 136.026 203.046C138.159 200.913 139.357 198.02 139.357 195.004V184.211C139.351 181.198 138.15 178.31 136.018 176.18C133.886 174.05 130.997 172.853 127.983 172.849Z" fill="white"/>
<path d="M133.652 188.137C134.386 188.137 134.98 187.33 134.98 186.334C134.98 185.339 134.386 184.532 133.652 184.532C132.918 184.532 132.324 185.339 132.324 186.334C132.324 187.33 132.918 188.137 133.652 188.137Z" fill="white"/>
<path d="M123.642 186.334C123.642 187.319 123.049 188.125 122.314 188.125C121.579 188.125 120.986 187.319 120.986 186.334C120.986 185.35 121.579 184.532 122.314 184.532C123.049 184.532 123.642 185.338 123.642 186.334Z" fill="white"/>
<path d="M128.054 188.125L125.552 194.542H128.054V188.125Z" fill="white"/>
<path d="M127.532 198.989C126.401 199.049 125.27 198.871 124.212 198.467L124.722 197.4C124.722 197.4 126.845 198.337 131.375 197.4L131.624 198.586C130.278 198.864 128.907 199 127.532 198.989Z" fill="white"/>
<path d="M472.504 83.864H343.29C339.929 83.864 337.205 86.588 337.205 89.9482V219.163C337.205 222.523 339.929 225.247 343.29 225.247H472.504C475.864 225.247 478.588 222.523 478.588 219.163V89.9482C478.588 86.588 475.864 83.864 472.504 83.864Z" fill="#407BFF"/>
<path opacity="0.5" d="M457.881 171.011H357.913C354.88 171.011 352.422 173.47 352.422 176.502V194.791C352.422 197.823 354.88 200.282 357.913 200.282H457.881C460.913 200.282 463.372 197.823 463.372 194.791V176.502C463.372 173.47 460.913 171.011 457.881 171.011Z" fill="white"/>
<path d="M372.252 185.658L375.489 187.414L374.09 189.845L370.757 187.888L370.817 191.446H368.03V187.817L364.756 189.774L363.416 187.414L366.654 185.658L363.416 183.879L364.839 181.436L368.113 183.405V179.776H370.9L370.84 183.405L374.114 181.436L375.573 183.879L372.252 185.658Z" fill="white"/>
<path d="M391.477 185.658L394.714 187.414L393.268 189.845L389.994 187.888V191.446H387.207V187.817L383.946 189.774L382.51 187.342L385.748 185.587L382.51 183.808L383.946 181.365L387.207 183.334V179.705H389.994V183.334L393.268 181.365L394.714 183.808L391.477 185.658Z" fill="white"/>
<path d="M410.714 185.658L413.951 187.414L412.493 189.845L409.231 187.888L409.29 191.446H406.492V187.817L403.218 189.774L401.795 187.342L405.033 185.587L401.795 183.808L403.218 181.365L406.492 183.334V179.705H409.29L409.231 183.334L412.493 181.365L413.951 183.808L410.714 185.658Z" fill="white"/>
<path d="M429.951 185.658L433.188 187.414L431.73 189.845L428.456 187.888L428.516 191.446H425.728V187.817L422.467 189.774L421.044 187.342L424.281 185.587L421.044 183.808L422.467 181.365L425.728 183.334V179.705H428.516L428.456 183.334L431.73 181.365L433.188 183.808L429.951 185.658Z" fill="white"/>
<path d="M449.176 185.658L452.366 187.414L450.919 189.845L447.693 187.888L447.752 191.446H444.965V187.817L441.692 189.845L440.257 187.414L443.495 185.658L440.257 183.879L441.692 181.436L444.953 183.405V179.776H447.74L447.681 183.405L450.955 181.436L452.401 183.879L449.176 185.658Z" fill="white"/>
<path opacity="0.5" d="M430.306 150.028C442.686 137.648 442.686 117.575 430.306 105.195C417.926 92.8145 397.853 92.8145 385.473 105.195C373.093 117.575 373.093 137.648 385.473 150.028C397.853 162.408 417.926 162.408 430.306 150.028Z" fill="white"/>
<path d="M420.344 125.836H395.556C395.109 125.835 394.666 125.922 394.252 126.092C393.838 126.263 393.462 126.514 393.146 126.83C392.83 127.146 392.579 127.522 392.408 127.936C392.238 128.35 392.151 128.793 392.153 129.24V144.338C392.153 145.241 392.511 146.107 393.15 146.745C393.788 147.383 394.654 147.742 395.556 147.742H420.344C421.247 147.742 422.112 147.383 422.751 146.745C423.389 146.107 423.748 145.241 423.748 144.338V129.24C423.749 128.793 423.662 128.35 423.492 127.936C423.321 127.522 423.071 127.146 422.754 126.83C422.438 126.514 422.062 126.263 421.648 126.092C421.235 125.922 420.791 125.835 420.344 125.836ZM410.227 142.642H405.673L406.622 136.463C406.011 136.163 405.52 135.665 405.228 135.05C404.937 134.436 404.862 133.74 405.016 133.077C405.17 132.415 405.544 131.824 406.077 131.4C406.609 130.977 407.27 130.747 407.95 130.747C408.631 130.747 409.291 130.977 409.824 131.4C410.357 131.824 410.73 132.415 410.884 133.077C411.038 133.74 410.963 134.436 410.672 135.05C410.38 135.665 409.889 136.163 409.278 136.463L410.227 142.642Z" fill="#407BFF"/>
<path d="M400.751 123.417L400.289 121.045C399.891 119.059 400.298 116.996 401.422 115.31C402.545 113.624 404.292 112.453 406.278 112.055C408.264 111.657 410.327 112.065 412.013 113.188C413.699 114.311 414.87 116.058 415.268 118.045L415.73 120.357L420.107 119.48L419.632 117.108C419.348 115.524 418.751 114.014 417.875 112.664C417 111.315 415.864 110.153 414.535 109.248C413.205 108.343 411.708 107.711 410.132 107.392C408.555 107.072 406.931 107.069 405.353 107.385C403.776 107.7 402.277 108.327 400.945 109.229C399.613 110.13 398.474 111.289 397.595 112.636C396.716 113.983 396.114 115.492 395.825 117.074C395.536 118.657 395.566 120.281 395.912 121.852L396.375 124.224L400.751 123.417Z" fill="#407BFF"/>
<path opacity="0.2" d="M425.562 210.825H390.22C389.804 210.825 389.406 210.66 389.113 210.367C388.819 210.073 388.654 209.675 388.654 209.26C388.657 208.847 388.824 208.451 389.117 208.16C389.41 207.869 389.806 207.706 390.22 207.706H425.562C425.976 207.706 426.372 207.869 426.665 208.16C426.958 208.451 427.125 208.847 427.128 209.26C427.128 209.675 426.963 210.073 426.669 210.367C426.376 210.66 425.978 210.825 425.562 210.825Z" fill="black"/>
<path d="M308.492 210.173L320.637 199.855C320.637 199.855 330.979 188.896 333.161 188.659C335.343 188.422 340.052 189.359 341.297 190.924C342.542 192.49 333.209 202.666 331.015 204.54C328.82 206.413 324.444 206.105 324.444 206.105L312.869 217.289L308.492 210.173Z" fill="#EBB376"/>
<path d="M214.799 485.704H203.057C202.867 485.71 202.683 485.778 202.535 485.898C202.387 486.018 202.283 486.183 202.239 486.369L200.329 494.979C200.252 495.35 200.324 495.737 200.531 496.054C200.738 496.372 201.062 496.595 201.432 496.675H201.741C205.536 496.616 208.311 496.378 213.079 496.378C216.02 496.378 224.88 496.687 228.936 496.687C232.992 496.687 233.525 492.678 231.865 492.31C224.417 490.686 218.819 488.444 216.447 486.297C215.993 485.897 215.404 485.684 214.799 485.704Z" fill="#263238"/>
<path d="M264.587 485.408H252.845C252.654 485.409 252.468 485.475 252.32 485.596C252.171 485.717 252.068 485.885 252.027 486.072L250.118 494.671C250.04 495.042 250.113 495.428 250.319 495.746C250.526 496.064 250.85 496.287 251.221 496.367H251.529C255.336 496.307 258.099 496.07 262.867 496.07C265.808 496.07 274.668 496.379 278.724 496.379C282.78 496.379 283.314 492.37 281.653 492.002C274.205 490.377 268.607 488.136 266.235 485.989C265.78 485.593 265.19 485.385 264.587 485.408Z" fill="#263238"/>
<path d="M208.572 268.085H259.867C264.741 294.711 278.688 402.495 267.742 486.464L250.616 488.338C250.616 488.338 253.296 359.301 237.973 318.087C236.206 340.147 234.107 363.606 232.292 376.094C227.833 406.836 217.775 486.926 217.775 486.926L200.412 487.401C200.412 487.401 204.219 409.706 205.88 379.475C207.718 346.705 208.501 274.81 208.572 268.085Z" fill="#263238"/>
<path opacity="0.2" d="M208.572 268.085H259.867C264.741 294.711 278.688 402.495 267.742 486.464L250.616 488.338C250.616 488.338 253.296 359.301 237.973 318.087C236.206 340.147 234.107 363.606 232.292 376.094C227.833 406.836 217.775 486.926 217.775 486.926L200.412 487.401C200.412 487.401 204.219 409.706 205.88 379.475C207.718 346.705 208.501 274.81 208.572 268.085Z" fill="white"/>
<path opacity="0.2" d="M237.973 318.087C240.496 325.312 242.412 332.734 243.701 340.277C245.136 320.649 239.396 299.835 239.396 299.835L237.973 318.087Z" fill="black"/>
<path d="M255.182 179.337C263.282 180.321 279.234 217.147 285.33 220.432C291.426 223.717 315.597 203.069 315.597 203.069L321.693 210.576C321.693 210.576 294.249 239.906 283.456 236.668C272.663 233.43 257.364 205.702 252.727 197.02C248.09 188.339 255.182 179.337 255.182 179.337Z" fill="#407BFF"/>
<path opacity="0.5" d="M321.693 210.576C321.693 210.576 294.249 239.894 283.456 236.668C278.712 235.233 273.185 229.149 268.038 222.033C262.428 214.023 257.318 205.673 252.739 197.032C251.738 195.053 251.196 192.875 251.151 190.657C251.105 188.44 251.559 186.242 252.478 184.223C253.17 182.5 254.083 180.874 255.194 179.385C263.294 180.369 279.246 217.206 285.342 220.491C291.438 223.777 315.608 203.128 315.608 203.128L321.693 210.576Z" fill="white"/>
<path opacity="0.2" d="M268.026 221.974C262.416 213.963 257.306 205.614 252.727 196.973C251.726 194.994 251.184 192.815 251.139 190.598C251.093 188.381 251.547 186.182 252.466 184.164C257.079 189.845 266.461 203.484 268.026 221.974Z" fill="black"/>
<path d="M255.182 179.337C255.182 179.337 222.555 177.795 198.254 183.927C198.254 183.927 207.362 254.506 206.959 285.247L265.073 282.116C265.073 282.116 263.662 211.051 255.182 179.337Z" fill="#407BFF"/>
<path opacity="0.6" d="M206.959 285.247C207.149 270.956 205.275 248.054 203.223 227.631C202.44 219.839 201.634 212.403 200.851 205.951C199.369 192.964 198.206 183.939 198.206 183.939C222.507 177.807 255.134 179.349 255.134 179.349C263.614 211.063 265.085 282.128 265.085 282.128L206.959 285.247Z" fill="white"/>
<path opacity="0.2" d="M203.223 227.619C202.44 219.827 201.634 212.391 200.851 205.939L204.587 203.069C204.587 203.069 207.884 215.925 203.223 227.619Z" fill="black"/>
<path opacity="0.2" d="M254.755 255.49L251.564 255.644L242.907 256.048L237.593 256.297L226.528 256.818C226.528 256.818 226.528 256.273 226.469 255.277C226.374 253.13 226.184 248.884 225.864 243.535C225.638 239.55 225.33 234.949 224.951 230.133C224.678 226.813 224.381 223.397 224.037 220.017C223.527 215 222.934 210.043 222.235 205.583C221.867 203.211 221.464 200.946 221.049 198.906L248.576 197.115C248.576 197.115 248.931 198.859 249.465 201.859C249.821 203.828 250.248 206.342 250.71 209.284C253.192 224.566 254.544 240.01 254.755 255.49Z" fill="black"/>
<path opacity="0.2" d="M242.907 256.071L237.593 256.32C241.377 246.702 242.859 233.146 240.321 228.924C236.882 223.207 232.66 234.166 229.647 247.307C229.082 250.142 227.996 252.849 226.445 255.289C226.35 253.142 226.16 248.896 225.84 243.547C227.538 240.729 228.82 237.682 229.647 234.498C233.881 219.637 237.641 216.981 242.48 220.883C246.939 224.453 248.244 241.768 242.907 256.071Z" fill="black"/>
<path opacity="0.2" d="M251.564 255.668C252.644 243.061 250.983 221.82 247.283 215.285C243.049 207.789 233.703 207.623 229.208 221.215C228.222 224.387 226.788 227.402 224.951 230.169C224.678 226.848 224.381 223.433 224.037 220.052C225.302 218.469 226.433 216.783 227.417 215.012C232.541 205.939 240.463 201.717 248.291 206.995C249.206 207.651 250.007 208.452 250.663 209.367C253.156 224.62 254.524 240.036 254.755 255.49L251.564 255.668Z" fill="black"/>
<path opacity="0.2" d="M249.453 201.907C243.298 197.258 234.984 198.515 229.671 202.915C227.642 204.751 224.968 205.71 222.235 205.583C221.867 203.211 221.464 200.946 221.049 198.906L248.576 197.115C248.576 197.115 248.92 198.859 249.453 201.907Z" fill="black"/>
<path d="M217.301 181.484C221.986 185.741 233.466 184.164 233.466 184.164C233.466 184.164 240.582 182.207 239.123 179.966C234.901 179.266 232.861 177.297 232.007 174.783C231.538 173.22 231.393 171.577 231.58 169.956C231.647 169.052 231.766 168.153 231.936 167.264L217.704 156.756C219.614 163.694 221.891 176.455 217.301 181.484Z" fill="#EBB376"/>
<path opacity="0.2" d="M221.025 163.433C221.594 171.948 228.592 174.297 232.019 174.783C231.55 173.22 231.404 171.577 231.592 169.956L221.025 163.433Z" fill="black"/>
<path d="M241.768 134.696C241.768 134.696 245.729 147.505 239.527 153.589C233.324 159.673 229.671 135.277 229.671 135.277L241.768 134.696Z" fill="#263238"/>
<path d="M220.894 167.026C222.675 168.967 225.044 170.269 227.637 170.732C230.23 171.195 232.903 170.793 235.245 169.588C238.308 168.093 240.684 165.483 241.887 162.294C242.056 161.851 242.202 161.4 242.325 160.942C244.543 152.427 243.512 138.254 234.273 134.269C232.232 133.382 229.998 133.031 227.784 133.25C225.569 133.47 223.448 134.252 221.621 135.523C219.794 136.793 218.323 138.51 217.347 140.51C216.37 142.509 215.922 144.725 216.044 146.947C216.411 156.459 216.174 162.081 220.894 167.026Z" fill="#EBB376"/>
<path d="M230.442 149.936C230.371 150.695 230.821 151.347 231.331 151.347C231.841 151.347 232.256 150.731 232.28 149.96C232.304 149.189 231.889 148.548 231.391 148.548C230.892 148.548 230.465 149.118 230.442 149.936Z" fill="#263238"/>
<path d="M239.206 150.078C239.135 150.837 239.598 151.49 240.096 151.49C240.594 151.49 241.021 150.873 241.045 150.102C241.068 149.331 240.653 148.691 240.155 148.691C239.657 148.691 239.23 149.343 239.206 150.078Z" fill="#263238"/>
<path d="M236.419 150.399C237.286 152.791 238.484 155.051 239.977 157.111C239.435 157.48 238.819 157.726 238.171 157.833C237.524 157.939 236.862 157.904 236.229 157.728L236.419 150.399Z" fill="#D58745"/>
<path d="M227.773 147.007C227.856 147.02 227.942 147.012 228.021 146.983C228.1 146.954 228.17 146.905 228.224 146.841C228.566 146.383 229.01 146.012 229.52 145.757C230.031 145.502 230.594 145.369 231.165 145.37C231.286 145.38 231.406 145.342 231.499 145.264C231.592 145.187 231.651 145.076 231.663 144.955C231.668 144.896 231.661 144.836 231.643 144.779C231.625 144.723 231.596 144.671 231.557 144.625C231.518 144.58 231.471 144.543 231.418 144.516C231.365 144.489 231.308 144.473 231.248 144.469C230.527 144.447 229.81 144.599 229.16 144.913C228.51 145.227 227.945 145.693 227.512 146.271C227.438 146.363 227.403 146.48 227.414 146.598C227.425 146.715 227.481 146.824 227.572 146.9C227.634 146.943 227.702 146.979 227.773 147.007Z" fill="#263238"/>
<path d="M243.037 147.125C243.122 147.154 243.213 147.154 243.298 147.125C243.353 147.102 243.402 147.068 243.443 147.026C243.485 146.983 243.518 146.933 243.54 146.878C243.562 146.823 243.573 146.764 243.572 146.705C243.571 146.645 243.559 146.587 243.535 146.532C243.245 145.868 242.8 145.282 242.236 144.826C241.673 144.37 241.008 144.056 240.297 143.911C240.179 143.894 240.06 143.925 239.964 143.996C239.869 144.067 239.805 144.173 239.787 144.291C239.773 144.408 239.805 144.526 239.876 144.621C239.946 144.716 240.05 144.78 240.167 144.801C240.725 144.931 241.245 145.192 241.683 145.561C242.122 145.929 242.468 146.396 242.693 146.924C242.733 146.98 242.784 147.026 242.843 147.061C242.903 147.096 242.969 147.118 243.037 147.125Z" fill="#263238"/>
<path d="M223.267 135.206L223.895 139.381C223.196 139.741 222.658 140.35 222.388 141.088C222.117 141.827 222.135 142.64 222.436 143.366C223.883 146.924 222.033 152.391 219.388 154.645C219.388 154.645 219.258 153.127 217.977 153.518C216.696 153.909 217.265 161.82 219.898 165.603C216.553 162.146 214.162 157.88 212.96 153.221C210.766 145.548 210.991 139.855 212.498 136.819L223.267 135.206Z" fill="#263238"/>
<path d="M236.953 160.053C236.556 161.154 236.243 162.284 236.016 163.433C235.811 163.445 235.605 163.445 235.399 163.433C232.6 163.314 231.343 162.33 230.798 161.274C230.545 160.754 230.419 160.181 230.43 159.602C230.427 159.273 230.471 158.946 230.56 158.629C232.249 159.48 234.102 159.954 235.992 160.017C236.585 160.053 236.953 160.053 236.953 160.053Z" fill="#263238"/>
<path d="M235.992 159.993L235.696 160.99C233.063 160.859 231.224 160.42 230.43 159.578C230.427 159.25 230.471 158.922 230.56 158.606C232.249 159.456 234.102 159.93 235.992 159.993Z" fill="white"/>
<path d="M235.399 163.409C232.6 163.29 231.343 162.306 230.798 161.25C231.862 161.32 232.906 161.576 233.881 162.01C234.523 162.303 235.055 162.793 235.399 163.409Z" fill="#DE5753"/>
<path d="M229.54 137.803C229.846 137.388 230.286 137.091 230.785 136.964C231.285 136.836 231.813 136.885 232.28 137.104C234.284 137.685 236.052 139.701 238.115 142.263C240.179 144.824 244.259 144.836 245.231 143.318C246.204 141.8 244.294 139.677 244.294 139.677C244.294 139.677 246.05 129.94 235.435 127.71C224.82 125.481 219.234 130.177 219.234 130.177C219.234 130.177 210.422 130.474 209.746 138.622C209.517 141.93 209.716 145.255 210.339 148.513C210.339 148.513 207.967 151.49 212.426 151.312C217.491 151.11 223.575 148.359 223.871 143.437C224.168 138.515 229.54 137.803 229.54 137.803Z" fill="#263238"/>
<path d="M211.727 154.68C212.741 156.854 214.575 158.538 216.826 159.365C219.815 160.432 221.57 157.811 220.906 154.87C220.313 152.249 218.072 148.465 214.976 148.691C211.881 148.916 210.517 151.976 211.727 154.68Z" fill="#EBB376"/>
<path d="M198.254 183.927C189.75 186.405 177.866 244.27 179.432 251.778C180.997 259.285 210.861 290.916 210.861 290.916L219.163 284.618C219.163 284.618 193.783 248.682 193.474 241.175C193.166 233.668 204.729 205.832 204.729 205.832C204.729 205.832 204.421 196.451 203.164 191.754C202.281 188.742 200.582 186.032 198.254 183.927Z" fill="#407BFF"/>
<path opacity="0.5" d="M198.254 183.927C189.75 186.405 177.866 244.27 179.432 251.778C180.997 259.285 210.861 290.916 210.861 290.916L219.163 284.618C219.163 284.618 193.783 248.682 193.474 241.175C193.166 233.668 204.729 205.832 204.729 205.832C204.729 205.832 204.421 196.451 203.164 191.754C202.281 188.742 200.582 186.032 198.254 183.927Z" fill="white"/>
</g>
<defs>
<clipPath id="clip0_4502_9610">
<rect width="593" height="593" fill="white" transform="translate(0.5 0.5)"/>
</clipPath>
</defs>
</svg>
