<svg width="594" height="594" viewBox="0 0 594 594" fill="none" xmlns="http://www.w3.org/2000/svg">
<g clip-path="url(#clip0_1261_14417)">
<path d="M593.5 454.026H0.5V454.323H593.5V454.026Z" fill="#EBEBEB"/>
<path d="M374.885 462.103H344.689V462.4H374.885V462.103Z" fill="#EBEBEB"/>
<path d="M540.652 468.519H469.1V468.816H540.652V468.519Z" fill="#EBEBEB"/>
<path d="M338.261 462.245H264.338V462.542H338.261V462.245Z" fill="#EBEBEB"/>
<path d="M216.399 471.117H200.934V471.413H216.399V471.117Z" fill="#EBEBEB"/>
<path d="M301.851 471.117H231.426V471.413H301.851V471.117Z" fill="#EBEBEB"/>
<path d="M108.319 466.112H62.7176V466.408H108.319V466.112Z" fill="#EBEBEB"/>
<path d="M281.582 401.131H52.5773C50.7833 401.128 49.0638 400.413 47.7964 399.143C46.5289 397.873 45.8171 396.153 45.8171 394.359V72.4427C45.8327 70.659 46.5514 68.9535 47.8172 67.6966C49.0829 66.4398 50.7935 65.733 52.5773 65.73H281.582C283.378 65.73 285.101 66.4435 286.371 67.7135C287.641 68.9835 288.354 70.706 288.354 72.502V394.359C288.354 396.155 287.641 397.877 286.371 399.147C285.101 400.417 283.378 401.131 281.582 401.131ZM52.5773 65.9672C50.8619 65.9703 49.2179 66.654 48.006 67.868C46.7942 69.0821 46.1136 70.7274 46.1136 72.4427V394.359C46.1136 396.074 46.7942 397.719 48.006 398.933C49.2179 400.147 50.8619 400.831 52.5773 400.834H281.582C283.298 400.831 284.944 400.148 286.157 398.934C287.371 397.72 288.054 396.075 288.058 394.359V72.4427C288.054 70.7263 287.371 69.081 286.157 67.8673C284.944 66.6536 283.298 65.9703 281.582 65.9672H52.5773Z" fill="#EBEBEB"/>
<path d="M538.126 401.131H309.109C307.314 401.128 305.593 400.413 304.324 399.144C303.055 397.875 302.34 396.154 302.337 394.359V72.4427C302.356 70.6579 303.077 68.9524 304.345 67.6959C305.612 66.4393 307.324 65.733 309.109 65.73H538.126C539.907 65.7362 541.615 66.4442 542.878 67.7008C544.141 68.9573 544.858 70.6611 544.874 72.4427V394.359C544.874 396.151 544.164 397.87 542.899 399.139C541.634 400.408 539.918 401.124 538.126 401.131ZM309.109 65.9672C307.393 65.9703 305.747 66.6536 304.534 67.8673C303.32 69.081 302.637 70.7263 302.634 72.4427V394.359C302.637 396.075 303.32 397.72 304.534 398.934C305.747 400.148 307.393 400.831 309.109 400.834H538.126C539.842 400.831 541.487 400.148 542.701 398.934C543.915 397.72 544.598 396.075 544.601 394.359V72.4427C544.598 70.7263 543.915 69.081 542.701 67.8673C541.487 66.6536 539.842 65.9703 538.126 65.9672H309.109Z" fill="#EBEBEB"/>
<path d="M232.909 351.165H154.158L149.379 296.016H228.129L232.909 351.165Z" fill="#E6E6E6"/>
<path d="M236.988 351.165H158.238L153.458 296.016H232.209L236.988 351.165Z" fill="#F0F0F0"/>
<path d="M169.007 339.316L166.374 307.852H221.44L224.073 339.316H169.007Z" fill="white"/>
<path d="M250.616 351.165H241.377V454.026H250.616V351.165Z" fill="#E6E6E6"/>
<path d="M253.533 351.165H247.117V454.026H253.533V351.165Z" fill="#F0F0F0"/>
<path d="M164.097 362.515H253.533V351.165H164.097V362.515Z" fill="#F0F0F0"/>
<path d="M167.252 362.515H158.013V454.026H167.252V362.515Z" fill="#E6E6E6"/>
<path d="M170.169 362.515H163.753V454.026H170.169V362.515Z" fill="#F0F0F0"/>
<path d="M101.488 362.515H92.249V454.026H101.488V362.515Z" fill="#E6E6E6"/>
<path d="M104.405 362.515H97.9892V454.026H104.405V362.515Z" fill="#F0F0F0"/>
<path d="M192.146 362.515H182.907V454.026H192.146V362.515Z" fill="#E6E6E6"/>
<path d="M195.051 362.515H188.635V454.026H195.051V362.515Z" fill="#F0F0F0"/>
<path d="M164.097 351.165H92.249V362.515H164.097V351.165Z" fill="#E6E6E6"/>
<path d="M432.014 94.6802H154.099V249.406H432.014V94.6802Z" fill="#E0E0E0"/>
<path d="M447.278 94.6802H155.498V249.406H447.278V94.6802Z" fill="#F5F5F5"/>
<path d="M442.51 244.638V99.448L160.266 99.448V244.638L442.51 244.638Z" fill="white"/>
<path d="M274.549 244.638L327.836 99.448H239.894L186.607 244.638H274.549Z" fill="#F5F5F5"/>
<path d="M359.194 244.638L412.481 99.448H346.136L292.849 244.638H359.194Z" fill="#F5F5F5"/>
<path d="M520.098 306.251H496.473V454.026H520.098V306.251Z" fill="#E6E6E6"/>
<path d="M513.884 454.026H520.098V442.653H507.373L513.884 454.026Z" fill="#FAFAFA"/>
<path d="M302.278 306.251H278.653V454.026H302.278V306.251Z" fill="#E6E6E6"/>
<path d="M520.098 306.251H296.858V450.955H520.098V306.251Z" fill="#FAFAFA"/>
<path d="M515.876 352.944H301.092V312.074H515.876V352.944ZM302.278 351.758H514.69V313.26H302.278V351.758Z" fill="#E6E6E6"/>
<path d="M478.067 331.916H343.064C336.802 331.916 330.765 326.863 326.46 318.04L326.057 317.198H495.062L494.659 318.04C490.318 326.863 484.388 331.916 478.067 331.916ZM328.002 318.348C332.011 326.211 337.49 330.694 343.064 330.694H478.067C483.665 330.694 489.12 326.211 493.129 318.348H328.002Z" fill="#E6E6E6"/>
<path d="M303.072 454.026H296.858V442.653H309.583L303.072 454.026Z" fill="#FAFAFA"/>
<path d="M515.876 398.996H301.092V358.174H515.876V398.996ZM302.278 397.81H514.69V359.36H302.278V397.81Z" fill="#E6E6E6"/>
<path d="M478.067 378.016H343.064C336.802 378.016 330.765 372.952 326.46 364.14L326.057 363.286H495.062L494.659 364.14C490.318 372.904 484.388 378.016 478.067 378.016ZM328.002 364.472C332.011 372.335 337.49 376.83 343.064 376.83H478.067C483.665 376.83 489.12 372.335 493.129 364.472H328.002Z" fill="#E6E6E6"/>
<path d="M515.876 445.131H301.092V404.262H515.876V445.131ZM302.278 443.945H514.69V405.448H302.278V443.945Z" fill="#E6E6E6"/>
<path d="M478.067 424.104H343.064C336.802 424.104 330.765 419.051 326.46 410.239L326.057 409.385H495.062L494.659 410.239C490.318 419.051 484.388 424.104 478.067 424.104ZM328.002 410.571C332.011 418.434 337.49 422.918 343.064 422.918H478.067C483.665 422.918 489.12 418.434 493.129 410.571H328.002Z" fill="#E6E6E6"/>
<path d="M143.982 325.796V328.666H142.156L140.638 351.165H118.294L116.787 328.666H114.949V325.796H143.982Z" fill="#E6E6E6"/>
<path d="M136.629 269.971C134.803 256.569 116.716 252.75 93.767 252.252C71.9328 251.79 64.9354 244.069 64.9354 244.069C64.9354 244.069 65.0065 275.344 96.4711 286.682C126.346 297.427 138.467 283.397 136.629 269.971Z" fill="#E6E6E6"/>
<path d="M125.481 300.344C125.86 294.841 134.66 284.713 155.83 289.315C171.13 292.647 176.823 284.713 176.823 284.713C176.823 284.713 175.399 307.105 152.391 313.829C130.533 320.222 124.805 310.046 125.481 300.344Z" fill="#E6E6E6"/>
<path d="M130.308 334.24C130.427 334.242 130.545 334.217 130.653 334.168C130.762 334.118 130.859 334.046 130.936 333.956C132.466 332.141 131.209 327.8 129.478 321.787C127.248 314.078 124.473 304.472 126.821 297.51C128.122 293.833 129.643 290.237 131.375 286.741C134.696 279.72 137.566 273.695 135.17 267.314C135.133 267.213 135.076 267.12 135.002 267.041C134.929 266.961 134.84 266.897 134.742 266.852C134.643 266.808 134.537 266.783 134.429 266.779C134.321 266.776 134.213 266.794 134.112 266.832C134.011 266.871 133.918 266.929 133.84 267.003C133.761 267.077 133.698 267.167 133.654 267.265C133.61 267.364 133.587 267.471 133.584 267.579C133.582 267.687 133.601 267.795 133.64 267.896C135.787 273.577 133.19 279.08 129.893 286.053C128.139 289.605 126.594 293.256 125.267 296.988C122.765 304.436 125.611 314.316 127.9 322.238C129.252 326.982 130.652 331.726 129.691 332.912C129.615 332.994 129.556 333.091 129.52 333.197C129.483 333.302 129.468 333.414 129.477 333.526C129.486 333.638 129.518 333.746 129.571 333.844C129.625 333.943 129.698 334.029 129.786 334.098C129.937 334.206 130.122 334.256 130.308 334.24Z" fill="#E6E6E6"/>
<path d="M297 507.586C424 507.586 526.954 501.575 526.954 494.161C526.954 486.746 424 480.735 297 480.735C170 480.735 67.0465 486.746 67.0465 494.161C67.0465 501.575 170 507.586 297 507.586Z" fill="#F5F5F5"/>
<path d="M296.953 428.705H128.541L119.325 157.858H287.737L296.953 428.705Z" fill="#407BFF"/>
<path d="M305.361 420.297H136.949L127.722 149.45H296.134L305.361 420.297Z" fill="#407BFF"/>
<path opacity="0.3" d="M305.361 420.297H136.949L127.722 149.45H296.134L305.361 420.297Z" fill="white"/>
<path d="M248.935 260.903C266.967 242.559 266.2 212.565 247.221 193.908C228.243 175.252 198.239 174.998 180.207 193.341C162.175 211.684 162.942 241.679 181.921 260.335C200.899 278.992 230.902 279.246 248.935 260.903Z" fill="#407BFF"/>
<path d="M253.675 227.133C253.918 233.586 252.51 239.995 249.584 245.753C246.426 251.957 241.601 257.16 235.652 260.775C229.702 264.391 222.863 266.278 215.901 266.223C208.776 266.185 201.786 264.273 195.632 260.68C189.479 257.087 184.379 251.939 180.843 245.753C177.546 240.084 175.705 233.687 175.482 227.133C175.264 222.051 176.08 216.977 177.883 212.221C179.686 207.464 182.436 203.124 185.968 199.463C189.5 195.803 193.739 192.899 198.428 190.927C203.117 188.955 208.158 187.958 213.245 187.995C223.723 188.069 233.771 192.177 241.3 199.465C248.829 206.753 253.261 216.662 253.675 227.133Z" fill="white"/>
<path opacity="0.6" d="M249.56 245.753C246.402 251.957 241.578 257.159 235.628 260.775C229.679 264.391 222.839 266.278 215.878 266.223C208.752 266.185 201.762 264.273 195.609 260.68C189.455 257.087 184.355 251.939 180.819 245.753C190.85 238.914 202.718 235.279 214.858 235.328C227.193 235.355 239.252 238.977 249.56 245.753Z" fill="#407BFF"/>
<path opacity="0.6" d="M226.755 226.157C233.386 219.412 233.104 208.383 226.125 201.523C219.147 194.663 208.114 194.569 201.484 201.314C194.853 208.059 195.135 219.089 202.114 225.949C209.092 232.809 220.125 232.902 226.755 226.157Z" fill="#407BFF"/>
<path d="M271.525 322.214H164.097L163.373 300.866H270.801L271.525 322.214Z" fill="white"/>
<path d="M272.829 360.368H165.39L164.666 339.02H272.106L272.829 360.368Z" fill="white"/>
<path d="M231.367 341.961L205.476 345.519C205.229 345.547 204.991 345.626 204.776 345.751C204.561 345.876 204.374 346.044 204.227 346.244C204.08 346.445 203.976 346.674 203.921 346.916C203.867 347.159 203.863 347.41 203.911 347.654L207.315 365.005C207.426 365.514 207.724 365.964 208.15 366.264C208.576 366.565 209.098 366.695 209.616 366.63L235.506 363.072C235.752 363.041 235.99 362.959 236.204 362.833C236.417 362.706 236.603 362.537 236.748 362.336C236.894 362.134 236.997 361.905 237.05 361.663C237.104 361.42 237.107 361.169 237.06 360.925L233.668 343.574C233.556 343.066 233.258 342.618 232.832 342.319C232.405 342.02 231.883 341.893 231.367 341.961ZM223.931 359.538L219.187 360.166L218.724 354.568C218.235 354.357 217.804 354.031 217.468 353.618C217.131 353.205 216.899 352.718 216.791 352.196C216.704 351.792 216.702 351.375 216.787 350.97C216.871 350.566 217.04 350.183 217.281 349.848C217.522 349.513 217.832 349.232 218.188 349.023C218.545 348.815 218.942 348.684 219.353 348.638C220.195 348.53 221.047 348.742 221.741 349.231C222.435 349.721 222.92 350.453 223.1 351.283C223.203 351.784 223.172 352.304 223.009 352.789C222.847 353.274 222.559 353.708 222.175 354.047L223.931 359.538Z" fill="#407BFF"/>
<path d="M228.805 341.024C228.347 341.083 227.884 340.968 227.507 340.702C227.129 340.437 226.865 340.04 226.765 339.589L226.433 337.893C225.959 335.579 224.662 333.515 222.782 332.084C220.902 330.653 218.567 329.953 216.21 330.113C215.02 330.181 213.859 330.504 212.806 331.06C211.752 331.616 210.831 332.393 210.104 333.337C209.377 334.281 208.862 335.37 208.594 336.531C208.325 337.692 208.31 338.896 208.548 340.064L208.928 342.021C208.972 342.237 208.97 342.461 208.923 342.677C208.876 342.893 208.784 343.097 208.653 343.276C208.523 343.455 208.356 343.604 208.164 343.715C207.973 343.825 207.76 343.895 207.54 343.918C207.081 343.982 206.616 343.869 206.237 343.603C205.858 343.337 205.595 342.936 205.5 342.483L205.18 340.835C204.854 339.294 204.843 337.703 205.148 336.158C205.453 334.613 206.067 333.146 206.953 331.844C207.839 330.542 208.98 329.433 210.305 328.584C211.631 327.734 213.115 327.161 214.668 326.899C218.035 326.334 221.49 327.086 224.317 329.001C227.144 330.916 229.125 333.845 229.849 337.182L230.228 339.127C230.272 339.346 230.27 339.573 230.22 339.791C230.171 340.01 230.076 340.215 229.942 340.394C229.807 340.574 229.637 340.722 229.441 340.831C229.245 340.939 229.028 341.005 228.805 341.024Z" fill="#407BFF"/>
<path d="M255.099 390.267H185.16L184.698 376.367H254.624L255.099 390.267Z" fill="#407BFF"/>
<path d="M221.357 311.54C221.378 312.047 221.296 312.553 221.115 313.027C220.935 313.502 220.66 313.934 220.307 314.299C219.954 314.664 219.531 314.953 219.064 315.15C218.596 315.346 218.093 315.446 217.585 315.442C216.54 315.434 215.537 315.025 214.784 314.299C214.032 313.572 213.587 312.585 213.541 311.54C213.52 311.033 213.603 310.527 213.783 310.053C213.963 309.579 214.238 309.146 214.591 308.781C214.944 308.416 215.367 308.127 215.835 307.931C216.302 307.734 216.805 307.635 217.313 307.638C218.359 307.644 219.364 308.052 220.117 308.779C220.87 309.505 221.314 310.494 221.357 311.54Z" fill="#263238"/>
<path d="M204.492 311.54C204.515 312.048 204.434 312.554 204.254 313.029C204.074 313.504 203.799 313.938 203.446 314.303C203.093 314.668 202.669 314.957 202.201 315.153C201.732 315.349 201.228 315.447 200.721 315.442C199.676 315.434 198.675 315.024 197.924 314.298C197.173 313.571 196.731 312.584 196.688 311.54C196.667 311.033 196.75 310.527 196.93 310.053C197.11 309.579 197.385 309.146 197.738 308.781C198.091 308.416 198.514 308.127 198.982 307.931C199.449 307.734 199.952 307.635 200.46 307.638C201.505 307.644 202.508 308.052 203.259 308.779C204.011 309.506 204.452 310.496 204.492 311.54Z" fill="#263238"/>
<path d="M187.734 311.54C187.755 312.047 187.672 312.553 187.492 313.027C187.311 313.502 187.037 313.934 186.684 314.299C186.331 314.664 185.908 314.953 185.44 315.15C184.973 315.346 184.47 315.446 183.962 315.442C182.917 315.437 181.914 315.028 181.163 314.301C180.411 313.574 179.97 312.585 179.93 311.54C179.909 311.033 179.991 310.527 180.172 310.053C180.352 309.579 180.627 309.146 180.98 308.781C181.332 308.416 181.755 308.127 182.223 307.931C182.691 307.734 183.194 307.635 183.701 307.638C184.747 307.644 185.75 308.052 186.501 308.779C187.252 309.506 187.694 310.496 187.734 311.54Z" fill="#263238"/>
<path d="M238.163 311.54C238.183 312.047 238.101 312.553 237.921 313.027C237.74 313.502 237.465 313.934 237.113 314.299C236.76 314.664 236.337 314.953 235.869 315.15C235.401 315.346 234.898 315.446 234.391 315.442C233.346 315.437 232.343 315.028 231.591 314.301C230.84 313.574 230.398 312.585 230.359 311.54C230.341 311.035 230.426 310.531 230.609 310.059C230.792 309.588 231.068 309.158 231.422 308.797C231.776 308.435 232.199 308.149 232.667 307.956C233.134 307.763 233.636 307.667 234.142 307.674C235.179 307.682 236.174 308.087 236.922 308.806C237.67 309.525 238.114 310.504 238.163 311.54Z" fill="#263238"/>
<path d="M254.968 311.54C254.991 312.048 254.91 312.554 254.73 313.029C254.55 313.504 254.275 313.938 253.922 314.303C253.569 314.668 253.145 314.957 252.677 315.153C252.208 315.349 251.705 315.447 251.197 315.442C250.152 315.434 249.151 315.024 248.4 314.298C247.649 313.571 247.207 312.584 247.164 311.54C247.143 311.033 247.226 310.527 247.406 310.053C247.587 309.579 247.861 309.146 248.214 308.781C248.567 308.416 248.99 308.127 249.458 307.931C249.925 307.734 250.428 307.635 250.936 307.638C251.981 307.644 252.984 308.052 253.736 308.779C254.487 309.506 254.928 310.496 254.968 311.54Z" fill="#263238"/>
<path d="M396.517 207.196C398.095 209.734 399.411 212.154 400.763 214.68C402.115 217.206 403.337 219.744 404.535 222.342C406.979 227.601 409.001 233.046 410.583 238.625C410.797 239.325 410.951 240.072 411.129 240.796L411.39 241.899L411.52 242.444L411.674 243.346C411.942 245.39 411.817 247.467 411.307 249.465C410.488 252.568 409.243 255.541 407.606 258.301C404.68 263.316 401.142 267.95 397.075 272.094L392.082 268.323C394.588 263.715 396.818 258.963 398.759 254.091C399.624 251.944 400.233 249.703 400.573 247.414C400.682 246.715 400.65 246.001 400.479 245.314L400.004 243.867C399.814 243.274 399.636 242.681 399.411 242.077C397.607 237.184 395.52 232.4 393.161 227.75C390.789 223.006 388.239 218.262 385.689 213.731L396.517 207.196Z" fill="#FF8B7B"/>
<path d="M393.351 266.674L387.895 269.556L394.157 276.886C394.157 276.886 398.071 274.241 398.249 270.208L393.351 266.674Z" fill="#FF8B7B"/>
<path d="M380.577 274.075L387.278 279.4L394.157 276.886L387.895 269.556L380.577 274.075Z" fill="#FF8B7B"/>
<path d="M357.664 168.39C357.533 169.055 357.071 169.517 356.644 169.434C356.217 169.351 355.968 168.734 356.098 168.082C356.229 167.43 356.691 166.896 357.13 167.038C357.569 167.181 357.794 167.726 357.664 168.39Z" fill="#263238"/>
<path d="M357.13 169.529C355.936 171.386 354.491 173.071 352.837 174.534C353.228 174.939 353.701 175.254 354.225 175.459C354.749 175.664 355.311 175.753 355.873 175.72L357.13 169.529Z" fill="#FF5652"/>
<path d="M354.995 192.798V185.018L365.29 186.204C365.29 186.204 365.124 192.893 359.36 194.862L354.995 192.798Z" fill="#FF8B7B"/>
<path d="M357.96 179.42L365.207 181.508L365.337 186.263L355.043 185.018L357.96 179.42Z" fill="#FF8B7B"/>
<path opacity="0.2" d="M365.207 181.508L357.96 179.42L356.549 182.124C356.626 184.255 357.292 186.323 358.473 188.098C359.653 189.873 361.303 191.287 363.238 192.182C364.483 190.442 365.211 188.387 365.337 186.252L365.207 181.508Z" fill="black"/>
<path d="M360.819 165.224C360.895 165.222 360.969 165.198 361.032 165.156C361.095 165.114 361.145 165.054 361.176 164.985C361.207 164.916 361.218 164.839 361.207 164.763C361.196 164.688 361.164 164.617 361.115 164.56C360.699 164.089 360.175 163.725 359.589 163.498C359.003 163.271 358.372 163.188 357.747 163.255C357.645 163.272 357.554 163.33 357.494 163.414C357.434 163.499 357.41 163.603 357.427 163.706C357.444 163.809 357.501 163.901 357.585 163.963C357.669 164.025 357.774 164.051 357.877 164.038C358.372 163.989 358.872 164.06 359.334 164.243C359.796 164.427 360.207 164.718 360.534 165.093C360.57 165.133 360.614 165.165 360.663 165.187C360.712 165.21 360.765 165.222 360.819 165.224Z" fill="#263238"/>
<path d="M375.976 180.393C374.79 186.5 374.054 194.957 378.348 199.025C378.348 199.025 376.687 205.216 365.302 205.216C352.837 205.216 359.312 199.784 359.312 199.784C364.495 198.171 364.448 192.276 363.262 187.532L375.976 180.393Z" fill="#FF8B7B"/>
<path d="M380.66 203.105C381.775 201.539 381.728 196.57 380.542 195.692C378.632 194.281 370.437 193.949 359.419 196.487C360.605 201.302 358.055 203.816 358.055 203.816L380.66 203.105Z" fill="#407BFF"/>
<path d="M417.735 484.673C417.396 484.792 417.038 484.843 416.679 484.822C416.321 484.802 415.97 484.711 415.647 484.554C415.525 484.44 415.441 484.291 415.407 484.128C415.373 483.964 415.391 483.794 415.458 483.641C415.495 483.513 415.56 483.394 415.648 483.294C415.736 483.193 415.845 483.113 415.968 483.06C417.094 482.514 419.68 483.57 419.798 483.617C419.834 483.631 419.864 483.656 419.885 483.688C419.906 483.72 419.917 483.757 419.917 483.795C419.917 483.833 419.907 483.87 419.888 483.904C419.869 483.937 419.843 483.965 419.81 483.985C419.142 484.279 418.447 484.509 417.735 484.673ZM416.371 483.332C416.293 483.351 416.217 483.379 416.146 483.415C416.072 483.443 416.005 483.487 415.951 483.544C415.898 483.602 415.859 483.672 415.837 483.748C415.73 484.103 415.837 484.222 415.908 484.258C416.359 484.637 418.019 484.258 419.194 483.819C418.3 483.449 417.336 483.283 416.371 483.332Z" fill="#407BFF"/>
<path d="M419.763 483.997H419.668C418.719 483.724 416.703 482.289 416.679 481.352C416.678 481.203 416.728 481.058 416.821 480.942C416.914 480.825 417.044 480.744 417.189 480.712C417.33 480.659 417.48 480.638 417.63 480.65C417.78 480.663 417.925 480.708 418.055 480.783C419.17 481.352 419.881 483.653 419.905 483.76C419.922 483.788 419.931 483.821 419.931 483.854C419.931 483.888 419.922 483.921 419.905 483.949C419.887 483.968 419.864 483.982 419.84 483.99C419.815 483.998 419.789 484.001 419.763 483.997ZM417.391 481.044H417.296C417.059 481.127 417.059 481.245 417.059 481.305C417.059 481.862 418.411 482.989 419.431 483.439C419.182 482.775 418.636 481.459 417.913 481.067C417.752 480.994 417.569 480.986 417.403 481.044H417.391Z" fill="#407BFF"/>
<path d="M356.134 486.072C355.067 486.072 354.035 485.918 353.691 485.444C353.601 485.317 353.553 485.166 353.553 485.011C353.553 484.856 353.601 484.704 353.691 484.578C353.759 484.462 353.849 484.361 353.957 484.282C354.065 484.202 354.189 484.146 354.319 484.115C355.707 483.736 358.625 485.396 358.743 485.467C358.78 485.485 358.809 485.515 358.826 485.552C358.843 485.588 358.848 485.63 358.838 485.669C358.834 485.71 358.816 485.748 358.788 485.778C358.761 485.808 358.724 485.828 358.684 485.835C357.843 485.989 356.989 486.069 356.134 486.072ZM354.818 484.447C354.692 484.427 354.564 484.427 354.438 484.447C354.358 484.464 354.282 484.497 354.214 484.544C354.147 484.591 354.09 484.651 354.047 484.72C353.904 484.969 353.964 485.088 354.047 485.159C354.438 485.705 356.537 485.717 358.091 485.491C357.077 484.937 355.965 484.583 354.818 484.447Z" fill="#407BFF"/>
<path d="M358.672 485.835H358.589C357.581 485.384 355.588 483.582 355.743 482.633C355.743 482.408 355.932 482.135 356.478 482.087C356.673 482.064 356.87 482.082 357.058 482.139C357.246 482.196 357.42 482.292 357.569 482.419C358.329 483.328 358.785 484.452 358.874 485.633C358.873 485.667 358.866 485.701 358.851 485.731C358.837 485.762 358.816 485.789 358.791 485.811C358.754 485.83 358.713 485.838 358.672 485.835ZM356.632 482.455H356.513C356.158 482.455 356.134 482.621 356.134 482.668C356.039 483.238 357.391 484.661 358.423 485.278C358.332 484.326 357.947 483.426 357.32 482.704C357.125 482.538 356.876 482.449 356.62 482.455H356.632Z" fill="#407BFF"/>
<path d="M367.828 485.645H359.49L358.66 466.325H366.998L367.828 485.645Z" fill="#FF8B7B"/>
<path d="M429.061 481.779L420.913 483.546L412.718 465.554L420.878 463.787L429.061 481.779Z" fill="#FF8B7B"/>
<path d="M420.119 482.728L429.286 480.747C429.447 480.713 429.614 480.735 429.76 480.808C429.907 480.881 430.024 481.002 430.093 481.15L433.271 488.053C433.356 488.22 433.4 488.405 433.399 488.592C433.399 488.78 433.354 488.964 433.268 489.131C433.183 489.297 433.059 489.441 432.907 489.551C432.755 489.66 432.579 489.732 432.394 489.761C429.192 490.389 427.59 490.544 423.57 491.409C421.091 491.955 415.493 493.319 412.066 494.054C408.638 494.789 407.464 491.504 408.804 490.899C414.793 488.16 417.284 485.752 418.909 483.511C419.203 483.11 419.633 482.832 420.119 482.728Z" fill="#263238"/>
<path d="M359.55 484.673H368.658C368.823 484.674 368.984 484.731 369.113 484.834C369.242 484.937 369.332 485.081 369.37 485.242L371.018 492.655C371.067 492.834 371.072 493.022 371.035 493.204C370.997 493.385 370.918 493.556 370.802 493.701C370.687 493.846 370.539 493.963 370.371 494.04C370.202 494.118 370.018 494.155 369.832 494.149C366.547 494.09 361.803 493.9 357.676 493.9C352.837 493.9 348.674 494.161 343.005 494.161C339.577 494.161 338.629 490.698 340.064 490.378C346.587 488.954 351.924 488.8 357.557 485.325C358.149 484.929 358.838 484.703 359.55 484.673Z" fill="#263238"/>
<path d="M393.268 200.934C401.083 202.725 407.5 222.685 407.5 222.685L391.88 234.628C387.826 230.294 384.965 224.981 383.578 219.21C380.815 208.75 385.274 199.084 393.268 200.934Z" fill="#407BFF"/>
<path opacity="0.4" d="M393.268 200.934C401.083 202.725 407.5 222.685 407.5 222.685L391.88 234.628C387.826 230.294 384.965 224.981 383.578 219.21C380.815 208.75 385.274 199.084 393.268 200.934Z" fill="black"/>
<path d="M352.149 224.737C350.204 226.836 348.259 228.71 346.219 230.667C345.211 231.616 344.191 232.565 343.147 233.478L341.57 234.866L341.179 235.209L340.502 235.755C339.807 236.311 339.036 236.766 338.214 237.107C337.298 237.496 336.314 237.697 335.32 237.7C334.47 237.704 333.626 237.555 332.829 237.261C331.945 236.924 331.138 236.412 330.457 235.755C329.588 234.906 328.951 233.848 328.607 232.683C328.427 232.109 328.311 231.516 328.263 230.916C328.201 230.214 328.201 229.507 328.263 228.805C328.322 228.236 328.393 227.738 328.488 227.275C328.813 225.658 329.273 224.071 329.864 222.531C330.398 221.067 331.011 219.634 331.702 218.238C332.461 216.732 333.185 215.629 333.908 214.371C336.847 209.558 340.2 205.01 343.93 200.78C347.622 196.575 351.692 192.716 356.087 189.252L360.451 193.747C357.391 197.85 354.379 202.251 351.592 206.579C348.818 210.884 346.284 215.338 344.001 219.922C343.491 221.037 342.815 222.294 342.495 223.195C342.071 224.242 341.703 225.311 341.392 226.397C341.093 227.376 340.867 228.375 340.716 229.386C340.708 229.544 340.708 229.703 340.716 229.861C340.716 229.955 340.716 230.003 340.716 229.754C340.696 229.488 340.645 229.225 340.562 228.971C340.305 228.13 339.835 227.37 339.198 226.765C338.631 226.244 337.965 225.841 337.241 225.579C336.604 225.338 335.929 225.213 335.249 225.211C334.594 225.204 333.944 225.329 333.339 225.579C333.134 225.663 332.936 225.762 332.746 225.876L333.197 225.461L334.632 224.156L337.466 221.499C339.34 219.732 341.226 217.846 343.005 216.091L352.149 224.737Z" fill="#FF8B7B"/>
<path opacity="0.2" d="M386.567 215.593C390.813 219.791 392.2 227.453 392.497 234.095L391.809 234.628C387.755 230.294 384.894 224.981 383.507 219.21C383.353 218.594 383.21 218.024 383.104 217.348L386.567 215.593Z" fill="black"/>
<path d="M343.859 209.236C342.151 218.25 341.084 236.763 346.029 273.411H390.694C391.002 266.567 386.697 233.146 393.303 200.875C388.368 199.927 383.376 199.297 378.36 198.989C372.039 198.627 365.704 198.627 359.384 198.989C357.296 199.179 355.233 199.487 353.454 199.807C351.088 200.223 348.903 201.346 347.19 203.03C345.477 204.714 344.315 206.878 343.859 209.236Z" fill="#407BFF"/>
<path opacity="0.4" d="M343.859 209.236C342.151 218.25 341.084 236.763 346.029 273.411H390.694C391.002 266.567 386.697 233.146 393.303 200.875C388.368 199.927 383.376 199.297 378.36 198.989C372.039 198.627 365.704 198.627 359.384 198.989C357.296 199.179 355.233 199.487 353.454 199.807C351.088 200.223 348.903 201.346 347.19 203.03C345.477 204.714 344.315 206.878 343.859 209.236Z" fill="black"/>
<path opacity="0.2" d="M350.69 222.602L342.625 220.669C342.376 225.556 342.353 231.604 342.708 239.088C346.421 234.866 351.165 228.271 350.69 222.602Z" fill="black"/>
<path opacity="0.2" d="M358.66 466.325L359.087 476.288H367.437L367.01 466.325H358.66Z" fill="black"/>
<path opacity="0.2" d="M420.878 463.787L412.718 465.554L416.94 474.829L425.1 473.062L420.878 463.787Z" fill="black"/>
<path d="M379.937 171.474C377.802 179.468 376.948 184.259 372.015 187.58C364.602 192.632 355.351 186.844 355.114 178.4C354.853 170.774 358.399 158.973 366.974 157.36C368.858 157.007 370.802 157.139 372.621 157.744C374.44 158.349 376.075 159.408 377.372 160.82C378.669 162.232 379.585 163.951 380.034 165.815C380.482 167.679 380.449 169.626 379.937 171.474Z" fill="#FF8B7B"/>
<path d="M361.222 171.77C360.819 170.703 358.98 162.437 360.712 160.29C362.444 158.143 382.19 159.697 385.108 162.567C389.959 167.311 386.59 171.581 381.289 177.072C377.304 181.199 377.15 185.848 375.134 186.56C371.576 187.746 366.144 186.631 365.053 182.871C363.962 179.112 361.222 171.77 361.222 171.77Z" fill="#263238"/>
<path d="M382.712 153.162C375.739 150.197 362.657 153.482 355.588 151.774C355.498 154.403 356.363 156.975 358.022 159.015C359.681 161.056 362.022 162.427 364.614 162.875C370.477 163.993 376.435 164.545 382.404 164.524C390.16 164.168 388.642 155.688 382.712 153.162Z" fill="#263238"/>
<path d="M383.803 162.816C386.351 163.067 388.916 162.577 391.192 161.405C392.497 164.56 385.321 165.425 383.803 162.816Z" fill="#263238"/>
<path d="M365.017 172.102C364.857 174.159 364.023 176.106 362.645 177.641C360.819 179.645 358.921 178.388 358.601 175.957C358.316 173.751 358.909 170.027 361.139 168.959C363.369 167.892 365.171 169.624 365.017 172.102Z" fill="#FF8B7B"/>
<path d="M361.862 273.446C361.862 273.446 371.35 337.194 376.533 361.08C382.214 387.231 412.742 473.75 412.742 473.75L427.673 470.512C427.673 470.512 406.325 399.992 401.581 363.428C397.905 335.343 390.682 273.422 390.682 273.422L361.862 273.446Z" fill="#407BFF"/>
<path d="M409.16 468.78C409.101 468.78 411.947 474.188 411.947 474.188L428.741 470.547L427.33 465.495L409.16 468.78Z" fill="#263238"/>
<path opacity="0.3" d="M367.852 296.158C378.798 298.305 377.636 339.127 376.32 360.131C373.165 345.282 368.54 316.723 365.385 296.455C366.149 296.077 367.02 295.973 367.852 296.158Z" fill="black"/>
<path d="M346.029 273.446C346.029 273.446 344.843 335.818 345.792 361.21C346.741 387.67 355.98 474.307 355.98 474.307H370.117C370.117 474.307 370.627 389.212 371.303 363.226C371.991 334.905 375.406 273.399 375.406 273.399L346.029 273.446Z" fill="#407BFF"/>
<path d="M353.264 468.733C353.193 468.733 354.058 474.592 354.058 474.592H371.244L371.718 469.361L353.264 468.733Z" fill="#263238"/>
<path d="M361.34 212.011C365.337 222.792 341.843 235.494 341.843 235.494L331.667 222.448C331.667 222.448 338.51 208.904 346.812 202.808C357.071 195.289 358.292 203.804 361.34 212.011Z" fill="#407BFF"/>
<path opacity="0.4" d="M361.34 212.011C365.337 222.792 341.843 235.494 341.843 235.494L331.667 222.448C331.667 222.448 338.51 208.904 346.812 202.808C357.071 195.289 358.292 203.804 361.34 212.011Z" fill="black"/>
<path d="M453.398 130.165C477.037 130.165 496.201 117.953 496.201 102.887C496.201 87.8222 477.037 75.6094 453.398 75.6094C429.759 75.6094 410.595 87.8222 410.595 102.887C410.595 117.953 429.759 130.165 453.398 130.165Z" fill="#407BFF"/>
<path d="M437.956 116.621C435.136 116.612 432.41 115.61 430.256 113.79C428.102 111.97 426.659 109.449 426.179 106.671C425.707 103.661 426.386 100.584 428.081 98.052C429.775 95.5202 432.361 93.7193 435.323 93.0079C437.754 92.4477 440.299 92.6636 442.601 93.6252C444.903 94.5868 446.846 96.2457 448.156 98.3686L475.635 92.6995C476.691 92.4682 477.796 92.6439 478.728 93.1913C479.66 93.7387 480.351 94.6177 480.664 95.6527C480.808 96.1968 480.839 96.7645 480.756 97.3211C480.673 97.8778 480.477 98.4116 480.181 98.8901C479.884 99.3685 479.494 99.7815 479.032 100.104C478.571 100.426 478.049 100.651 477.497 100.764L476.786 100.907C476.68 100.926 476.58 100.969 476.494 101.032C476.407 101.096 476.337 101.179 476.288 101.274C476.244 101.371 476.221 101.476 476.221 101.583C476.221 101.689 476.244 101.794 476.288 101.891L476.774 103.148C476.937 103.556 476.953 104.007 476.818 104.425C476.684 104.843 476.408 105.201 476.039 105.437C475.747 105.617 475.5 105.862 475.318 106.151C475.135 106.441 475.02 106.769 474.983 107.109C474.948 107.5 474.791 107.87 474.533 108.166C474.275 108.462 473.93 108.67 473.548 108.758L472.991 108.877C472.604 108.948 472.205 108.894 471.851 108.724C471.497 108.553 471.207 108.274 471.022 107.928C470.776 107.514 470.406 107.188 469.966 106.994C469.525 106.8 469.035 106.748 468.564 106.846C468.093 106.944 467.664 107.187 467.337 107.54C467.01 107.893 466.801 108.34 466.74 108.817C466.707 109.206 466.552 109.574 466.296 109.868C466.04 110.162 465.697 110.367 465.317 110.454L464.76 110.573C464.373 110.642 463.975 110.588 463.621 110.417C463.268 110.247 462.977 109.969 462.791 109.624C462.613 109.33 462.374 109.078 462.089 108.885C461.805 108.693 461.482 108.564 461.142 108.509C460.686 108.454 460.266 108.235 459.96 107.892C459.655 107.549 459.484 107.106 459.482 106.647V105.295C459.477 105.189 459.45 105.086 459.401 104.991C459.353 104.897 459.284 104.815 459.201 104.749C459.118 104.684 459.021 104.638 458.918 104.613C458.815 104.588 458.708 104.586 458.604 104.607L449.84 106.41C449.482 108.838 448.385 111.097 446.698 112.879C445.011 114.662 442.816 115.882 440.411 116.372C439.603 116.537 438.781 116.621 437.956 116.621ZM435.584 94.0871C432.894 94.7155 430.542 96.3397 429.002 98.6328C427.461 100.926 426.847 103.717 427.282 106.445C427.749 108.983 429.108 111.27 431.114 112.893C433.12 114.516 435.641 115.367 438.221 115.292C440.8 115.218 443.267 114.223 445.177 112.487C447.086 110.751 448.311 108.389 448.63 105.829V105.402L458.296 103.445C458.573 103.378 458.862 103.373 459.141 103.432C459.42 103.49 459.683 103.61 459.91 103.782C460.137 103.955 460.323 104.176 460.454 104.429C460.585 104.683 460.658 104.962 460.668 105.247V106.599C460.671 106.76 460.729 106.916 460.832 107.039C460.936 107.162 461.079 107.245 461.237 107.275C461.756 107.35 462.25 107.541 462.684 107.835C463.118 108.129 463.479 108.517 463.74 108.971C463.803 109.099 463.904 109.205 464.029 109.273C464.154 109.341 464.298 109.368 464.439 109.351L464.985 109.232C465.123 109.197 465.246 109.118 465.336 109.006C465.426 108.895 465.477 108.758 465.483 108.616C465.558 107.877 465.865 107.182 466.361 106.63C466.857 106.078 467.516 105.698 468.242 105.545C468.968 105.392 469.724 105.473 470.401 105.778C471.077 106.083 471.64 106.595 472.006 107.24C472.067 107.367 472.166 107.472 472.289 107.54C472.413 107.608 472.554 107.636 472.694 107.619L473.263 107.501C473.399 107.463 473.52 107.383 473.607 107.272C473.695 107.161 473.745 107.025 473.75 106.884C473.808 106.363 473.985 105.863 474.267 105.421C474.548 104.979 474.927 104.607 475.374 104.334C475.505 104.24 475.601 104.105 475.646 103.95C475.691 103.795 475.683 103.63 475.623 103.48L475.137 102.223C475.037 101.964 474.994 101.686 475.012 101.409C475.03 101.131 475.108 100.861 475.242 100.617C475.375 100.373 475.56 100.161 475.784 99.9961C476.007 99.831 476.264 99.7168 476.537 99.6613L477.26 99.5072C477.652 99.4237 478.022 99.2621 478.35 99.032C478.678 98.802 478.955 98.5082 479.167 98.1683C479.378 97.8284 479.519 97.4493 479.581 97.0537C479.642 96.6582 479.623 96.2543 479.525 95.8661C479.294 95.1198 478.789 94.4885 478.111 94.0992C477.434 93.7098 476.634 93.5911 475.873 93.7669L447.622 99.6376L447.409 99.27C446.273 97.2493 444.511 95.6531 442.389 94.7223C440.266 93.7916 437.899 93.5769 435.643 94.1109L435.584 94.0871ZM437.956 112.209C436.483 112.226 435.037 111.814 433.793 111.023C432.323 110.058 431.232 108.612 430.708 106.933C430.184 105.253 430.259 103.444 430.92 101.813C431.58 100.183 432.786 98.8318 434.331 97.9908C435.877 97.1498 437.666 96.8707 439.394 97.2012C441.122 97.5317 442.681 98.4513 443.807 99.8033C444.933 101.155 445.555 102.856 445.568 104.615C445.58 106.374 444.982 108.083 443.875 109.451C442.768 110.818 441.221 111.76 439.498 112.114C438.993 112.206 438.481 112.245 437.968 112.233L437.956 112.209ZM437.956 98.2026C437.514 98.2051 437.073 98.2487 436.64 98.333C435.813 98.509 435.03 98.846 434.334 99.3248C433.638 99.8036 433.043 100.415 432.583 101.123C432.123 101.832 431.808 102.624 431.654 103.455C431.501 104.286 431.512 105.139 431.688 105.965C431.864 106.791 432.201 107.575 432.68 108.271C433.159 108.967 433.77 109.562 434.479 110.021C435.187 110.481 435.98 110.797 436.81 110.95C437.641 111.104 438.494 111.092 439.32 110.916C440.56 110.658 441.696 110.039 442.585 109.136C443.474 108.233 444.075 107.087 444.314 105.843C444.552 104.598 444.417 103.311 443.925 102.144C443.433 100.976 442.607 99.9803 441.55 99.2818C440.5 98.5835 439.265 98.2159 438.004 98.2263L437.956 98.2026Z" fill="white"/>
<path opacity="0.6" d="M418.565 146.165C426.333 146.165 432.631 142.15 432.631 137.198C432.631 132.246 426.333 128.232 418.565 128.232C410.797 128.232 404.499 132.246 404.499 137.198C404.499 142.15 410.797 146.165 418.565 146.165Z" fill="#407BFF"/>
<path opacity="0.3" d="M396.185 149.841C399.375 149.841 401.961 148.195 401.961 146.164C401.961 144.134 399.375 142.488 396.185 142.488C392.995 142.488 390.409 144.134 390.409 146.164C390.409 148.195 392.995 149.841 396.185 149.841Z" fill="#407BFF"/>
</g>
<defs>
<clipPath id="clip0_1261_14417">
<rect width="593" height="593" fill="white" transform="translate(0.5 0.5)"/>
</clipPath>
</defs>
</svg>
