<svg width="776" height="563" viewBox="0 0 776 563" fill="none" xmlns="http://www.w3.org/2000/svg">
<path fill-rule="evenodd" clip-rule="evenodd" d="M388.002 527.467C478.138 527.467 561.086 528.858 626.914 531.19C788.005 436.143 732.227 250.876 674.385 146.081C593.883 0.236253 403.67 -52.1876 324.99 64.18C218.196 222.13 115.173 167.01 59.5445 286.968C3.9165 406.924 88.3978 521.921 149.09 531.19C214.915 528.858 297.866 527.467 388.002 527.467Z" fill="#EAEFF8"/>
<path fill-rule="evenodd" clip-rule="evenodd" d="M388.002 527.465C602.012 527.465 775.5 535.303 775.5 544.982C775.5 554.656 602.012 562.498 388.002 562.498C173.988 562.498 0.5 554.656 0.5 544.982C0.5 535.304 173.988 527.465 388.002 527.465Z" fill="#D2DFEE"/>
<path fill-rule="evenodd" clip-rule="evenodd" d="M512.964 43.8927C609.741 66.1468 671.332 158.019 677.368 202.377C679.841 220.576 675.254 177.984 625.88 139.199C581.76 104.537 547.407 98.1136 494.917 93.9289C457.822 90.9675 418.975 86.2612 421.735 63.4237C423.916 45.3857 450.478 29.5229 512.964 43.8927Z" fill="white"/>
<path fill-rule="evenodd" clip-rule="evenodd" d="M138.383 487.097C133.963 481.387 127.746 476.671 125.922 469.608C123.767 461.273 128.509 452.501 127.334 443.96C125.859 433.212 115.828 426.244 110.385 416.954C105.053 407.857 107.55 404.798 107.065 394.179C106.334 378.176 93.6185 357.978 76.6779 363.394C59.4781 368.901 62.2862 385.403 65.314 397.822C67.4719 406.664 66.0608 407.937 63.9658 416.797C61.4354 427.495 53.2744 437.837 56.6868 448.274C58.7953 454.728 64.9275 459.084 67.1428 465.5C69.656 472.769 66.6142 480.653 65.4422 488.279C62.9746 504.327 66.516 517.679 77.812 530.934C79.0263 532.126 80.2882 533.235 81.5954 534.259C97.4199 533.336 115.226 532.483 134.746 531.721L134.89 531.564C145.23 519.913 148.314 499.921 138.383 487.097Z" fill="#D2DFEE"/>
<path fill-rule="evenodd" clip-rule="evenodd" d="M84.4906 377.844C84.2248 377.124 83.439 376.76 82.7378 377.04C82.0366 377.313 81.6862 378.124 81.9536 378.851C83.2969 382.473 84.4261 386.273 85.3935 390.224C85.0041 389.861 84.6028 389.507 84.1858 389.165C82.3418 387.634 80.2468 386.294 77.9029 385.151C77.2239 384.819 76.4142 385.123 76.0959 385.822C75.7759 386.521 76.0671 387.357 76.7445 387.686C78.8986 388.738 80.8125 389.959 82.4909 391.35C84.0778 392.668 85.4597 394.14 86.63 395.773C88.3659 404.332 89.5021 413.541 90.525 423.247C88.9517 420.723 87.2716 418.457 85.4835 416.451C82.3792 412.965 78.943 410.258 75.1749 408.332C74.5041 407.99 73.6895 408.273 73.3576 408.965C73.0257 409.657 73.3001 410.496 73.9709 410.839C77.4239 412.605 80.596 415.112 83.4834 418.353C86.3539 421.573 88.9386 425.513 91.2332 430.17L91.4973 432.803C92.0765 438.589 92.6693 444.523 93.3705 450.586C93.3758 450.642 93.3808 450.701 93.391 450.757C94.1259 457.092 94.9811 463.56 96.0615 470.137C93.1248 465.455 89.9647 461.315 86.5794 457.721C81.6209 452.453 76.1809 448.345 70.2653 445.404C69.5862 445.068 68.7766 445.362 68.45 446.058C68.1251 446.757 68.4093 447.596 69.0867 447.932C74.7161 450.729 79.8948 454.645 84.6303 459.676C89.3535 464.693 93.6334 470.822 97.4689 478.059C99.1424 486.768 101.271 495.646 104.101 504.621L104.113 504.656V504.659C105.502 509.058 107.058 513.481 108.811 517.921C104.697 514.277 100.331 511.131 95.7111 508.474C89.2758 504.775 82.3607 502.04 74.9753 500.275C74.2437 500.1 73.5137 500.568 73.3408 501.327C73.1711 502.079 73.6271 502.834 74.3587 503.012C81.5141 504.722 88.1918 507.359 94.3921 510.921C100.524 514.446 106.206 518.886 111.434 524.239C112.64 527.001 113.925 529.766 115.299 532.538L118.29 532.406C113.477 522.857 109.72 513.334 106.741 503.914C106.232 497.072 107.016 490.23 109.097 483.394C111.209 476.461 114.656 469.514 119.435 462.56C119.868 461.927 119.723 461.049 119.113 460.605C118.502 460.157 117.655 460.305 117.22 460.937C112.282 468.126 108.712 475.335 106.513 482.552C105.263 486.649 104.457 490.747 104.095 494.845C100.019 479.646 97.7597 464.79 96.1067 450.613C97.7022 444.603 99.4837 439.519 101.452 435.358C103.408 431.219 105.535 428.027 107.828 425.786C108.373 425.258 108.399 424.369 107.882 423.807C107.369 423.244 106.508 423.219 105.965 423.751C103.424 426.233 101.101 429.695 99.0027 434.131C97.6968 436.893 96.4723 440.046 95.3258 443.592C94.9261 439.848 94.5585 436.156 94.1945 432.523L93.9119 429.695C93.9103 429.642 93.9049 429.59 93.8967 429.541C91.9611 410.272 90.0115 392.738 84.4906 377.844Z" fill="white"/>
<path fill-rule="evenodd" clip-rule="evenodd" d="M92.888 494.629C88.1697 492 82.4825 490.615 79.1855 486.255C75.2917 481.105 76.0796 473.546 72.8094 467.959C68.6958 460.921 59.7079 459.134 53.2504 454.33C46.9264 449.624 47.7903 446.729 44.4014 439.478C39.2986 428.556 24.6444 418.374 14.3983 427.328C3.99978 436.426 10.6927 447.062 16.3647 454.785C20.4072 460.289 19.789 461.603 20.873 468.414C22.1806 476.641 19.4641 486.343 24.8358 492.57C28.1587 496.419 33.6796 497.58 37.0652 501.37C40.9028 505.664 41.0469 512.086 42.4185 517.754C44.2391 525.282 47.4144 531.327 52.4395 536.215C65.9966 535.159 81.9328 534.173 99.9131 533.268C101.293 531.233 102.416 529.016 103.217 526.67C107.075 515.39 103.484 500.524 92.888 494.629Z" fill="#C5DEF8"/>
<path fill-rule="evenodd" clip-rule="evenodd" d="M23.9882 435.007C23.5951 434.587 22.9436 434.573 22.5333 434.982C22.1249 435.387 22.1134 436.059 22.5082 436.482C24.4861 438.597 26.3609 440.898 28.1696 443.352C27.7937 443.22 27.4125 443.097 27.0247 442.982C25.299 442.481 23.455 442.191 21.4952 442.111C20.9279 442.086 20.4502 442.544 20.4284 443.128C20.4083 443.716 20.8503 444.208 21.4159 444.23C23.2176 444.303 24.903 444.569 26.4694 445.023C27.9547 445.456 29.3383 446.061 30.6219 446.838C34.2902 452.274 37.7231 458.337 41.2222 464.788C39.3999 463.508 37.5794 462.445 35.7588 461.592C32.5953 460.117 29.4266 459.281 26.248 459.092C25.684 459.057 25.1959 459.505 25.1639 460.088C25.1298 460.672 25.5619 461.173 26.1292 461.208C29.0421 461.379 31.9701 462.155 34.9101 463.529C37.8365 464.897 40.7662 466.851 43.7029 469.392L44.6411 471.148C46.7036 475.001 48.8224 478.952 51.0481 482.959C51.0698 483.001 51.0904 483.036 51.1142 483.074C53.4446 487.259 55.8953 491.504 58.5354 495.755C55.1468 493.391 51.7579 491.475 48.3689 490.007C43.4018 487.853 38.4325 486.654 33.4674 486.416C32.9001 486.391 32.4191 486.843 32.392 487.43C32.3665 488.014 32.8053 488.51 33.3742 488.538C38.0978 488.766 42.8296 489.908 47.5712 491.965C52.3014 494.013 57.0418 496.975 61.7904 500.845C65.4554 506.401 69.4876 511.928 74.0333 517.317L74.035 517.32L74.0522 517.337L74.0539 517.341C76.2828 519.981 78.6386 522.585 81.1329 525.145C77.221 523.862 73.2763 523.001 69.2966 522.568C63.7503 521.96 58.1513 522.17 52.4981 523.197C51.9374 523.298 51.5652 523.851 51.6634 524.428C51.7599 525.005 52.2952 525.393 52.8555 525.291C58.3292 524.295 63.7383 524.089 69.0797 524.676C74.3636 525.256 79.5949 526.609 84.7724 528.738C86.5593 530.445 88.4152 532.12 90.3459 533.766L93.4095 533.602C86.6813 528.053 80.8416 522.134 75.6711 516.019C73.3527 511.407 71.9334 506.4 71.4236 501.006C70.9036 495.527 71.3103 489.636 72.6412 483.328C72.7632 482.755 72.4108 482.189 71.857 482.066C71.3049 481.94 70.7545 482.304 70.6341 482.873C69.2555 489.394 68.839 495.509 69.3792 501.204C69.6856 504.442 70.3006 507.543 71.2236 510.508C64.0226 501.173 58.1833 491.513 52.9619 482.139C52.3486 477.468 52.1305 473.381 52.3079 469.881C52.4825 466.399 53.0482 463.525 54.0032 461.266C54.2283 460.728 53.9934 460.102 53.4733 459.868C52.9533 459.634 52.3469 459.878 52.1202 460.417C51.0637 462.92 50.4385 466.043 50.2507 469.776C50.1337 472.098 50.1846 474.671 50.4048 477.489C49.0517 475.003 47.7339 472.545 46.4387 470.126L45.431 468.241C45.4138 468.206 45.3953 468.172 45.3752 468.14C38.497 455.309 32.109 443.695 23.9882 435.007Z" fill="white"/>
<path fill-rule="evenodd" clip-rule="evenodd" d="M620.509 481.684C625.332 475.453 632.117 470.3 634.108 462.594C636.459 453.5 631.283 443.931 632.563 434.61C634.176 422.88 645.123 415.275 651.064 405.139C656.883 395.213 654.153 391.871 654.684 380.284C655.484 362.823 669.361 340.779 687.848 346.691C706.612 352.698 703.55 370.711 700.245 384.262C697.891 393.912 699.428 395.297 701.714 404.964C704.479 416.642 713.383 427.928 709.661 439.316C707.358 446.357 700.668 451.112 698.246 458.115C695.506 466.048 698.829 474.649 700.102 482.971C702.798 500.487 698.931 515.056 686.605 529.52C685.111 530.982 683.56 532.331 681.934 533.566C664.883 532.667 645.855 531.852 625.166 531.129C624.879 530.824 624.597 530.517 624.319 530.206C613.041 517.493 609.674 495.676 620.509 481.684Z" fill="#D2DFEE"/>
<path fill-rule="evenodd" clip-rule="evenodd" d="M679.319 362.466C679.61 361.676 680.471 361.281 681.236 361.581C681.998 361.882 682.381 362.77 682.09 363.557C680.623 367.518 679.394 371.657 678.337 375.972C678.763 375.576 679.201 375.189 679.651 374.815C681.666 373.144 683.952 371.682 686.51 370.434C687.251 370.074 688.135 370.403 688.484 371.168C688.83 371.93 688.515 372.843 687.773 373.203C685.426 374.35 683.336 375.682 681.507 377.199C679.773 378.637 678.265 380.245 676.988 382.024C675.092 391.37 673.852 401.418 672.737 412.009C674.455 409.25 676.287 406.778 678.238 404.593C681.625 400.789 685.375 397.835 689.487 395.73C690.219 395.356 691.106 395.668 691.472 396.422C691.835 397.178 691.533 398.097 690.801 398.468C687.035 400.398 683.573 403.132 680.42 406.666C677.287 410.18 674.469 414.481 671.962 419.564L671.678 422.438C671.044 428.749 670.398 435.228 669.632 441.84C669.629 441.902 669.622 441.969 669.612 442.032C668.806 448.94 667.877 456 666.699 463.174C669.903 458.066 673.351 453.552 677.043 449.629C682.456 443.878 688.39 439.396 694.846 436.186C695.585 435.822 696.472 436.141 696.827 436.903C697.183 437.665 696.871 438.577 696.133 438.948C689.989 442 684.336 446.269 679.171 451.762C674.015 457.237 669.348 463.926 665.161 471.824C663.336 481.33 661.009 491.015 657.923 500.805L657.92 500.808L657.91 500.847H657.906C656.396 505.651 654.695 510.476 652.785 515.322C657.273 511.346 662.039 507.909 667.079 505.014C674.104 500.976 681.647 497.994 689.708 496.067C690.504 495.875 691.303 496.385 691.486 497.21C691.676 498.035 691.174 498.857 690.379 499.049C682.571 500.916 675.283 503.794 668.518 507.681C661.825 511.531 655.623 516.377 649.92 522.216C648.517 525.436 647.01 528.659 645.394 531.89L642.119 531.757C647.528 521.128 651.725 510.524 655.041 500.038C655.596 492.57 654.742 485.102 652.466 477.644C650.163 470.078 646.403 462.498 641.187 454.904C640.72 454.219 640.875 453.261 641.539 452.775C642.206 452.286 643.131 452.447 643.605 453.135C648.997 460.985 652.892 468.848 655.291 476.722C656.652 481.197 657.533 485.669 657.926 490.14C662.377 473.554 664.846 457.341 666.648 441.87C664.907 435.311 662.962 429.762 660.815 425.22C658.678 420.706 656.361 417.225 653.855 414.781C653.258 414.2 653.231 413.232 653.794 412.62C654.356 412.004 655.294 411.976 655.887 412.557C658.665 415.263 661.198 419.042 663.488 423.885C664.911 426.899 666.249 430.339 667.498 434.206C667.932 430.123 668.338 426.091 668.735 422.13L669.043 419.043C669.043 418.987 669.05 418.928 669.06 418.875C671.17 397.853 673.297 378.717 679.319 362.466Z" fill="white"/>
<path fill-rule="evenodd" clip-rule="evenodd" d="M670.162 489.9C675.31 487.036 681.512 485.526 685.113 480.764C689.36 475.149 688.503 466.898 692.07 460.8C696.562 453.119 706.367 451.171 713.416 445.927C720.319 440.791 719.377 437.63 723.072 429.722C728.641 417.803 744.631 406.691 755.812 416.46C767.162 426.39 759.857 437.997 753.668 446.423C749.258 452.426 749.929 453.864 748.75 461.296C747.321 470.275 750.284 480.858 744.421 487.655C740.797 491.858 734.772 493.12 731.076 497.26C726.89 501.945 726.734 508.951 725.237 515.14C723.222 523.468 719.682 530.139 714.059 535.516C699.257 534.475 682.085 533.51 662.89 532.639C661.203 530.265 659.838 527.65 658.89 524.867C654.679 512.559 658.598 496.337 670.162 489.9Z" fill="#C5DEF8"/>
<path fill-rule="evenodd" clip-rule="evenodd" d="M745.345 424.841C745.775 424.383 746.486 424.369 746.933 424.813C747.377 425.257 747.39 425.991 746.96 426.449C744.806 428.756 742.757 431.267 740.782 433.949C741.192 433.802 741.608 433.669 742.032 433.543C743.919 432.998 745.927 432.68 748.064 432.592C748.688 432.568 749.206 433.068 749.23 433.704C749.254 434.344 748.773 434.882 748.153 434.907C746.188 434.987 744.345 435.277 742.638 435.774C741.019 436.246 739.509 436.903 738.106 437.753C734.103 443.682 730.357 450.301 726.539 457.339C728.528 455.94 730.512 454.78 732.497 453.853C735.952 452.241 739.414 451.332 742.879 451.123C743.498 451.087 744.027 451.573 744.064 452.21C744.098 452.846 743.627 453.395 743.011 453.434C739.834 453.622 736.636 454.468 733.426 455.969C730.235 457.458 727.037 459.591 723.833 462.363L722.807 464.28C720.558 468.482 718.244 472.797 715.816 477.167C715.792 477.212 715.772 477.254 715.744 477.293C713.204 481.863 710.528 486.495 707.646 491.131C711.345 488.555 715.04 486.464 718.739 484.863C724.161 482.51 729.584 481.202 735.004 480.943C735.62 480.912 736.145 481.409 736.176 482.045C736.203 482.688 735.722 483.23 735.106 483.258C729.951 483.506 724.785 484.754 719.613 486.995C714.451 489.236 709.275 492.464 704.093 496.687C700.097 502.75 695.697 508.784 690.734 514.662V514.665L690.714 514.686C688.279 517.567 685.708 520.413 682.988 523.203C687.256 521.805 691.561 520.868 695.903 520.392C701.956 519.728 708.066 519.959 714.234 521.081C714.844 521.19 715.254 521.791 715.149 522.42C715.04 523.056 714.457 523.476 713.848 523.367C707.873 522.277 701.966 522.053 696.14 522.692C690.376 523.325 684.665 524.804 679.015 527.129C676.895 529.15 674.683 531.136 672.377 533.084L668.996 532.923C676.59 526.727 683.155 520.098 688.946 513.246C691.48 508.215 693.025 502.75 693.584 496.862C694.149 490.883 693.705 484.457 692.252 477.573C692.124 476.946 692.503 476.331 693.109 476.195C693.716 476.059 694.312 476.454 694.444 477.08C695.948 484.191 696.405 490.862 695.816 497.082C695.477 500.613 694.807 503.998 693.801 507.235C701.662 497.044 708.033 486.506 713.727 476.275C714.398 471.178 714.635 466.717 714.445 462.898C714.255 459.098 713.636 455.962 712.592 453.497C712.345 452.909 712.606 452.228 713.171 451.969C713.737 451.717 714.401 451.982 714.648 452.57C715.803 455.304 716.484 458.709 716.687 462.783C716.816 465.318 716.762 468.122 716.521 471.202C717.995 468.489 719.431 465.804 720.847 463.164L721.948 461.108C721.965 461.069 721.985 461.034 722.008 460.996C729.51 446.997 736.487 434.319 745.345 424.841Z" fill="white"/>
<path fill-rule="evenodd" clip-rule="evenodd" d="M359.866 107.918C358.479 127.567 355.673 130.277 337.525 131.791C355.673 133.305 358.479 136.015 359.866 155.66C361.253 136.014 364.061 133.305 382.208 131.791C364.061 130.277 361.253 127.567 359.866 107.918ZM433.639 159.737C432.897 170.229 431.397 171.676 421.71 172.484C431.397 173.292 432.897 174.739 433.639 185.228C434.377 174.739 435.874 173.292 445.565 172.484C435.875 171.677 434.377 170.229 433.639 159.737ZM401.329 79C400.581 89.6286 399.063 91.0902 389.249 91.9082C399.064 92.7299 400.581 94.1949 401.329 104.82C402.078 94.1949 403.598 92.7299 413.411 91.9082C403.599 91.0902 402.078 89.6286 401.329 79Z" fill="white"/>
<path fill-rule="evenodd" clip-rule="evenodd" d="M333.115 430.062C334.238 445.981 336.512 448.177 351.214 449.4C336.512 450.627 334.238 452.823 333.115 468.741C331.991 452.823 329.717 450.627 315.015 449.4C329.717 448.177 331.991 445.981 333.115 430.062ZM273.35 472.042C273.949 480.542 275.165 481.713 283.013 482.37C275.165 483.024 273.949 484.195 273.35 492.695C272.75 484.195 271.536 483.024 263.686 482.37C271.536 481.713 272.75 480.542 273.35 472.042ZM299.524 406.637C300.13 415.245 301.361 416.43 309.311 417.094C301.361 417.755 300.13 418.944 299.524 427.552C298.916 418.944 297.686 417.755 289.735 417.094C297.686 416.43 298.916 415.245 299.524 406.637Z" fill="white"/>
<path fill-rule="evenodd" clip-rule="evenodd" d="M567.983 390.823C567.127 403.011 565.382 404.692 554.13 405.629C565.382 406.57 567.127 408.248 567.983 420.436C568.844 408.248 570.588 406.57 581.844 405.629C570.588 404.692 568.844 403.011 567.983 390.823ZM613.744 422.964C613.287 429.471 612.355 430.37 606.346 430.87C612.355 431.373 613.287 432.268 613.744 438.778C614.204 432.268 615.133 431.373 621.145 430.87C615.133 430.37 614.204 429.471 613.744 422.964ZM593.705 372.887C593.241 379.477 592.3 380.387 586.213 380.894C592.3 381.404 593.241 382.313 593.705 388.9C594.173 382.313 595.111 381.404 601.197 380.894C595.111 380.386 594.173 379.477 593.705 372.887Z" fill="white"/>
<path fill-rule="evenodd" clip-rule="evenodd" d="M589.568 546.319H288.966C284.309 546.319 280.498 542.385 280.498 537.578V66.2291C280.498 61.4215 284.309 57.4883 288.966 57.4883H589.568C594.226 57.4883 598.036 61.4215 598.036 66.2291V537.578C598.036 542.385 594.226 546.319 589.568 546.319ZM288.968 509.981H589.568C590.953 509.981 592.088 508.814 592.088 507.384V66.2291C592.088 64.7993 590.953 63.6277 589.568 63.6277H288.968C287.583 63.6277 286.45 64.7989 286.45 66.2291V507.384C286.45 508.814 287.583 509.981 288.968 509.981Z" fill="#5388FF"/>
<path fill-rule="evenodd" clip-rule="evenodd" d="M589.567 509.983H288.967C287.582 509.983 286.448 508.815 286.448 507.385V66.2303C286.448 64.8005 287.581 63.6289 288.967 63.6289H589.567C590.952 63.6289 592.087 64.8001 592.087 66.2303V507.385C592.087 508.815 590.952 509.983 589.567 509.983Z" fill="white"/>
<path fill-rule="evenodd" clip-rule="evenodd" d="M589.567 509.983H288.967C287.582 509.983 286.448 508.815 286.448 507.385V66.2303C286.448 64.8005 287.581 63.6289 288.967 63.6289H589.567C590.952 63.6289 592.087 64.8001 592.087 66.2303V507.385C592.087 508.815 590.952 509.983 589.567 509.983Z" fill="#71AFED"/>
<path d="M589.472 66.3242H289.059V507.286H589.472V66.3242Z" fill="#EFF9FC"/>
<path d="M589.472 66.3242H289.059V89.83H589.472V66.3242Z" fill="#D2E5F7"/>
<path fill-rule="evenodd" clip-rule="evenodd" d="M342.478 74.7148C340.158 74.7148 338.28 76.6552 338.28 79.0505C338.28 81.442 340.158 83.3823 342.478 83.3823C344.795 83.3823 346.675 81.442 346.675 79.0505C346.675 76.6552 344.795 74.7148 342.478 74.7148ZM303.647 74.7148C301.328 74.7148 299.448 76.6552 299.448 79.0505C299.448 81.442 301.328 83.3823 303.647 83.3823C305.965 83.3823 307.845 81.442 307.845 79.0505C307.845 76.6552 305.965 74.7148 303.647 74.7148ZM323.063 74.7148C320.743 74.7148 318.865 76.6552 318.865 79.0505C318.865 81.442 320.743 83.3823 323.063 83.3823C325.381 83.3823 327.26 81.442 327.26 79.0505C327.26 76.6552 325.381 74.7148 323.063 74.7148Z" fill="white"/>
<path fill-rule="evenodd" clip-rule="evenodd" d="M278.231 99.5654V170.813C278.231 171.719 278.949 172.456 279.824 172.456H279.829C280.707 172.456 281.423 171.719 281.423 170.813V99.5654C281.423 98.6601 280.706 97.9219 279.829 97.9219H279.824C278.949 97.9223 278.231 98.6601 278.231 99.5654Z" fill="#61A0E0"/>
<path fill-rule="evenodd" clip-rule="evenodd" d="M278.231 176.593V247.844C278.231 248.746 278.949 249.487 279.824 249.487H279.829C280.707 249.487 281.423 248.746 281.423 247.844V176.593C281.423 175.691 280.706 174.949 279.829 174.949H279.824C278.949 174.949 278.231 175.691 278.231 176.593Z" fill="#61A0E0"/>
<path fill-rule="evenodd" clip-rule="evenodd" d="M597.656 162.006V233.258C597.656 234.16 598.367 234.902 599.248 234.902H599.252C600.129 234.902 600.844 234.161 600.844 233.258V162.006C600.844 161.104 600.129 160.363 599.252 160.363H599.248C598.367 160.363 597.656 161.104 597.656 162.006Z" fill="#61A0E0"/>
<path fill-rule="evenodd" clip-rule="evenodd" d="M209.209 413.98H238.214C239.903 413.98 241.283 415.407 241.283 417.145C241.283 418.886 239.902 420.312 238.214 420.312H209.209C207.522 420.312 206.142 418.89 206.142 417.145C206.142 415.404 207.522 413.98 209.209 413.98Z" fill="#F06A30"/>
<path fill-rule="evenodd" clip-rule="evenodd" d="M196.956 523.614C199.763 523.614 202.037 525.96 202.037 528.859C202.037 531.754 199.762 534.103 196.956 534.103C194.15 534.103 191.875 531.754 191.875 528.859C191.875 525.96 194.15 523.614 196.956 523.614ZM131.698 523.614C131.632 523.622 131.568 523.618 131.501 523.622C133.317 524.618 134.551 527.663 134.551 528.859C134.551 530.052 134.548 529.1 134.541 529.22H191.224C191.218 529.101 191.213 530.052 191.213 528.859C191.213 527.663 192.449 524.618 194.264 523.622C194.2 523.618 194.134 523.622 194.068 523.614L166.28 520.027L167.613 459.286H191.378C193.786 459.286 195.758 457.251 195.758 454.765V453.695C190.954 453.916 186.803 454.052 173.72 454.105C161.297 454.157 150.017 454.132 130.104 454.035V454.766C130.104 457.251 132.073 459.286 134.483 459.286H158.152L159.483 519.779L131.698 523.614ZM128.811 523.614C131.615 523.614 133.891 525.96 133.891 528.859C133.891 531.754 131.615 534.103 128.811 534.103C126.005 534.103 123.729 531.754 123.729 528.859C123.729 525.96 126.005 523.614 128.811 523.614Z" fill="#87644E"/>
<path fill-rule="evenodd" clip-rule="evenodd" d="M135.003 349.461H184.473C195.838 349.461 205.138 359.059 205.138 370.789V447.711H117.311V367.719C117.311 357.677 125.271 349.461 135.003 349.461Z" fill="#FC9774"/>
<path fill-rule="evenodd" clip-rule="evenodd" d="M117.312 447.71V367.718C117.312 359.921 122.11 353.225 128.808 350.621C119.551 351.174 112.146 359.162 112.146 368.851V456.447H227.422C233.104 456.447 233.063 447.71 227.463 447.71L117.312 447.71Z" fill="#F06A30"/>
<path fill-rule="evenodd" clip-rule="evenodd" d="M124.321 413.98H156.357C158.046 413.98 159.425 415.404 159.425 417.145C159.425 418.889 158.046 420.312 156.357 420.312H124.321C122.632 420.312 121.252 418.89 121.252 417.145C121.252 415.404 122.632 413.98 124.321 413.98Z" fill="#F06A30"/>
<path fill-rule="evenodd" clip-rule="evenodd" d="M134.436 420.309L127.059 447.709H123.875L131.252 420.309H134.436Z" fill="#F57A44"/>
<path fill-rule="evenodd" clip-rule="evenodd" d="M216.296 420.309L208.919 447.709H205.735L213.114 420.309H216.296Z" fill="#F06A30"/>
<path fill-rule="evenodd" clip-rule="evenodd" d="M129.005 464.037C125.4 462.39 122.231 462.474 118.326 462.051C116.131 463.76 118.421 465.463 120.394 465.841C125.379 466.795 127.874 467.274 127.874 467.274L131.684 465.536C141.219 465.246 149.225 464.064 158.692 462.764C159.186 462.701 159.533 462.232 159.469 461.722C159.405 461.212 158.952 460.851 158.458 460.918C150.431 462.019 144.4 462.855 140.362 463.421C138.572 463.67 130.121 463.877 129.005 464.037Z" fill="#87644E"/>
<path fill-rule="evenodd" clip-rule="evenodd" d="M155.645 529.832C155.227 531.951 153.411 533.549 151.233 533.549C149.057 533.549 147.239 531.951 146.821 529.832H155.645Z" fill="#87644E"/>
<path fill-rule="evenodd" clip-rule="evenodd" d="M178.943 529.832C178.527 531.951 176.709 533.549 174.533 533.549C172.355 533.549 170.539 531.951 170.121 529.832H178.943Z" fill="#87644E"/>
<path fill-rule="evenodd" clip-rule="evenodd" d="M160.418 347.273C166.741 347.273 171.867 349.846 171.867 353.014C171.867 356.182 166.741 358.755 160.418 358.755C154.098 358.755 148.972 356.182 148.972 353.014C148.972 349.847 154.098 347.273 160.418 347.273Z" fill="#FEFEFE"/>
<path fill-rule="evenodd" clip-rule="evenodd" d="M184.396 426.158L166.206 427.413C157.021 422.788 145.962 415.368 134.363 405.848C134.051 401.562 133.664 398.146 133.205 395.597C134.135 393.691 135.154 391.657 136.265 389.489C125.56 389.419 119.031 387.042 116.681 382.36C119.545 373.71 123.546 364.878 128.688 355.865C132.285 350.372 139.394 347.774 149.884 346.812C154.146 360.525 174.944 359.343 167.55 347.459C175.378 349.627 182.011 353.634 187.446 359.483C192.123 371.374 194.974 379.674 196.002 384.38C190.923 388.051 187.763 389.981 183.221 391.065C181.183 401.209 182.9 406.771 184.396 426.158Z" fill="#A4D0FC"/>
<path fill-rule="evenodd" clip-rule="evenodd" d="M131.314 434.25C132.576 430.278 133.484 426.152 134.036 421.883C142.56 425.288 152.307 428.575 164.63 433.599L162.967 440.144C144.344 440.77 133.793 438.806 131.314 434.25Z" fill="#699DEE"/>
<path fill-rule="evenodd" clip-rule="evenodd" d="M164.63 433.596C152.307 428.571 142.559 425.285 134.036 421.879C126.527 418.877 119.964 415.779 113.428 411.317C113.7 402.703 114.943 394.364 118.398 384.703C121.57 387.836 127.524 389.43 136.265 389.486C133.736 394.423 131.673 398.678 130.079 402.254C143.227 413.505 155.898 422.218 166.205 427.41L164.63 433.596Z" fill="#FFB27D"/>
<path fill-rule="evenodd" clip-rule="evenodd" d="M194.362 385.527C195.311 388.953 196.19 392.118 197.001 395.023H181.081C181.2 393.712 181.362 392.541 181.57 391.509C185.622 390.544 189.886 388.551 194.362 385.527Z" fill="#FFB27D"/>
<path fill-rule="evenodd" clip-rule="evenodd" d="M136.265 389.49C137.668 386.864 139.157 383.333 140.725 378.896C139.884 384.064 139.926 387.784 138.564 392.032C139.664 398.042 140.119 404.168 140.007 410.349C138.144 408.909 136.259 407.405 134.363 405.85C134.051 401.567 133.665 398.147 133.204 395.598C134.134 393.692 135.154 391.658 136.265 389.49ZM184.844 390.525C183.737 390.926 182.646 391.256 181.571 391.51C181.979 384.937 182.246 379.504 182.373 375.207C183.599 381.55 184.423 386.654 184.844 390.525ZM131.314 434.25C132.576 430.278 133.484 426.152 134.036 421.883C135.616 422.512 137.235 423.142 138.906 423.774C138.237 428.449 137.279 433.131 136.063 437.784C133.678 436.865 132.095 435.687 131.314 434.25Z" fill="#61A0E0"/>
<path fill-rule="evenodd" clip-rule="evenodd" d="M172.443 335.286C160.387 339.793 152.652 340.23 149.238 336.59C145.77 335.758 143.507 332.583 142.458 327.07C138.867 318.665 141.939 305.242 146.986 311.892C151.159 300.865 167.912 307.259 177.357 301.145C183.091 305.011 180.91 314.57 176.789 317.801C176.952 328.797 176.368 334.671 172.443 335.286Z" fill="#284191"/>
<path fill-rule="evenodd" clip-rule="evenodd" d="M144.26 313.092C145.564 312.054 145.983 310.921 145.52 309.693C143.519 308.532 141.617 308.494 139.811 309.578C140.909 309.644 142.391 310.816 144.26 313.092Z" fill="#284191"/>
<path fill-rule="evenodd" clip-rule="evenodd" d="M153.125 314.802C150.852 313.875 149.133 314.186 147.968 315.731C148.059 319.245 149.827 326.315 152.539 327.864C153.01 327.521 152.902 320.085 153.125 314.802Z" fill="#284191"/>
<path fill-rule="evenodd" clip-rule="evenodd" d="M153.974 311.406C150.133 313.333 148.866 315.067 150.172 316.612C155.968 317.493 161.516 316.85 166.818 314.675C163.624 314.983 159.343 313.896 153.974 311.406Z" fill="#284191"/>
<path fill-rule="evenodd" clip-rule="evenodd" d="M176.515 317.339C172.168 312.808 163.964 312.259 152.661 316.52C145.508 314.689 143.901 311.279 146.922 305.727C151.191 297.885 160.43 304.088 171.746 296.707C171.314 302.441 188.16 307.353 176.515 317.339Z" fill="#284191"/>
<path fill-rule="evenodd" clip-rule="evenodd" d="M149.332 321.192C152.329 320.532 152.047 326.891 151.821 330.041C151.376 336.24 144.608 322.227 149.332 321.192Z" fill="#FFB27D"/>
<path fill-rule="evenodd" clip-rule="evenodd" d="M145.733 347.252C147.394 347.374 150.103 346.784 150.567 346.175C152.335 343.86 153.558 341.444 154.013 339.92C153.668 338.906 153.305 337.63 152.931 336.081C146.53 331.592 145.656 328.274 150.305 326.12C151.243 326.662 152.406 328.333 153.797 331.134C154.906 331.088 155.746 330.501 156.318 329.375C154.997 324.652 154.139 320.816 153.739 317.866C156.894 313.027 164.268 312.338 174.037 313.642C174.489 316.327 174.862 319.166 175.151 322.169C176.367 323.323 179.905 342.661 167.904 343.448C167.824 344.864 167.952 346.598 168.041 346.794C168.18 347.102 168.675 347.395 169.359 347.647H169.36C169.548 354.234 161.612 354.272 145.733 347.252Z" fill="#FFB27D"/>
<path fill-rule="evenodd" clip-rule="evenodd" d="M174.036 313.643C164.269 312.339 156.892 313.028 153.738 317.867C154.138 320.814 154.997 324.653 156.318 329.377C155.747 330.502 154.906 331.09 153.796 331.135C152.405 328.335 151.242 326.663 150.304 326.121C145.653 328.275 146.529 331.593 152.929 336.082C153.305 337.631 153.667 338.911 154.011 339.921C148.253 338.589 143.435 333.275 142.757 330.974C136.039 317.307 143.531 311.535 147.54 309.43C149.31 295.9 168.347 307.86 177.887 301.336C181.677 306.741 176.991 313.521 174.036 313.643Z" fill="#284191"/>
<path fill-rule="evenodd" clip-rule="evenodd" d="M161.484 342.055C163.046 342.852 165.185 343.314 167.903 343.446C167.85 344.394 167.889 345.488 167.948 346.166C165.215 345.621 163.061 344.254 161.484 342.055Z" fill="#F08261"/>
<path fill-rule="evenodd" clip-rule="evenodd" d="M172.641 310.309C174.115 311.48 174.589 312.759 174.065 314.151C171.804 315.462 169.654 315.504 167.614 314.277C168.854 314.204 170.529 312.882 172.641 310.309Z" fill="#284191"/>
<path fill-rule="evenodd" clip-rule="evenodd" d="M144.846 347.333C153.22 351.281 160.242 353.501 164.213 353.396C165.527 353.361 166.626 353.105 167.505 352.637C168.445 352.134 169.131 351.396 169.56 350.424C169.927 349.592 170.1 348.921 170.073 347.77L168.396 347.176C168.418 348.057 168.254 349.106 167.996 349.686C167.732 350.284 167.305 350.746 166.716 351.057C166.069 351.406 165.219 351.595 164.172 351.62C160.46 351.718 155.957 350.641 147.826 346.809L144.846 347.333Z" fill="#61A0E0"/>
<path fill-rule="evenodd" clip-rule="evenodd" d="M168.664 355.728C169.131 355.805 169.573 355.476 169.646 354.994C169.721 354.507 169.403 354.053 168.933 353.977C167.289 353.707 165.558 353.596 163.744 353.637C161.93 353.679 160.032 353.875 158.059 354.225C157.59 354.309 157.275 354.77 157.355 355.253C157.434 355.735 157.88 356.06 158.349 355.98C160.252 355.641 162.063 355.452 163.779 355.414C165.494 355.372 167.125 355.476 168.664 355.728Z" fill="#61A0E0"/>
<path fill-rule="evenodd" clip-rule="evenodd" d="M167.271 357.685C167.735 357.786 168.194 357.479 168.292 357C168.39 356.521 168.094 356.049 167.628 355.944C166.378 355.671 165.055 355.556 163.672 355.598C162.295 355.643 160.857 355.843 159.36 356.2C158.898 356.308 158.608 356.787 158.713 357.266C158.818 357.741 159.282 358.042 159.742 357.934C161.136 357.602 162.464 357.413 163.719 357.375C164.964 357.336 166.151 357.44 167.271 357.685Z" fill="#61A0E0"/>
<path fill-rule="evenodd" clip-rule="evenodd" d="M161.95 319.654C161.161 319.619 160.492 320.251 160.458 321.066C160.423 321.884 161.034 322.573 161.825 322.612C162.616 322.647 163.283 322.014 163.319 321.199C163.354 320.381 162.742 319.692 161.95 319.654Z" fill="#BBDBFA"/>
<path fill-rule="evenodd" clip-rule="evenodd" d="M161.823 322.612C161.032 322.577 160.419 321.884 160.455 321.066C160.488 320.251 161.157 319.619 161.948 319.654C162.28 319.667 162.582 319.8 162.815 320.007L162.705 319.986C162.449 319.975 162.233 320.182 162.221 320.444C162.211 320.709 162.409 320.933 162.666 320.947C162.92 320.958 163.139 320.752 163.149 320.486V320.433C163.267 320.66 163.33 320.919 163.318 321.199C163.284 322.014 162.614 322.647 161.823 322.612Z" fill="#125AA3"/>
<path fill-rule="evenodd" clip-rule="evenodd" d="M163.462 318.585C163.496 318.613 163.523 318.63 163.552 318.662C163.506 318.529 163.344 318.358 163.278 318.253C163.342 318.302 163.381 318.32 163.449 318.4C163.505 318.474 163.544 318.55 163.588 318.638C163.591 318.536 163.549 318.47 163.537 318.379C163.588 318.446 163.628 318.578 163.639 318.662C163.618 318.365 163.608 318.386 163.485 318.11C163.61 318.187 163.712 318.452 163.739 318.603C163.766 318.54 163.763 318.452 163.759 318.368C163.815 318.466 163.817 318.515 163.82 318.616L163.891 318.504C163.881 318.574 163.862 318.592 163.855 318.648C163.992 318.529 164.223 318.134 164.185 317.938C164.165 318.022 164.116 318.183 164.074 318.231C164.084 318.092 164.124 317.931 164.092 317.77C164.059 317.875 164.077 318.015 164.053 318.13C164.031 318.245 163.994 318.379 163.945 318.452C163.975 318.211 164.031 318.012 163.952 317.753L163.946 317.816C163.95 317.942 163.964 318.078 163.943 318.2C163.901 317.98 163.911 317.77 163.723 317.613C163.767 317.704 163.811 317.756 163.848 317.865C163.747 317.767 163.699 317.581 163.538 317.571C163.613 317.651 163.682 317.704 163.762 317.819C163.823 317.91 163.916 318.064 163.887 318.183C163.762 317.781 163.527 317.581 163.254 317.522C163.328 317.557 163.566 317.714 163.591 317.812V317.833C163.579 317.942 163.571 317.736 163.586 317.854C163.64 317.893 163.706 317.98 163.743 318.046C163.767 318.085 163.791 318.137 163.808 318.186C163.816 318.207 163.828 318.253 163.833 318.274C163.835 318.298 163.833 318.295 163.833 318.316L163.83 318.344C163.74 318.074 163.643 317.931 163.456 317.788C163.342 317.7 163.078 317.553 162.929 317.543C162.932 317.547 162.938 317.547 162.941 317.547L163.066 317.603C163.371 317.746 163.669 317.918 163.781 318.302C163.764 318.284 163.779 318.302 163.754 318.27C163.745 318.26 163.745 318.257 163.739 318.246C163.667 318.137 163.594 318.022 163.503 317.931C163.402 317.833 163.278 317.742 163.175 317.686C163.036 317.617 162.595 317.473 162.377 317.512C162.443 317.505 162.856 317.61 162.926 317.634C163.08 317.69 163.28 317.767 163.4 317.918C163.335 317.904 163.267 317.862 163.207 317.834C162.82 317.684 162.151 317.459 161.76 317.505C162.004 317.544 162.356 317.635 162.546 317.732L162.394 317.708C162.436 317.725 162.471 317.75 162.519 317.768C162.563 317.785 162.597 317.799 162.641 317.823C162.851 317.932 163.173 318.124 163.297 318.344C163.241 318.295 163.168 318.246 163.102 318.194C163.031 318.141 162.972 318.1 162.897 318.05C162.763 317.967 162.614 317.868 162.467 317.806C162.157 317.673 161.864 317.565 161.522 317.509C161.567 317.526 161.616 317.54 161.657 317.586C161.381 317.589 160.919 317.386 160.226 317.394C160.377 317.439 160.624 317.442 160.793 317.488L160.951 317.541C160.859 317.548 160.557 317.485 160.438 317.467C159.841 317.387 159.471 317.327 158.828 317.369C158.418 317.397 158.036 317.422 157.635 317.625C157.376 317.757 157.133 317.912 156.925 318.108C156.849 318.181 156.814 318.23 156.754 318.296C156.915 318.201 157.261 317.806 157.62 317.705C157.079 318.076 156.651 318.401 156.285 318.873C156.387 318.796 156.529 318.642 156.641 318.541C156.768 318.429 156.895 318.324 157.028 318.219C157.267 318.037 157.655 317.779 157.967 317.68C157.899 317.743 157.706 317.855 157.613 317.918C156.945 318.365 156.307 318.869 155.73 319.428C155.661 319.498 155.527 319.663 155.474 319.701C155.539 319.67 155.782 319.45 155.863 319.38C156.294 319.037 156.702 318.722 157.239 318.526C157.103 318.652 156.136 319.121 155.842 319.436L156.668 318.942C156.919 318.803 157.346 318.582 157.627 318.526C157.305 318.61 156.077 319.278 155.837 319.516C155.967 319.46 156.155 319.338 156.296 319.26C156.462 319.173 156.626 319.093 156.797 319.016C157.142 318.862 157.513 318.725 157.884 318.652C158.385 318.551 158.866 318.53 159.359 318.554C159.5 318.558 159.693 318.582 159.825 318.576C159.742 318.53 159.5 318.527 159.41 318.52C159.126 318.492 158.84 318.488 158.55 318.499C158.435 318.506 158.203 318.547 158.108 318.541C158.447 318.429 158.716 318.446 159.008 318.39C158.98 318.39 158.996 318.394 158.97 318.387C158.941 318.38 158.957 318.384 158.935 318.37C159.116 318.341 159.47 318.387 159.639 318.422C159.843 318.457 160.251 318.597 160.271 318.6C160.22 318.562 160.173 318.544 160.132 318.506L160.625 318.597L160.016 318.401C160.136 318.411 160.3 318.464 160.417 318.492C160.563 318.52 160.859 318.576 160.992 318.618C161.152 318.674 161.441 318.695 161.602 318.688C161.546 318.656 161.347 318.61 161.26 318.586L160.932 318.489C160.869 318.468 160.818 318.457 160.764 318.433C160.61 318.359 160.449 318.31 160.29 318.254C160.002 318.157 159.172 317.954 158.879 318.058C159.255 317.908 160.06 318.114 160.344 318.212L161.008 318.45C161.068 318.464 161.113 318.488 161.172 318.51C161.331 318.566 161.499 318.628 161.667 318.667L161.655 318.632L161.653 318.624C161.651 318.624 161.651 318.621 161.65 318.617C161.65 318.617 161.648 318.614 161.65 318.61C161.707 318.645 161.88 318.701 161.958 318.708C161.793 318.561 161.395 318.464 161.25 318.275C161.387 318.309 161.553 318.421 161.68 318.498C161.726 318.526 161.771 318.54 161.814 318.565C161.699 318.379 161.479 318.229 161.304 318.113L161.108 318.005C161.267 318.008 161.464 318.155 161.591 318.257C161.716 318.358 161.826 318.484 161.936 318.606C161.948 318.62 161.946 318.616 161.96 318.631C161.982 318.652 161.972 318.641 161.992 318.648L161.831 318.396C161.86 318.446 162.071 318.645 162.086 318.715C162.054 318.578 161.963 318.477 161.904 318.372L162 318.438C161.839 318.183 161.47 318.019 161.24 317.868C161.462 317.879 161.876 318.175 162.034 318.379C162.109 318.473 162.163 318.596 162.234 318.672L162.151 318.473C162.156 318.476 162.16 318.476 162.163 318.48L162.277 318.602C162.18 318.351 162.048 318.218 161.892 318.067C161.96 318.077 162.011 318.119 162.065 318.168C162.114 318.211 162.164 318.267 162.209 318.322C162.298 318.441 162.378 318.571 162.443 318.721C162.45 318.658 162.402 318.546 162.375 318.472C162.419 318.482 162.382 318.469 162.424 318.493C162.493 318.535 162.544 318.637 162.588 318.7L162.553 318.546L162.665 318.696C162.634 318.556 162.585 318.479 162.548 318.36C162.633 318.416 162.677 318.521 162.724 318.63C162.734 318.581 162.711 318.504 162.69 318.444L162.812 318.559C162.844 318.602 162.877 318.65 162.907 318.689C162.866 318.552 162.804 318.486 162.743 318.384C162.871 318.462 162.922 318.58 163.02 318.713C162.986 318.556 162.863 318.328 162.773 318.237C162.91 318.251 163.015 318.619 163.085 318.692L163.073 318.531C163.085 318.542 163.078 318.535 163.098 318.559L163.19 318.713L163.169 318.507C163.225 318.559 163.237 318.629 163.281 318.706C163.276 318.699 163.272 318.535 163.238 318.444C163.267 318.454 163.244 318.44 163.279 318.468C163.34 318.524 163.369 318.612 163.426 318.668L163.357 318.51C163.379 318.518 163.366 318.51 163.389 318.524L163.462 318.585Z" fill="#125AA3"/>
<path fill-rule="evenodd" clip-rule="evenodd" d="M171.778 318.728C172.568 318.763 173.181 319.455 173.146 320.27C173.112 321.084 172.443 321.717 171.652 321.682C170.862 321.647 170.25 320.955 170.286 320.14C170.319 319.322 170.989 318.693 171.778 318.728Z" fill="#BBDBFA"/>
<path fill-rule="evenodd" clip-rule="evenodd" d="M171.654 321.683C172.444 321.721 173.114 321.085 173.149 320.27C173.183 319.456 172.572 318.763 171.779 318.729C171.449 318.711 171.139 318.812 170.888 318.998L170.998 318.987C171.254 319.001 171.454 319.225 171.442 319.491C171.431 319.753 171.214 319.96 170.958 319.949C170.703 319.935 170.503 319.711 170.515 319.449L170.519 319.393C170.382 319.61 170.298 319.865 170.286 320.141C170.25 320.956 170.863 321.648 171.654 321.683Z" fill="#125AA3"/>
<path fill-rule="evenodd" clip-rule="evenodd" d="M169.066 318.43C169.039 318.458 169.017 318.483 168.994 318.518C169.022 318.381 169.155 318.192 169.202 318.081C169.15 318.137 169.116 318.158 169.065 318.245C169.019 318.323 168.992 318.403 168.958 318.497C168.948 318.396 168.979 318.326 168.982 318.235C168.943 318.305 168.919 318.445 168.916 318.525C168.909 318.228 168.919 318.246 169.006 317.959C168.903 318.05 168.833 318.326 168.823 318.48C168.792 318.417 168.789 318.333 168.784 318.249C168.743 318.35 168.745 318.399 168.751 318.501L168.679 318.396C168.692 318.466 168.711 318.483 168.721 318.536C168.589 318.431 168.35 318.067 168.367 317.865C168.393 317.948 168.45 318.102 168.491 318.147C168.471 318.008 168.421 317.854 168.435 317.689C168.476 317.791 168.47 317.934 168.499 318.046C168.532 318.155 168.576 318.284 168.624 318.35C168.577 318.116 168.509 317.921 168.558 317.655L168.57 317.717C168.577 317.843 168.575 317.979 168.606 318.098C168.624 317.875 168.597 317.668 168.753 317.493C168.719 317.588 168.685 317.647 168.661 317.756C168.743 317.647 168.77 317.458 168.912 317.43C168.853 317.518 168.795 317.577 168.734 317.7C168.687 317.798 168.615 317.962 168.654 318.077C168.731 317.664 168.924 317.437 169.163 317.35C169.096 317.392 168.9 317.577 168.886 317.675L168.888 317.696C168.907 317.801 168.898 317.595 168.893 317.717C168.85 317.763 168.799 317.857 168.77 317.927C168.753 317.969 168.736 318.021 168.724 318.074C168.719 318.095 168.711 318.137 168.711 318.161C168.709 318.186 168.711 318.183 168.712 318.203L168.718 318.228C168.775 317.952 168.85 317.798 169.004 317.637C169.098 317.536 169.322 317.361 169.453 317.333C169.451 317.337 169.446 317.34 169.444 317.34L169.335 317.41C169.077 317.585 168.824 317.788 168.758 318.179C168.771 318.165 168.76 318.186 168.78 318.147C168.785 318.137 168.787 318.137 168.792 318.123C168.845 318.008 168.9 317.885 168.975 317.784C169.058 317.675 169.159 317.57 169.248 317.508C169.365 317.42 169.747 317.228 169.944 317.242C169.883 317.242 169.524 317.389 169.464 317.424C169.331 317.497 169.16 317.599 169.066 317.759C169.122 317.739 169.178 317.686 169.231 317.655C169.563 317.459 170.14 317.165 170.492 317.165C170.279 317.232 169.971 317.361 169.812 317.48L169.945 317.438C169.908 317.462 169.879 317.49 169.839 317.511C169.801 317.536 169.771 317.553 169.736 317.581C169.556 317.714 169.287 317.938 169.194 318.172C169.239 318.116 169.302 318.06 169.356 318.001C169.414 317.941 169.465 317.892 169.526 317.836C169.639 317.739 169.763 317.623 169.888 317.543C170.154 317.378 170.408 317.238 170.708 317.144C170.667 317.165 170.625 317.186 170.592 317.235C170.838 317.207 171.235 316.955 171.852 316.886C171.722 316.948 171.502 316.98 171.354 317.039L171.217 317.109C171.3 317.106 171.563 317.011 171.67 316.983C172.196 316.833 172.521 316.735 173.097 316.707C173.465 316.69 173.808 316.669 174.185 316.826C174.429 316.927 174.657 317.057 174.859 317.228C174.932 317.291 174.969 317.337 175.026 317.396C174.876 317.319 174.534 316.966 174.205 316.907C174.718 317.215 175.128 317.491 175.494 317.917C175.397 317.854 175.257 317.714 175.15 317.627C175.026 317.529 174.903 317.441 174.774 317.354C174.547 317.197 174.179 316.983 173.894 316.921C173.96 316.977 174.139 317.067 174.229 317.117C174.862 317.487 175.475 317.917 176.037 318.41C176.105 318.47 176.239 318.62 176.288 318.655C176.228 318.627 175.991 318.434 175.914 318.375C175.5 318.082 175.109 317.816 174.613 317.683C174.747 317.788 175.649 318.148 175.939 318.431L175.158 318.029C174.925 317.921 174.525 317.746 174.268 317.725C174.562 317.774 175.714 318.298 175.949 318.508C175.827 318.47 175.65 318.365 175.518 318.306C175.362 318.236 175.211 318.18 175.052 318.12C174.728 318.005 174.386 317.91 174.05 317.879C173.594 317.83 173.164 317.865 172.727 317.942C172.6 317.963 172.431 318.008 172.312 318.016C172.381 317.963 172.598 317.932 172.676 317.914C172.929 317.858 173.184 317.82 173.442 317.802C173.545 317.795 173.758 317.809 173.84 317.788C173.528 317.718 173.291 317.767 173.025 317.743C173.051 317.739 173.037 317.743 173.059 317.733C173.083 317.722 173.071 317.726 173.09 317.712C172.925 317.704 172.614 317.792 172.465 317.841C172.289 317.901 171.935 318.082 171.916 318.089C171.958 318.047 171.999 318.023 172.031 317.981L171.601 318.124L172.128 317.866C172.023 317.887 171.88 317.96 171.777 317.999C171.65 318.041 171.391 318.132 171.274 318.191C171.137 318.261 170.882 318.313 170.737 318.327C170.785 318.289 170.958 318.222 171.032 318.187L171.318 318.054C171.373 318.023 171.418 318.009 171.463 317.977C171.594 317.89 171.734 317.823 171.872 317.75C172.12 317.62 172.845 317.324 173.114 317.397C172.765 317.288 172.064 317.583 171.818 317.712L171.248 318.022C171.195 318.044 171.158 318.075 171.105 318.099C170.97 318.173 170.824 318.257 170.678 318.313L170.685 318.274C170.687 318.274 170.688 318.271 170.688 318.267V318.264C170.688 318.256 170.69 318.256 170.69 318.256C170.639 318.295 170.49 318.372 170.42 318.382C170.554 318.222 170.901 318.078 171.015 317.876C170.896 317.928 170.758 318.058 170.651 318.145C170.612 318.18 170.573 318.197 170.537 318.229C170.624 318.029 170.809 317.858 170.954 317.722L171.12 317.592C170.978 317.614 170.815 317.781 170.71 317.897C170.607 318.012 170.519 318.148 170.433 318.281C170.423 318.295 170.424 318.295 170.414 318.309C170.394 318.334 170.404 318.319 170.387 318.33L170.509 318.06C170.487 318.116 170.314 318.334 170.308 318.404C170.325 318.267 170.397 318.159 170.441 318.047L170.36 318.12C170.484 317.851 170.797 317.645 170.992 317.474C170.795 317.508 170.448 317.848 170.326 318.065C170.267 318.169 170.228 318.295 170.173 318.383L170.228 318.173C170.226 318.177 170.221 318.18 170.219 318.18L170.13 318.317C170.194 318.054 170.299 317.911 170.426 317.743C170.367 317.76 170.324 317.809 170.28 317.862C170.239 317.91 170.197 317.97 170.165 318.03C170.095 318.159 170.036 318.295 169.99 318.453C169.98 318.39 170.011 318.274 170.029 318.201C169.99 318.215 170.024 318.194 169.989 318.225C169.929 318.274 169.894 318.383 169.858 318.449L169.877 318.292L169.791 318.453C169.806 318.309 169.842 318.229 169.867 318.107C169.794 318.173 169.764 318.281 169.731 318.393C169.718 318.345 169.733 318.267 169.747 318.205L169.646 318.337C169.621 318.38 169.598 318.432 169.574 318.474C169.598 318.334 169.65 318.261 169.694 318.152C169.585 318.243 169.55 318.369 169.474 318.509C169.492 318.348 169.582 318.111 169.655 318.012C169.533 318.04 169.472 318.418 169.414 318.495L169.413 318.337C169.403 318.348 169.408 318.341 169.391 318.362L169.323 318.53V318.324C169.279 318.383 169.274 318.45 169.242 318.533C169.246 318.523 169.233 318.362 169.257 318.267C169.232 318.281 169.252 318.264 169.223 318.295C169.172 318.358 169.156 318.449 169.108 318.509L169.157 318.344C169.139 318.355 169.149 318.348 169.13 318.362L169.066 318.43Z" fill="#125AA3"/>
<path d="M167.856 329.689C167.777 329.689 167.699 329.654 167.651 329.584C167.577 329.469 167.592 329.322 167.699 329.242C167.848 329.123 168.066 329.102 168.346 329.074C169.113 328.993 169.704 328.857 169.747 327.902C169.731 327.378 167.733 322.161 167.305 321.773C167.201 321.679 167.191 321.518 167.281 321.413C167.372 321.308 167.531 321.301 167.63 321.388C168.171 321.878 170.265 327.364 170.241 327.923C170.176 329.398 169.018 329.517 168.395 329.58C168.247 329.597 168.046 329.619 167.995 329.65C167.953 329.675 167.905 329.689 167.856 329.689Z" fill="#FC9774"/>
<path fill-rule="evenodd" clip-rule="evenodd" d="M172.2 332.797C169.197 334.178 170.176 334.336 166.521 334.108C165.243 334.031 163.588 334.23 165.151 334.731C168.303 335.745 171.985 334.976 172.352 332.913L172.2 332.797Z" fill="#FC9774"/>
<path d="M375.078 425.156H136.025V440.76H375.078V425.156Z" fill="#61A0E0"/>
<path d="M136.026 425.156H70.8361V440.76H136.026V425.156Z" fill="#4F8ECC"/>
<path fill-rule="evenodd" clip-rule="evenodd" d="M356.2 550.007H146.431V440.762H370.921L356.2 550.007Z" fill="#407BFF"/>
<path fill-rule="evenodd" clip-rule="evenodd" d="M85.9557 550.007H146.431V440.762H77.2373L85.9557 550.007Z" fill="#203D7F"/>
<path fill-rule="evenodd" clip-rule="evenodd" d="M251.571 371.539H184.826C183.512 371.539 182.152 372.647 181.806 374.007L169.932 420.687C169.587 422.043 170.379 423.155 171.696 423.155H238.44C239.756 423.155 241.114 422.043 241.46 420.687L253.335 374.007C253.681 372.647 252.887 371.539 251.571 371.539Z" fill="#D2E5F7"/>
<path fill-rule="evenodd" clip-rule="evenodd" d="M172.317 404.573L180.38 372.883C180.726 371.526 182.084 370.418 183.398 370.418H188.006H250.145C251.459 370.418 253.803 372.17 253.414 373.516C253.476 372.39 252.723 371.54 251.571 371.54H184.826C183.512 371.54 182.153 372.649 181.806 374.009L169.932 420.688C169.724 421.503 169.928 422.227 170.407 422.677C169.307 421.943 168.259 420.53 168.505 419.565L172.317 404.573Z" fill="#61A0E0"/>
<path fill-rule="evenodd" clip-rule="evenodd" d="M171.696 423.155H238.441C238.686 423.155 238.932 423.116 239.174 423.043C237.845 426.599 234.235 426.074 232.826 426.06H153.694C149.404 425.871 149.515 422.77 149.46 419.777H168.471C168.411 420.725 169.386 421.994 170.407 422.676C170.726 422.976 171.169 423.155 171.696 423.155Z" fill="#4F8ECC"/>
<path fill-rule="evenodd" clip-rule="evenodd" d="M181.037 390.734C188.194 394.468 196.657 395.615 205.36 396.077C205.263 396.398 205.187 396.731 205.135 397.07C204.556 400.853 207.141 404.076 210.876 404.076C214.395 404.076 217.585 401.202 218.134 397.626C218.192 397.238 218.219 396.856 218.214 396.482C227.249 396.734 235.978 397.245 243.197 400.16L238.234 419.677H173.675L181.037 390.734Z" fill="#A4D0FC"/>
<path fill-rule="evenodd" clip-rule="evenodd" d="M212.321 392.875C209.928 392.875 207.684 394.879 207.303 397.347C206.925 399.819 208.558 401.819 210.951 401.819C213.342 401.819 215.588 399.819 215.967 397.347C216.347 394.879 214.714 392.875 212.321 392.875Z" fill="#A4D0FC"/>
<path fill-rule="evenodd" clip-rule="evenodd" d="M439.538 181.504C454.079 181.504 465.938 169.263 465.938 154.254C465.938 139.244 454.08 127 439.538 127C424.997 127 413.139 139.244 413.139 154.254C413.139 169.263 424.997 181.504 439.538 181.504Z" fill="#407BFF"/>
<path fill-rule="evenodd" clip-rule="evenodd" d="M439.538 444.641C454.079 444.641 465.938 432.397 465.938 417.39C465.938 402.377 454.08 390.137 439.538 390.137C424.997 390.137 413.139 402.377 413.139 417.39C413.139 432.397 424.997 444.641 439.538 444.641Z" fill="#407BFF"/>
<path d="M439.532 207.332L409.394 238.441L439.532 269.551L469.67 238.441L439.532 207.332Z" fill="#FC9774"/>
<path fill-rule="evenodd" clip-rule="evenodd" d="M323.009 301.289H364.142C368.609 301.289 372.266 305.062 372.266 309.673V323.043C372.266 327.655 368.609 331.427 364.142 331.427H323.009C318.539 331.427 314.885 327.655 314.885 323.043V309.673C314.885 305.062 318.539 301.289 323.009 301.289Z" fill="#FC9774"/>
<path fill-rule="evenodd" clip-rule="evenodd" d="M418.971 301.289H460.104C464.572 301.289 468.227 305.062 468.227 309.673V323.043C468.227 327.655 464.572 331.427 460.104 331.427H418.971C414.5 331.427 410.849 327.655 410.849 323.043V309.673C410.849 305.062 414.501 301.289 418.971 301.289Z" fill="#FC9774"/>
<path fill-rule="evenodd" clip-rule="evenodd" d="M514.932 301.289H556.065C560.533 301.289 564.191 305.062 564.191 309.673V323.043C564.191 327.655 560.533 331.427 556.065 331.427H514.932C510.465 331.427 506.807 327.655 506.807 323.043V309.673C506.807 305.062 510.465 301.289 514.932 301.289Z" fill="#FC9774"/>
<path fill-rule="evenodd" clip-rule="evenodd" d="M343.576 224.078H416.986V226.057H343.576V296.089H341.655V226.057C341.655 224.963 342.516 224.078 343.576 224.078ZM460.911 224.078H535.498C536.559 224.078 537.419 224.963 537.419 226.057V296.089H535.498V226.057H460.911V224.078ZM537.419 336.624V362.259C537.419 363.354 536.559 364.238 535.498 364.238H343.576C342.516 364.238 341.655 363.354 341.655 362.259V336.624H343.576V362.259H535.498V336.624H537.419Z" fill="#1E77D1"/>
<path fill-rule="evenodd" clip-rule="evenodd" d="M440.738 188.914V202.413H438.34V188.914H440.738ZM440.738 274.158V295.65H438.34V274.158H440.738ZM440.738 362.261V387.023H438.34V362.261H440.738Z" fill="#1E77D1"/>
<path fill-rule="evenodd" clip-rule="evenodd" d="M439.863 388.682L441.662 385.465L443.596 382.008C443.857 381.539 443.711 381.686 443.149 381.686H439.548H435.68C435.155 381.686 435.352 381.742 435.636 382.245L437.435 385.465L439.369 388.923C439.629 389.391 439.579 389.185 439.863 388.682Z" fill="#1E77D1"/>
<path fill-rule="evenodd" clip-rule="evenodd" d="M439.863 298.908L441.662 295.692L443.596 292.234C443.857 291.766 443.711 291.912 443.149 291.912H439.548H435.68C435.155 291.912 435.352 291.968 435.636 292.475L437.435 295.692L439.369 299.146C439.629 299.615 439.579 299.412 439.863 298.908Z" fill="#1E77D1"/>
<path fill-rule="evenodd" clip-rule="evenodd" d="M439.863 205.471L441.662 202.255L443.596 198.793C443.857 198.328 443.711 198.475 443.149 198.475H439.548H435.68C435.155 198.475 435.352 198.535 435.636 199.038L437.435 202.255L439.369 205.713C439.629 206.178 439.579 205.975 439.863 205.471Z" fill="#1E77D1"/>
<path fill-rule="evenodd" clip-rule="evenodd" d="M536.68 297.369L538.478 294.153L540.412 290.695C540.677 290.226 540.528 290.373 539.965 290.373H536.368H532.496C531.975 290.373 532.171 290.429 532.452 290.936L534.255 294.153L536.185 297.607C536.45 298.076 536.399 297.873 536.68 297.369Z" fill="#1E77D1"/>
<path fill-rule="evenodd" clip-rule="evenodd" d="M342.795 297.369L344.593 294.153L346.527 290.695C346.79 290.226 346.644 290.373 346.08 290.373H342.481H338.613C338.09 290.373 338.286 290.429 338.568 290.936L340.368 294.153L342.302 297.607C342.563 298.076 342.512 297.873 342.795 297.369Z" fill="#1E77D1"/>
<path fill-rule="evenodd" clip-rule="evenodd" d="M522.339 545.578L711.974 545.869C715.765 545.876 718.84 542.708 718.846 538.795L719.036 406.771C719.043 402.859 715.974 399.684 712.187 399.677L522.549 399.387C518.762 399.383 515.684 402.547 515.68 406.46L515.487 538.484C515.484 542.397 518.549 545.571 522.339 545.578Z" fill="#61A0E0"/>
<path fill-rule="evenodd" clip-rule="evenodd" d="M524.785 543.758L714.417 544.052C718.211 544.056 721.286 540.891 721.293 536.979L721.482 404.955C721.486 401.042 718.42 397.868 714.63 397.861L524.995 397.57C521.205 397.563 518.126 400.731 518.123 404.64L517.93 536.668C517.927 540.577 520.992 543.751 524.785 543.758Z" fill="#407BFF"/>
<path fill-rule="evenodd" clip-rule="evenodd" d="M531.206 536.024L708.014 536.297C711.468 536.3 714.276 533.412 714.28 529.842L714.449 412.065C714.456 408.496 711.658 405.597 708.2 405.593L531.396 405.324C527.941 405.317 525.133 408.205 525.13 411.771L524.96 529.552C524.953 533.122 527.751 536.017 531.206 536.024Z" fill="#FEFEFE"/>
<path fill-rule="evenodd" clip-rule="evenodd" d="M525.131 412.26L525.124 415.606L714.677 415.893L714.681 412.551C714.688 408.642 712.076 405.464 707.602 405.457L532.23 405.188C527.512 405.18 525.138 407.624 525.131 412.26Z" fill="#BBDBFA"/>
<path fill-rule="evenodd" clip-rule="evenodd" d="M547.459 410.423C547.459 411.514 548.312 412.395 549.366 412.399C550.419 412.399 551.28 411.521 551.28 410.43C551.28 409.339 550.426 408.455 549.372 408.451C548.316 408.451 547.459 409.332 547.459 410.423ZM533.734 410.402C533.731 411.493 534.588 412.374 535.641 412.377C536.695 412.381 537.555 411.496 537.555 410.409C537.555 409.318 536.701 408.434 535.645 408.43C534.591 408.43 533.734 409.311 533.734 410.402ZM540.596 410.413C540.593 411.503 541.45 412.388 542.504 412.388C543.557 412.388 544.417 411.507 544.417 410.416C544.417 409.329 543.564 408.445 542.507 408.445C541.454 408.441 540.596 409.322 540.596 410.413Z" fill="white"/>
<path fill-rule="evenodd" clip-rule="evenodd" d="M545.454 432.306L549.22 428.715L550.019 427.953L550.785 428.75L554.396 432.516L552.797 434.159L551.117 432.408V515.794H687.282L685.504 513.976L687.096 512.326L690.74 516.053L691.516 516.843L690.777 517.668L687.299 521.556L685.639 519.979L687.292 518.13H549.985H548.854V516.962V432.236L546.98 434.022L545.454 432.306ZM688.123 516.651V517.2L688.38 516.913L688.123 516.651Z" fill="#A4D0FC"/>
<path d="M579.046 516.497C578.67 516.497 578.366 516.182 578.366 515.794V512.979C578.366 512.591 578.67 512.277 579.046 512.277C579.423 512.277 579.727 512.591 579.727 512.979V515.794C579.727 516.182 579.423 516.497 579.046 516.497ZM579.046 509.462C578.67 509.462 578.366 509.147 578.366 508.759V505.948C578.366 505.56 578.67 505.245 579.046 505.245C579.423 505.245 579.727 505.56 579.727 505.948V508.759C579.727 509.147 579.423 509.462 579.046 509.462ZM579.046 502.431C578.67 502.431 578.366 502.116 578.366 501.728V498.913C578.366 498.526 578.67 498.211 579.046 498.211C579.423 498.211 579.727 498.526 579.727 498.913V501.728C579.727 502.116 579.423 502.431 579.046 502.431ZM579.046 495.396C578.67 495.396 578.366 495.082 578.366 494.694V491.882C578.366 491.494 578.67 491.18 579.046 491.18C579.423 491.18 579.727 491.494 579.727 491.882V494.694C579.727 495.082 579.423 495.396 579.046 495.396ZM579.046 488.365C578.67 488.365 578.366 488.05 578.366 487.662V486.05C578.366 485.662 578.67 485.348 579.046 485.348C579.423 485.348 579.727 485.662 579.727 486.05V487.662C579.727 488.05 579.423 488.365 579.046 488.365Z" fill="#A4D0FC"/>
<path d="M608.988 515.563C608.981 515.563 608.981 515.563 608.975 515.563C608.602 515.556 608.297 515.237 608.304 514.85L608.345 512.035C608.352 511.65 608.656 511.342 609.029 511.342H609.036C609.415 511.35 609.713 511.668 609.706 512.056L609.666 514.871C609.662 515.255 609.36 515.563 608.988 515.563ZM609.09 508.532C609.083 508.532 609.083 508.532 609.076 508.532C608.704 508.525 608.399 508.207 608.405 507.818L608.446 505.004C608.453 504.616 608.751 504.315 609.137 504.312C609.517 504.318 609.815 504.637 609.808 505.025L609.767 507.84C609.763 508.224 609.462 508.532 609.09 508.532ZM609.191 501.497C609.184 501.497 609.184 501.497 609.178 501.497C608.805 501.49 608.501 501.172 608.507 500.784L608.551 497.973C608.554 497.584 608.907 497.211 609.242 497.28C609.618 497.288 609.919 497.606 609.913 497.994L609.869 500.805C609.865 501.19 609.56 501.497 609.191 501.497ZM609.293 494.466C609.289 494.466 609.286 494.466 609.283 494.466C608.907 494.459 608.605 494.141 608.612 493.753L608.653 490.938C608.656 490.553 608.961 490.246 609.334 490.246C609.337 490.246 609.34 490.246 609.344 490.246C609.719 490.253 610.021 490.571 610.014 490.959L609.974 493.774C609.97 494.158 609.665 494.466 609.293 494.466ZM609.395 487.435C609.391 487.435 609.388 487.435 609.384 487.435C609.008 487.428 608.707 487.11 608.713 486.721L608.755 483.907C608.758 483.523 609.063 483.215 609.435 483.215C609.438 483.215 609.442 483.215 609.445 483.215C609.821 483.222 610.122 483.54 610.116 483.928L610.075 486.743C610.071 487.127 609.767 487.435 609.395 487.435ZM609.496 480.4C609.492 480.4 609.489 480.4 609.486 480.4C609.11 480.393 608.809 480.075 608.815 479.687L608.856 476.876C608.86 476.491 609.165 476.184 609.537 476.184C609.54 476.184 609.544 476.184 609.547 476.184C609.923 476.191 610.224 476.509 610.217 476.897L610.177 479.708C610.173 480.093 609.869 480.4 609.496 480.4ZM609.597 473.369C609.594 473.369 609.59 473.369 609.588 473.369C609.212 473.362 608.91 473.044 608.917 472.656L608.957 469.845C608.961 469.46 609.266 469.152 609.639 469.152C609.642 469.152 609.645 469.152 609.648 469.152C610.024 469.16 610.326 469.478 610.319 469.866L610.278 472.677C610.275 473.061 609.97 473.369 609.597 473.369ZM609.699 466.338H609.692C609.313 466.331 609.015 466.013 609.022 465.625L609.062 462.81C609.066 462.426 609.367 462.118 609.74 462.118C609.747 462.118 609.747 462.118 609.753 462.118C610.125 462.125 610.43 462.443 610.424 462.831L610.383 465.646C610.376 466.03 610.072 466.338 609.699 466.338ZM609.801 459.304H609.794C609.414 459.296 609.116 458.978 609.123 458.59L609.164 455.779C609.167 455.391 609.503 455.028 609.855 455.087C610.228 455.094 610.532 455.412 610.526 455.8L610.485 458.611C610.478 458.996 610.173 459.304 609.801 459.304ZM609.902 452.272H609.895C609.516 452.265 609.218 451.947 609.225 451.559L609.266 448.748C609.269 448.36 609.503 448.042 609.956 448.055C610.329 448.063 610.634 448.381 610.627 448.769L610.587 451.58C610.58 451.965 610.275 452.272 609.902 452.272ZM610.004 445.242C610.004 445.242 609.997 445.242 609.994 445.242C609.618 445.234 609.32 444.916 609.327 444.525V444.325C609.334 443.945 609.639 443.637 610.011 443.637C610.011 443.637 610.018 443.637 610.021 443.637C610.397 443.644 610.695 443.962 610.688 444.353V444.553C610.682 444.934 610.376 445.242 610.004 445.242Z" fill="#A4D0FC"/>
<path d="M638.91 516.5C638.537 516.5 638.232 516.185 638.232 515.797V512.982C638.232 512.594 638.537 512.28 638.91 512.28C639.289 512.28 639.593 512.594 639.593 512.982V515.797C639.593 516.185 639.289 516.5 638.91 516.5ZM638.91 509.465C638.537 509.465 638.232 509.151 638.232 508.763V505.951C638.232 505.563 638.537 505.249 638.91 505.249C639.289 505.249 639.593 505.563 639.593 505.951V508.763C639.593 509.151 639.289 509.465 638.91 509.465ZM638.91 502.434C638.537 502.434 638.232 502.119 638.232 501.731V498.917C638.232 498.529 638.537 498.214 638.91 498.214C639.289 498.214 639.593 498.529 639.593 498.917V501.731C639.593 502.119 639.289 502.434 638.91 502.434ZM638.91 495.399C638.537 495.399 638.232 495.085 638.232 494.697V491.886C638.232 491.498 638.537 491.183 638.91 491.183C639.289 491.183 639.593 491.498 639.593 491.886V494.697C639.593 495.085 639.289 495.399 638.91 495.399ZM638.91 488.368C638.537 488.368 638.232 488.054 638.232 487.666V484.851C638.232 484.463 638.537 484.148 638.91 484.148C639.289 484.148 639.593 484.463 639.593 484.851V487.666C639.593 488.054 639.289 488.368 638.91 488.368ZM638.91 481.334C638.537 481.334 638.232 481.019 638.232 480.631V477.82C638.232 477.432 638.537 477.117 638.91 477.117C639.289 477.117 639.593 477.432 639.593 477.82V480.631C639.593 481.019 639.289 481.334 638.91 481.334Z" fill="#A4D0FC"/>
<path d="M668.846 516.497C668.466 516.497 668.162 516.183 668.162 515.795V512.98C668.162 512.592 668.466 512.278 668.846 512.278C669.219 512.278 669.523 512.592 669.523 512.98V515.795C669.524 516.183 669.219 516.497 668.846 516.497ZM668.846 509.463C668.466 509.463 668.162 509.148 668.162 508.76V505.949C668.162 505.561 668.466 505.246 668.846 505.246C669.219 505.246 669.523 505.561 669.523 505.949V508.76C669.524 509.148 669.219 509.463 668.846 509.463ZM668.846 502.432C668.466 502.432 668.162 502.117 668.162 501.729V498.914C668.162 498.526 668.466 498.212 668.846 498.212C669.219 498.212 669.523 498.526 669.523 498.914V501.729C669.524 502.117 669.219 502.432 668.846 502.432ZM668.846 495.397C668.466 495.397 668.162 495.083 668.162 494.695V491.883C668.162 491.495 668.466 491.181 668.846 491.181C669.219 491.181 669.523 491.495 669.523 491.883V494.695C669.524 495.083 669.219 495.397 668.846 495.397ZM668.846 488.366C668.466 488.366 668.162 488.051 668.162 487.663V484.849C668.162 484.461 668.466 484.146 668.846 484.146C669.219 484.146 669.523 484.461 669.523 484.849V487.663C669.524 488.051 669.219 488.366 668.846 488.366ZM668.846 481.331C668.466 481.331 668.162 481.017 668.162 480.629V477.818C668.162 477.43 668.466 477.115 668.846 477.115C669.219 477.115 669.523 477.43 669.523 477.818V480.629C669.524 481.017 669.219 481.331 668.846 481.331ZM668.846 474.3C668.466 474.3 668.162 473.986 668.162 473.598V470.783C668.162 470.395 668.466 470.08 668.846 470.08C669.219 470.08 669.523 470.395 669.523 470.783V473.598C669.524 473.986 669.219 474.3 668.846 474.3ZM668.846 467.266C668.466 467.266 668.162 466.951 668.162 466.563V463.752C668.162 463.364 668.466 463.05 668.846 463.05C669.219 463.05 669.523 463.364 669.523 463.752V466.563C669.524 466.951 669.219 467.266 668.846 467.266ZM668.846 460.235C668.466 460.235 668.162 459.92 668.162 459.532V456.718C668.162 456.33 668.466 456.015 668.846 456.015C669.219 456.015 669.523 456.33 669.523 456.718V459.532C669.524 459.92 669.219 460.235 668.846 460.235ZM668.846 453.2C668.466 453.2 668.162 452.886 668.162 452.498V449.683C668.162 449.295 668.466 448.98 668.846 448.98C669.219 448.98 669.523 449.295 669.523 449.683V452.498C669.524 452.886 669.219 453.2 668.846 453.2Z" fill="#A4D0FC"/>
<path d="M552.146 487.777C551.489 487.777 550.948 487.228 550.944 486.547C550.941 485.862 551.472 485.302 552.136 485.295L578.457 485.075L609.89 443.405L638.904 473.324L667.986 442.864C668.457 442.371 669.219 442.371 669.687 442.85C670.161 443.332 670.168 444.115 669.7 444.605L638.918 476.848L610.114 447.147L579.636 487.543L552.157 487.777C552.153 487.777 552.15 487.777 552.146 487.777Z" fill="#1E77D1"/>
<path fill-rule="evenodd" clip-rule="evenodd" d="M628.288 420.492H708.352C709.145 420.492 709.795 421.164 709.795 421.982C709.795 422.8 709.145 423.471 708.352 423.471H628.288C627.492 423.471 626.845 422.8 626.845 421.982C626.845 421.164 627.492 420.492 628.288 420.492Z" fill="#8BBAE9"/>
<path fill-rule="evenodd" clip-rule="evenodd" d="M628.288 427.008H708.352C709.145 427.008 709.795 427.676 709.795 428.494V428.497C709.795 429.316 709.145 429.987 708.352 429.987H628.288C627.492 429.987 626.845 429.316 626.845 428.497V428.494C626.845 427.676 627.492 427.008 628.288 427.008Z" fill="#8BBAE9"/>
<path fill-rule="evenodd" clip-rule="evenodd" d="M673.906 438.085L672.886 442.735L671.789 447.738C671.64 448.413 671.63 448.147 671.094 447.637L667.7 444.399L664.056 440.917C663.561 440.449 663.795 440.567 664.486 440.347L668.9 438.934L673.645 437.414C674.285 437.207 674.068 437.354 673.906 438.085Z" fill="#1E77D1"/>
<path d="M530.295 455.65L518.332 469.328L523.596 474.234L535.56 460.556L530.295 455.65Z" fill="#FBBFA8"/>
<path fill-rule="evenodd" clip-rule="evenodd" d="M616.299 363.725C591.508 340.618 553.265 342.628 530.876 368.218C510.675 391.315 510.295 425.722 528.637 449.196L528.325 449.553C527.058 451.001 527.17 453.252 528.573 454.56L537.674 463.042C539.076 464.35 541.26 464.234 542.527 462.79L542.839 462.434C567.328 478.88 600.447 474.996 620.648 451.902C643.037 426.309 641.089 386.836 616.299 363.725ZM610.639 370.193C631.968 390.077 633.648 424.044 614.385 446.06C595.122 468.076 562.22 469.807 540.888 449.923C519.559 430.043 517.883 396.077 537.142 374.06C556.405 352.044 589.31 350.313 610.639 370.193Z" fill="#FC9774"/>
<path fill-rule="evenodd" clip-rule="evenodd" d="M529.243 467.838L523.976 462.929C523.166 462.174 521.903 462.237 521.172 463.077L510.262 475.548L510.245 475.565L486.681 502.504L486.674 502.508L480.146 509.969L456.575 536.912C455.844 537.751 455.912 539.052 456.721 539.806L461.984 544.715C462.794 545.47 464.061 545.404 464.792 544.568L475.706 532.093L475.719 532.076L499.286 505.137L505.817 497.676V497.672L529.384 470.733C530.117 469.894 530.052 468.593 529.243 467.838Z" fill="#F57A44"/>
<g opacity="0.4">
<path fill-rule="evenodd" clip-rule="evenodd" d="M537.141 374.058C517.882 396.075 519.558 430.041 540.887 449.921C562.216 469.805 595.122 468.075 614.384 446.058C633.647 424.042 631.967 390.071 610.638 370.192C589.309 350.312 556.407 352.042 537.141 374.058Z" fill="#DFEDFA"/>
</g>
<g opacity="0.4">
<path fill-rule="evenodd" clip-rule="evenodd" d="M600.495 457.339L605.569 366.019C604.282 365.092 602.971 364.232 601.63 363.438L596.295 459.43C597.721 458.801 599.12 458.105 600.495 457.339ZM574.621 463.762L580.575 356.572C572.351 355.789 564.002 357.026 556.273 360.243L550.888 457.252C558.298 461.423 566.451 463.58 574.621 463.762ZM592.62 460.888C589.667 461.93 586.638 462.688 583.573 463.168L589.405 358.212C592.383 359.044 595.306 360.156 598.138 361.547L592.62 460.888Z" fill="#FEFEFE"/>
</g>
<path fill-rule="evenodd" clip-rule="evenodd" d="M230.475 96.769C230.917 96.7724 231.271 97.1468 231.269 97.6009C231.266 98.0588 230.903 98.4227 230.463 98.4188L126.832 97.5449C126.39 97.5377 126.035 97.1671 126.038 96.713C126.041 96.2546 126.404 95.8878 126.844 95.8946L230.475 96.769ZM262.192 180.089C262.386 180.499 262.224 180.995 261.828 181.198C261.431 181.397 260.95 181.229 260.756 180.82L232.092 120.774L126.409 119.9C125.967 119.9 125.611 119.526 125.614 119.072C125.618 118.614 125.979 118.25 126.42 118.25L232.554 119.131C232.864 119.117 233.167 119.285 233.311 119.589L262.192 180.089ZM230.475 111.677C230.917 111.681 231.271 112.051 231.269 112.509C231.266 112.964 230.903 113.328 230.463 113.328L126.832 112.45C126.39 112.446 126.035 112.072 126.038 111.618C126.041 111.163 126.404 110.796 126.844 110.8L230.475 111.677ZM230.475 104.223C230.917 104.227 231.271 104.601 231.269 105.055C231.266 105.51 230.903 105.877 230.463 105.873L126.832 104.996C126.39 104.992 126.035 104.622 126.038 104.164C126.041 103.709 126.404 103.342 126.844 103.346L230.475 104.223Z" fill="#61A0E0"/>
<path fill-rule="evenodd" clip-rule="evenodd" d="M56.1321 182.742H318.041C321.447 182.742 324.236 185.62 324.236 189.137V253.592C324.236 257.105 321.445 259.987 318.041 259.987H56.1321C52.7263 259.987 49.9371 257.109 49.9371 253.592V189.137C49.9371 185.62 52.7247 182.742 56.1321 182.742Z" fill="white"/>
<path fill-rule="evenodd" clip-rule="evenodd" d="M56.1318 182.336H73.4483C73.284 182.577 73.2076 182.854 73.213 183.147H56.1318C52.9409 183.147 50.33 185.843 50.33 189.136V202.908C50.0876 202.744 49.8321 202.681 49.5441 202.684V189.136C49.5441 185.395 52.5059 182.336 56.1318 182.336ZM50.33 217.037V253.591C50.33 256.885 52.9413 259.58 56.1318 259.58H99.3194C99.3514 259.8 99.4007 260.013 99.4615 260.219L99.245 260.391H56.1318C52.5059 260.391 49.5437 257.331 49.5437 253.59V217.04C49.798 217.121 50.0757 217.121 50.33 217.037ZM297.146 259.58H318.041C321.232 259.58 323.845 256.885 323.845 253.591V205.073C324.152 205.031 324.424 204.88 324.628 204.66V253.591C324.628 257.332 321.666 260.392 318.041 260.392H297.69C297.611 260.055 297.415 259.769 297.146 259.58ZM323.784 188.287C323.379 185.392 320.951 183.147 318.041 183.147H94.3842C94.4927 182.892 94.5198 182.609 94.4688 182.336H318.041C321.38 182.336 324.156 184.934 324.573 188.269C324.329 188.269 324.021 188.248 323.784 188.287Z" fill="#1E77D1"/>
<path fill-rule="evenodd" clip-rule="evenodd" d="M116.34 189.547C129.385 193.753 138.853 206.319 138.853 221.171V221.328L117.607 222.51C117.655 222.073 117.684 221.626 117.684 221.171C117.684 217.203 115.697 213.717 112.696 211.706L116.34 189.547Z" fill="#FC9774"/>
<path fill-rule="evenodd" clip-rule="evenodd" d="M126.379 247.587C133.319 242.05 138.003 233.637 138.753 224.078L117.012 225.288C116.42 226.931 115.467 228.396 114.251 229.574L126.379 247.587Z" fill="#407BFF"/>
<path fill-rule="evenodd" clip-rule="evenodd" d="M84.9913 245.701C90.7139 251.159 98.3618 254.494 106.764 254.494C113.048 254.494 118.91 252.627 123.86 249.407L111.741 231.408C110.249 232.198 108.557 232.642 106.764 232.642C104.286 232.642 102.001 231.789 100.169 230.355L84.9913 245.701Z" fill="#407BFF"/>
<path fill-rule="evenodd" clip-rule="evenodd" d="M79.8811 203.266C76.587 208.468 74.6699 214.685 74.6699 221.366C74.6699 229.845 77.759 237.578 82.8379 243.442L98.0056 228.104C96.6455 226.223 95.8412 223.891 95.8412 221.366C95.8412 219.485 96.2848 217.713 97.0756 216.15L79.8811 203.266Z" fill="#407BFF"/>
<path fill-rule="evenodd" clip-rule="evenodd" d="M110.175 210.646L113.73 189.018C111.488 188.504 109.158 188.234 106.765 188.234C96.6135 188.234 87.5648 193.101 81.6828 200.695L98.8658 213.576C100.856 211.426 103.66 210.086 106.765 210.086C107.955 210.086 109.101 210.282 110.175 210.646Z" fill="#407BFF"/>
<path fill-rule="evenodd" clip-rule="evenodd" d="M196.663 189.547C209.71 193.753 219.177 206.319 219.177 221.171V221.328L197.929 222.51C197.979 222.073 198.006 221.626 198.006 221.171C198.006 217.203 196.019 213.717 193.02 211.706L196.663 189.547Z" fill="#407BFF"/>
<path fill-rule="evenodd" clip-rule="evenodd" d="M206.703 247.587C213.645 242.05 218.327 233.637 219.078 224.078L197.337 225.288C196.745 226.931 195.793 228.396 194.575 229.574L206.703 247.587Z" fill="#407BFF"/>
<path fill-rule="evenodd" clip-rule="evenodd" d="M165.317 245.701C171.038 251.159 178.686 254.494 187.09 254.494C193.373 254.494 199.236 252.627 204.187 249.407L192.067 231.408C190.574 232.198 188.884 232.642 187.09 232.642C184.612 232.642 182.328 231.789 180.495 230.355L165.317 245.701Z" fill="#407BFF"/>
<path fill-rule="evenodd" clip-rule="evenodd" d="M160.205 203.266C156.911 208.468 154.994 214.685 154.994 221.366C154.994 229.845 158.083 237.578 163.162 243.442L178.329 228.104C176.968 226.223 176.163 223.891 176.163 221.366C176.163 219.485 176.608 217.713 177.398 216.15L160.205 203.266Z" fill="#FC9774"/>
<path fill-rule="evenodd" clip-rule="evenodd" d="M190.5 210.646L194.055 189.018C191.813 188.504 189.483 188.234 187.09 188.234C176.938 188.234 167.89 193.101 162.008 200.695L179.191 213.576C181.179 211.426 183.984 210.086 187.09 210.086C188.281 210.086 189.427 210.282 190.5 210.646Z" fill="#407BFF"/>
<path fill-rule="evenodd" clip-rule="evenodd" d="M276.99 189.547C290.035 193.753 299.502 206.319 299.502 221.171V221.328L278.257 222.51C278.306 222.073 278.333 221.626 278.333 221.171C278.333 217.203 276.346 213.717 273.345 211.706L276.99 189.547Z" fill="#407BFF"/>
<path fill-rule="evenodd" clip-rule="evenodd" d="M287.027 247.587C293.97 242.05 298.653 233.637 299.403 224.078L277.662 225.288C277.071 226.931 276.117 228.396 274.901 229.574L287.027 247.587Z" fill="#407BFF"/>
<path fill-rule="evenodd" clip-rule="evenodd" d="M245.642 245.701C251.363 251.159 259.011 254.494 267.415 254.494C273.7 254.494 279.561 252.627 284.511 249.407L272.394 231.408C270.9 232.198 269.208 232.642 267.415 232.642C264.937 232.642 262.652 231.789 260.822 230.355L245.642 245.701Z" fill="#407BFF"/>
<path fill-rule="evenodd" clip-rule="evenodd" d="M240.53 203.266C237.236 208.468 235.32 214.685 235.32 221.366C235.32 229.845 238.408 237.578 243.487 243.442L258.655 228.104C257.294 226.223 256.488 223.891 256.488 221.366C256.488 219.485 256.935 217.713 257.725 216.15L240.53 203.266Z" fill="#407BFF"/>
<path fill-rule="evenodd" clip-rule="evenodd" d="M270.824 210.646L274.379 189.018C272.138 188.504 269.807 188.234 267.414 188.234C257.262 188.234 248.215 193.101 242.332 200.695L259.515 213.576C261.505 211.426 264.308 210.086 267.414 210.086C268.604 210.086 269.752 210.282 270.824 210.646Z" fill="#FC9774"/>
<path fill-rule="evenodd" clip-rule="evenodd" d="M632.555 245.771L627.887 248.572C626.312 249.519 625.774 251.621 626.692 253.243L627.722 255.075C628.937 257.229 628.406 258.208 628.03 258.554C626.99 259.516 626.028 260.558 625.059 261.596C624.775 261.9 623.874 262.942 621.503 261.519L619.874 260.543C618.299 259.599 616.267 260.152 615.348 261.777L612.636 266.595C611.718 268.221 612.256 270.322 613.831 271.266L615.443 272.235C617.669 273.57 617.611 274.256 617.33 275.228C616.944 276.567 616.527 277.902 616.246 279.287C615.992 280.521 616.104 281.402 613.076 281.402H611.226C609.401 281.402 607.914 282.933 607.914 284.818V290.391C607.914 292.275 609.401 293.807 611.226 293.807H613.076C616.104 293.807 615.992 294.688 616.246 295.922C616.527 297.306 616.944 298.646 617.33 299.981C617.611 300.953 617.669 301.638 615.443 302.974L613.831 303.942C612.256 304.887 611.717 306.988 612.636 308.614L615.348 313.432C616.266 315.057 618.299 315.61 619.874 314.666L621.503 313.69C623.874 312.267 624.775 313.309 625.059 313.613C626.028 314.651 626.99 315.693 628.03 316.651C628.406 317.001 628.937 317.976 627.722 320.134L626.692 321.966C625.774 323.588 626.312 325.689 627.887 326.637L632.555 329.437C634.13 330.382 636.165 329.825 637.083 328.203L638.106 326.378C639.342 324.189 640.558 324.273 641.07 324.441C642.557 324.93 643.932 325.248 645.469 325.661C646.032 325.812 646.99 326.231 646.99 328.843V330.797C646.99 332.678 648.477 334.217 650.3 334.217H655.699C657.524 334.217 659.011 332.678 659.011 330.797V328.843C659.011 326.231 659.973 325.812 660.536 325.661C662.07 325.248 663.445 324.93 664.932 324.441C665.447 324.273 666.659 324.189 667.892 326.378L668.922 328.203C669.837 329.825 671.875 330.382 673.447 329.437L678.115 326.637C679.69 325.689 680.228 323.588 679.314 321.966L678.284 320.134C677.068 317.976 677.596 317.001 677.972 316.651C679.012 315.693 679.977 314.651 680.94 313.613C681.224 313.309 682.129 312.267 684.503 313.69L686.129 314.666C687.704 315.61 689.739 315.057 690.654 313.432L693.371 308.614C694.285 306.988 693.746 304.887 692.171 303.942L690.559 302.974C688.337 301.639 688.392 300.953 688.676 299.981C689.062 298.646 689.475 297.306 689.76 295.922C690.01 294.688 689.899 293.807 692.923 293.807H694.78C696.602 293.807 698.092 292.275 698.092 290.391V284.818C698.092 282.934 696.601 281.402 694.78 281.402H692.923C689.899 281.402 690.01 280.521 689.76 279.287C689.476 277.902 689.062 276.567 688.676 275.228C688.392 274.256 688.337 273.57 690.559 272.235L692.171 271.266C693.746 270.322 694.285 268.221 693.371 266.595L690.654 261.777C689.739 260.152 687.704 259.599 686.129 260.543L684.503 261.519C682.129 262.942 681.224 261.9 680.94 261.596C679.977 260.557 679.013 259.515 677.972 258.554C677.596 258.208 677.068 257.229 678.284 255.075L679.314 253.243C680.228 251.621 679.69 249.519 678.115 248.572L673.447 245.771C671.876 244.824 669.837 245.383 668.922 247.006L667.892 248.831C666.659 251.02 665.447 250.936 664.932 250.768C663.445 250.278 662.07 249.96 660.536 249.547C659.973 249.397 659.011 248.977 659.011 246.366V244.412C659.011 242.531 657.524 240.992 655.699 240.992H650.3C648.477 240.992 646.99 242.531 646.99 244.412V246.366C646.99 248.978 646.032 249.397 645.469 249.547C643.932 249.96 642.557 250.278 641.07 250.768C640.558 250.936 639.342 251.02 638.106 248.831L637.083 247.006C636.165 245.383 634.13 244.824 632.555 245.771ZM653.002 280.245C656.938 280.245 660.132 283.539 660.132 287.605C660.132 291.667 656.938 294.965 653.002 294.965C649.063 294.965 645.869 291.668 645.869 287.605C645.869 283.539 649.063 280.245 653.002 280.245ZM630.648 287.605C630.648 286.735 631.332 286.032 632.175 286.032C633.019 286.032 633.703 286.735 633.703 287.605C633.703 293.108 635.864 298.087 639.353 301.692C642.848 305.297 647.671 307.528 653.003 307.528C653.843 307.528 654.527 308.234 654.527 309.101C654.527 309.972 653.843 310.678 653.003 310.678C646.832 310.678 641.243 308.094 637.198 303.919C633.154 299.744 630.648 293.975 630.648 287.605ZM675.059 283.889C675.188 284.745 674.626 285.549 673.796 285.685C672.966 285.822 672.187 285.238 672.055 284.381C671.401 280.207 669.484 276.466 666.724 273.588C663.959 270.707 660.352 268.69 656.315 267.973C655.485 267.827 654.926 267.015 655.069 266.159C655.211 265.302 655.996 264.725 656.826 264.872C661.504 265.704 665.684 268.04 668.881 271.375C672.079 274.707 674.297 279.046 675.059 283.889ZM653.002 260.267C667.628 260.267 679.487 272.508 679.487 287.605C679.487 302.702 667.628 314.942 653.002 314.942C638.377 314.942 626.515 302.702 626.515 287.605C626.515 272.507 638.377 260.267 653.002 260.267Z" fill="#A4D0FC"/>
<path fill-rule="evenodd" clip-rule="evenodd" d="M218.208 5.2797L213.539 8.08377C211.966 9.02765 211.427 11.1291 212.342 12.7548L213.373 14.5798C214.587 16.7407 214.059 17.7159 213.681 18.0619C212.642 19.0236 211.68 20.0654 210.713 21.1039C210.43 21.4079 209.527 22.4497 207.154 21.0267L205.525 20.0514C203.952 19.1037 201.916 19.6635 201.002 21.2858L198.285 26.1035C197.37 27.7293 197.909 29.8307 199.483 30.7746L201.097 31.7431C203.322 33.0787 203.264 33.764 202.981 34.7397C202.595 36.0753 202.179 37.4106 201.896 38.795C201.643 40.026 201.757 40.9067 198.73 40.9067H196.874C195.052 40.9067 193.565 42.445 193.565 44.326V49.8994C193.565 51.7804 195.052 53.3187 196.874 53.3187H198.73C201.757 53.3187 201.643 54.1964 201.896 55.4304C202.179 56.8148 202.595 58.1505 202.981 59.4895C203.264 60.4648 203.322 61.1504 201.097 62.4823L199.483 63.4508C197.909 64.3947 197.371 66.4961 198.285 68.1218L201.002 72.9396C201.916 74.5653 203.952 75.1212 205.525 74.1773L207.154 73.1983C209.527 71.7752 210.43 72.8175 210.713 73.1215C211.68 74.1599 212.642 75.2018 213.681 76.163C214.059 76.5129 214.587 77.4847 213.373 79.6456L212.342 81.4706C211.427 83.0963 211.966 85.1977 213.539 86.1416L218.208 88.9457C219.781 89.8896 221.817 89.3371 222.733 87.708L223.761 85.8863C224.994 83.6941 226.209 83.7815 226.722 83.9494C228.211 84.4387 229.585 84.7568 231.122 85.1693C231.684 85.3194 232.644 85.7426 232.644 88.3512V90.3055C232.644 92.1899 234.131 93.7215 235.953 93.7215H241.354C243.178 93.7215 244.663 92.1903 244.663 90.3055V88.3512C244.663 85.743 245.624 85.3199 246.186 85.1693C247.721 84.7568 249.097 84.4387 250.585 83.9494C251.099 83.7815 252.313 83.6941 253.546 85.8863L254.574 87.708C255.49 89.3371 257.526 89.8896 259.099 88.9457L263.768 86.1416C265.342 85.1977 265.88 83.0963 264.965 81.4706L263.934 79.6456C262.718 77.4847 263.248 76.5129 263.626 76.163C264.665 75.2013 265.627 74.1595 266.594 73.1215C266.879 72.8175 267.78 71.7752 270.153 73.1983L271.782 74.1773C273.355 75.1212 275.391 74.5653 276.305 72.9396L279.022 68.1218C279.936 66.4961 279.398 64.3947 277.824 63.4508L276.212 62.4823C273.985 61.15 274.043 60.4648 274.325 59.4895C274.711 58.1505 275.128 56.8148 275.411 55.4304C275.664 54.196 275.55 53.3187 278.577 53.3187H280.431C282.255 53.3187 283.742 51.7804 283.742 49.8994V44.326C283.742 42.445 282.255 40.9067 280.431 40.9067H278.577C275.55 40.9067 275.664 40.0255 275.411 38.795C275.128 37.4106 274.711 36.0749 274.325 34.7397C274.043 33.764 273.985 33.0787 276.212 31.7431L277.824 30.7746C279.398 29.8303 279.936 27.7293 279.022 26.1035L276.305 21.2858C275.39 19.6635 273.355 19.1037 271.782 20.0514L270.153 21.0267C267.78 22.4497 266.879 21.4079 266.594 21.1039C265.627 20.0654 264.665 19.0236 263.626 18.0619C263.248 17.7159 262.718 16.7402 263.934 14.5798L264.965 12.7548C265.88 11.1287 265.342 9.02765 263.768 8.08377L259.099 5.2797C257.526 4.33539 255.49 4.89129 254.574 6.51404L253.546 8.33904C252.313 10.5312 251.099 10.4439 250.585 10.2726C249.097 9.78326 247.721 9.46863 246.186 9.05563C245.623 8.9051 244.663 8.48236 244.663 5.87418V3.91985C244.663 2.03845 243.178 0.503906 241.354 0.503906H235.953C234.131 0.503906 232.644 2.03888 232.644 3.91985V5.87418C232.644 8.48236 231.684 8.90553 231.122 9.05563C229.585 9.46821 228.211 9.78284 226.722 10.2726C226.209 10.4439 224.994 10.5312 223.761 8.33904L222.733 6.51404C221.817 4.89172 219.781 4.33582 218.208 5.2797ZM238.654 39.7533C242.592 39.7533 245.784 43.0471 245.784 47.1131C245.784 51.1795 242.592 54.4729 238.654 54.4729C234.715 54.4729 231.523 51.1795 231.523 47.1131C231.523 43.0471 234.715 39.7533 238.654 39.7533ZM216.303 47.1131C216.303 46.2426 216.986 45.54 217.829 45.54C218.671 45.54 219.353 46.2426 219.353 47.1131C219.353 52.6127 221.514 57.595 225.006 61.1996C228.498 64.8081 233.323 67.0351 238.655 67.0351C239.496 67.0351 240.179 67.7411 240.179 68.612C240.179 69.4791 239.496 70.1851 238.655 70.1851C232.484 70.1851 226.895 67.6011 222.849 63.4266C218.804 59.2521 216.303 53.4837 216.303 47.1131ZM260.711 43.3965C260.843 44.2535 260.276 45.0574 259.448 45.1936C258.618 45.3301 257.839 44.7462 257.707 43.8897C257.052 39.7152 255.136 35.9774 252.376 33.0966C249.611 30.2157 246.004 28.2016 241.965 27.4812C241.137 27.3345 240.58 26.5233 240.721 25.6668C240.861 24.8103 241.648 24.2366 242.478 24.3803C247.154 25.2161 251.334 27.5478 254.533 30.8832C257.729 34.2156 259.949 38.5542 260.711 43.3965ZM238.654 19.7754C253.28 19.7754 265.138 32.0123 265.138 47.1131C265.138 62.2101 253.28 74.4508 238.654 74.4508C224.027 74.4508 212.169 62.2101 212.169 47.1131C212.169 32.0128 224.027 19.7754 238.654 19.7754Z" fill="#EAEFF8"/>
<path fill-rule="evenodd" clip-rule="evenodd" d="M69.0397 123.155L66.0049 124.977C64.9804 125.592 64.6312 126.959 65.226 128.015L65.8968 129.204C66.686 130.606 66.3421 131.242 66.0965 131.469C65.4208 132.095 64.7943 132.77 64.1658 133.445C63.981 133.644 63.3952 134.323 61.8507 133.396L60.7921 132.76C59.7692 132.148 58.4449 132.508 57.8505 133.564L56.0841 136.7C55.4881 137.756 55.8385 139.123 56.863 139.739L57.9113 140.364C59.3593 141.235 59.3219 141.679 59.1374 142.312C58.8869 143.183 58.6158 144.053 58.4313 144.955C58.267 145.756 58.3414 146.326 56.3737 146.326H55.166C53.9805 146.326 53.0135 147.326 53.0135 148.549V152.175C53.0135 153.399 53.9805 154.395 55.166 154.395H56.3737C58.3414 154.395 58.267 154.969 58.4313 155.773C58.6158 156.672 58.8869 157.542 59.1374 158.409C59.3219 159.045 59.3593 159.49 57.9113 160.36L56.863 160.986C55.8385 161.601 55.4876 162.968 56.0841 164.024L57.8505 167.16C58.4449 168.216 59.7692 168.576 60.7921 167.965L61.8507 167.328C63.3952 166.402 63.9814 167.08 64.1658 167.279C64.7939 167.954 65.4208 168.632 66.0965 169.255C66.3421 169.482 66.686 170.115 65.8968 171.52L65.226 172.709C64.6316 173.765 64.9804 175.132 66.0049 175.748L69.0397 177.57C70.0642 178.185 71.3886 177.821 71.983 176.766L72.6522 175.581C73.4532 174.157 74.2439 174.213 74.5779 174.322C75.5465 174.64 76.4391 174.847 77.4398 175.115C77.8042 175.213 78.429 175.486 78.429 177.185V178.454C78.429 179.678 79.396 180.674 80.5815 180.674H84.0941C85.2796 180.674 86.2466 179.678 86.2466 178.454V177.185C86.2466 175.486 86.8718 175.213 87.2357 175.115C88.2352 174.846 89.129 174.64 90.098 174.322C90.4316 174.213 91.2207 174.157 92.0238 175.581L92.693 176.766C93.2874 177.821 94.6133 178.185 95.6362 177.57L98.6727 175.748C99.6955 175.133 100.044 173.766 99.4499 172.709L98.7795 171.52C97.9904 170.115 98.3342 169.482 98.5795 169.255C99.2552 168.632 99.8804 167.954 100.51 167.279C100.695 167.08 101.281 166.402 102.825 167.328L103.884 167.965C104.907 168.576 106.231 168.216 106.825 167.16L108.592 164.024C109.186 162.968 108.837 161.601 107.813 160.986L106.765 160.36C105.317 159.489 105.354 159.045 105.538 158.409C105.789 157.542 106.06 156.672 106.245 155.773C106.407 154.969 106.335 154.395 108.302 154.395H109.51C110.695 154.395 111.66 153.399 111.66 152.175V148.549C111.66 147.326 110.695 146.326 109.51 146.326H108.302C106.334 146.326 106.407 145.756 106.245 144.955C106.06 144.053 105.789 143.183 105.538 142.312C105.354 141.679 105.317 141.235 106.765 140.364L107.813 139.739C108.837 139.123 109.187 137.756 108.592 136.7L106.825 133.564C106.231 132.508 104.907 132.148 103.884 132.76L102.825 133.396C101.281 134.323 100.695 133.644 100.51 133.445C99.88 132.77 99.2552 132.095 98.5795 131.469C98.3338 131.242 97.9904 130.606 98.7795 129.204L99.4499 128.015C100.044 126.959 99.6955 125.592 98.6727 124.977L95.6362 123.155C94.6133 122.54 93.2869 122.9 92.693 123.959L92.0238 125.144C91.2211 126.571 90.432 126.515 90.098 126.403C89.1294 126.085 88.2352 125.878 87.2357 125.613C86.8718 125.512 86.2466 125.239 86.2466 123.543V122.27C86.2466 121.047 85.2796 120.047 84.0941 120.047H80.5815C79.396 120.047 78.429 121.047 78.429 122.27V123.543C78.429 125.239 77.8042 125.512 77.4398 125.613C76.4387 125.878 75.5465 126.085 74.5779 126.403C74.2439 126.515 73.4532 126.571 72.6522 125.144L71.983 123.959C71.3886 122.9 70.0642 122.54 69.0397 123.155ZM82.3376 145.574C84.898 145.574 86.9745 147.717 86.9745 150.36C86.9745 153.007 84.898 155.15 82.3376 155.15C79.7767 155.15 77.7007 153.006 77.7007 150.36C77.7007 147.717 79.7767 145.574 82.3376 145.574ZM67.8017 150.36C67.8017 149.797 68.2453 149.339 68.7937 149.339C69.3408 149.339 69.7845 149.797 69.7845 150.36C69.7845 153.94 71.1902 157.178 73.4614 159.524C75.7322 161.87 78.8706 163.317 82.3371 163.317C82.8843 163.317 83.3296 163.779 83.3296 164.342C83.3296 164.908 82.8843 165.366 82.3371 165.366C78.3234 165.366 74.6888 163.688 72.059 160.972C69.4292 158.254 67.8017 154.506 67.8017 150.36ZM96.6837 147.944C96.7683 148.5 96.3994 149.024 95.8609 149.115C95.3224 149.202 94.8159 148.822 94.7296 148.266C94.3032 145.549 93.0581 143.116 91.263 141.245C89.4646 139.374 87.1191 138.06 84.4921 137.595C83.9536 137.501 83.5913 136.969 83.6825 136.413C83.7741 135.857 84.2871 135.483 84.8257 135.578C87.8675 136.12 90.5852 137.637 92.665 139.808C94.7428 141.976 96.1875 144.794 96.6837 147.944ZM82.3376 132.581C91.85 132.581 99.5612 140.542 99.5612 150.36C99.5612 160.181 91.8504 168.142 82.3376 168.142C72.8247 168.142 65.1139 160.181 65.1139 150.36C65.1143 140.542 72.8247 132.581 82.3376 132.581Z" fill="#EAEFF8"/>
</svg>
